<?xml version="1.0" encoding="utf-8"?>
<!-- Generator: Adobe Illustrator 26.2.1, SVG Export Plug-In . SVG Version: 6.00 Build 0)  -->
<svg version="1.1" id="Capa_1" xmlns="http://www.w3.org/2000/svg" xmlns:xlink="http://www.w3.org/1999/xlink" x="0px" y="0px"
	 viewBox="0 0 960 116.3" style="enable-background:new 0 0 960 116.3;" xml:space="preserve">
<style type="text/css">
	.st0{fill:#ECECEC;}
	.st1{fill:#0058A7;}
	.st2{fill:#5D5C5C;}
	.st3{fill-rule:evenodd;clip-rule:evenodd;fill:#003764;}
	.st4{fill:#FFFFFF;}
	.st5{fill:none;}
	.st6{fill:url(#SVGID_1_);}
	.st7{fill:#F2D231;}
	.st8{fill:url(#SVGID_00000035507617217817631850000004401811040874351788_);}
	.st9{fill:url(#SVGID_00000008123900405057495760000016995922378758913671_);}
	.st10{fill:url(#SVGID_00000073003003553412728580000007433541818163893920_);}
	.st11{fill:#002C76;}
	.st12{fill:#265FAA;}
	.st13{fill:#D12417;}
	.st14{fill:#0076BC;}
	.st15{fill-rule:evenodd;clip-rule:evenodd;fill:#0076BC;}
	.st16{fill-rule:evenodd;clip-rule:evenodd;fill:#FFFFFF;}
	.st17{fill:#0076BC;stroke:#0076BC;stroke-width:0.216;stroke-linecap:round;stroke-linejoin:round;stroke-miterlimit:22.9256;}
	.st18{fill:#007CBE;}
	.st19{font-family:'ArialNarrow';}
	.st20{font-size:6.5052px;}
</style>
<g transform="translate(-888 -5621.72)">
	<rect x="888" y="5621.7" class="st0" width="960" height="116.3"/>
	<path class="st1" d="M1194.5,5659.2c10,0,18.6,7.2,20.4,17h7.9c-2-15.6-16.3-26.6-31.9-24.7c-12.9,1.6-23,11.8-24.7,24.7h7.9
		C1175.9,5666.4,1184.5,5659.2,1194.5,5659.2"/>
	<path class="st2" d="M1173.9,5677.5h-7.8c0,0.4-0.1,0.8-0.1,1.2h7.8C1173.9,5678.3,1173.9,5677.9,1173.9,5677.5"/>
	<path class="st1" d="M1194.5,5700.6c-11.4,0-20.6-9.2-20.7-20.6h-7.8c0.1,15.2,12,27.6,27.1,28.3h2.7c15.1-0.7,27.1-13.2,27.1-28.3
		h-7.8C1215.1,5691.4,1205.9,5700.6,1194.5,5700.6"/>
	<path class="st2" d="M1215.1,5677.5c0,0.4,0.1,0.8,0.1,1.2h7.8c0-0.4,0-0.8-0.1-1.2H1215.1z"/>
	<path class="st3" d="M1181.8,5678.7l0.2-0.6l-0.6-0.4h0.6l0.2-0.5l0.2,0.5h0.6l-0.5,0.4l0.2,0.6l-0.5-0.4L1181.8,5678.7z"/>
	<path class="st3" d="M1181.3,5680.8l0.2-0.6l-0.6-0.4h0.6l0.2-0.6l0.2,0.6h0.6l-0.5,0.4l0.2,0.6l-0.6-0.3L1181.3,5680.8z"/>
	<path class="st3" d="M1181.8,5682.7l0.2-0.6l-0.5-0.4h0.6l0.2-0.6l0.2,0.6h0.6l-0.5,0.4l0.2,0.6l-0.5-0.4L1181.8,5682.7z"/>
	<path class="st3" d="M1183.3,5684.3l0.2-0.6l-0.5-0.4h0.6l0.2-0.6l0.2,0.6h0.6l-0.5,0.4l0.2,0.6l-0.5-0.3L1183.3,5684.3z"/>
	<path class="st3" d="M1185.2,5684.9l0.2-0.6l-0.5-0.4h0.6l0.2-0.6l0.2,0.6h0.6l-0.5,0.4l0.2,0.6l-0.5-0.4L1185.2,5684.9z"/>
	<path class="st3" d="M1187.3,5684.2l0.2-0.6l-0.5-0.4h0.6l0.2-0.6l0.2,0.6h0.6l-0.5,0.4l0.2,0.6l-0.5-0.4L1187.3,5684.2z"/>
	<path class="st3" d="M1188.7,5682.7l0.2-0.6l-0.5-0.4h0.6l0.2-0.6l0.2,0.6h0.6l-0.5,0.4l0.2,0.6l-0.5-0.4L1188.7,5682.7z"/>
	<path class="st3" d="M1189.1,5680.8l0.2-0.6l-0.5-0.4h0.6l0.2-0.6l0.2,0.6h0.6l-0.5,0.4l0.2,0.6l-0.5-0.3L1189.1,5680.8z"/>
	<path class="st3" d="M1188.5,5678.6l0.2-0.6l-0.5-0.4h0.6l0.2-0.6l0.2,0.6h0.6l-0.6,0.4l0.2,0.6l-0.5-0.3L1188.5,5678.6z"/>
	<path class="st3" d="M1187.1,5677.2l0.2-0.6l-0.5-0.4h0.6l0.2-0.6l0.2,0.6h0.6l-0.5,0.4l0.2,0.6l-0.5-0.3L1187.1,5677.2z"/>
	<path class="st3" d="M1185.2,5676.8l0.2-0.6l-0.5-0.4h0.6l0.2-0.5l0.2,0.5h0.6l-0.5,0.4l0.2,0.6l-0.5-0.3L1185.2,5676.8z"/>
	<path class="st3" d="M1183.2,5677.2l0.2-0.6l-0.5-0.4h0.6l0.2-0.6l0.2,0.6h0.6l-0.5,0.4l0.2,0.6l-0.5-0.3L1183.2,5677.2z"/>
	<path class="st3" d="M1185.9,5682.3l0.2-0.6l-0.5-0.4h0.6l0.2-0.6l0.2,0.6h0.6l-0.5,0.4l0.2,0.6l-0.5-0.4L1185.9,5682.3z"/>
	<path class="st3" d="M1188.4,5686l0.2-0.6l-0.6-0.4h0.6l0.2-0.6l0.2,0.6h0.6l-0.5,0.4l0.2,0.6l-0.6-0.3L1188.4,5686z"/>
	<rect x="1177.7" y="5675.6" class="st2" width="2.1" height="8.4"/>
	<path class="st2" d="M1198,5684h-1.5l-4-5.4v5.4h-1.8v-8.4h1.6l3.8,5.1v-5.1h1.8V5684z"/>
	<path class="st2" d="M1203.6,5680.1c0-0.7-0.6-1.4-1.3-1.4c0,0,0,0,0,0c-0.7,0-1.4,0.6-1.4,1.3c0,0,0,0,0,0.1H1203.6z
		 M1205.2,5683.3c-0.8,0.6-1.8,0.9-2.8,0.8c-2.2,0-3.7-1.3-3.7-3.3c0-1.8,1.5-3.3,3.3-3.3c1.8,0,3.3,1.5,3.3,3.3c0,0.1,0,0.2,0,0.3
		h-4.5c0,1,0.9,1.8,1.9,1.8c0.1,0,0.1,0,0.2,0c0.9,0,1.7-0.3,2.3-0.9L1205.2,5683.3z"/>
	<path class="st2" d="M1210.9,5679.1h-2.3v2.6c-0.1,0.5,0.3,1,0.8,1c0.1,0,0.1,0,0.2,0c0.5,0,0.9-0.1,1.3-0.4v1.4
		c-0.6,0.3-1.2,0.4-1.8,0.4c-1.2,0.2-2.3-0.7-2.4-1.9c0-0.2,0-0.3,0-0.5v-2.7h-0.9v-0.4l2.6-3h0.2v2h2.3L1210.9,5679.1z"/>
	<rect x="1176.1" y="5672.7" class="st2" width="36.9" height="1.9"/>
	<rect x="1176.1" y="5686.5" class="st2" width="36.9" height="0.9"/>
	<path class="st4" d="M1173.1,5665.8c0.2,0.1,0.4,0.1,0.5,0.2c0.1,0.1,0.1,0.2,0.1,0.3c0,0,0,0,0,0c-0.1,0.1-0.2,0.1-0.4,0.1
		c-0.4-0.1-0.8,0.1-1,0.5c-0.4,0.6,0,1.4,0.8,1.8c0.4,0.2,1.4,0.7,2-0.3c0.4-0.6-0.1-1.1,0.1-1.4c0.1-0.1,0.2-0.1,0.2-0.1
		c0.3,0.2,0.5,1,0,1.8c-0.5,1-1.6,1.3-2.6,0.9c0,0,0,0-0.1,0c-1-0.6-1.3-1.9-0.7-2.9c0.2-0.4,0.5-0.7,0.9-0.9
		C1172.9,5665.8,1173,5665.8,1173.1,5665.8"/>
	<path class="st4" d="M1178,5663.6c0.4,0.4,0.4,0.4,1-0.1c0.2-0.2,0.4-0.4,0.3-0.7c0-0.1,0-0.3,0.1-0.4c0.1-0.1,0.2-0.1,0.3,0
		c0.1,0.1,0.2,0.3,0.2,0.4c0.1,0.2,0.1,0.2-0.1,0.4l-1.8,1.8c-0.1,0.1-0.2,0.2-0.3,0.1c-0.1-0.1,0-0.1,0-0.2c0.1-0.1,0-0.2-0.1-0.3
		l-1.7-1.8c-0.1-0.1-0.2-0.2-0.3-0.1s-0.2,0-0.2,0c-0.1-0.1,0-0.2,0.1-0.3l1.7-1.7c0.1-0.1,0.2-0.2,0.2-0.2c0.2,0.1,0.3,0.2,0.4,0.3
		c0.1,0.1,0.1,0.2,0,0.3c0,0,0,0,0,0c-0.1,0.1-0.2,0.1-0.3,0.1c-0.3,0-0.4,0-0.8,0.4c-0.4,0.4-0.3,0.5-0.3,0.5l0.7,0.7l0.6-0.5
		c0.3-0.3,0.1-0.4,0.2-0.5s0.3,0,0.4,0.1c0.1,0.1,0.3,0.3,0.2,0.4c-0.1,0.1-0.2,0-0.5,0.2l-0.6,0.5L1178,5663.6z"/>
	<path class="st4" d="M1182.5,5658.9c0.4-0.2,1-0.8,0.7-1.3c-0.2-0.3-0.6-0.4-0.9-0.3c0,0-0.1,0-0.1,0.1c-0.4,0.2-0.3,0.4-0.2,0.6
		L1182.5,5658.9z M1183.1,5660c0.1,0.1,0.1,0.2,0.2,0.2c0.1,0,0.2,0,0.2,0.1c0.1,0.1,0,0.2-0.1,0.3l-0.9,0.5c-0.1,0.1-0.2,0.1-0.3,0
		c0-0.1,0-0.1,0-0.2c0.1-0.1,0.1-0.2,0-0.4l-1.2-2.2c-0.1-0.2-0.1-0.2-0.2-0.2c-0.1,0-0.2,0-0.2-0.1c-0.1-0.1,0-0.2,0.1-0.3l1.6-0.9
		c0.2-0.2,0.5-0.3,0.8-0.3c0.3,0,0.6,0.2,0.8,0.4c0.2,0.4,0.1,0.9-0.2,1.3c0.5,0.2,0.9,0.4,1.2,0.8c0.1,0.1,0.2,0.2,0.4,0.2
		c0.1,0,0.1,0,0.2,0.1c0.1,0.1-0.1,0.2-0.2,0.3l-0.9,0.5c-0.1,0.1-0.3,0.2-0.4,0c-0.1-0.1,0.1-0.2,0.1-0.4c-0.3-0.3-0.7-0.6-1.1-0.8
		c-0.1,0.1-0.3,0.2-0.4,0.3L1183.1,5660z"/>
	<path class="st4" d="M1188.6,5655.2c0-0.2-0.1-0.3-0.3-0.2c-0.6,0.1-0.5,0.6-0.8,0.6c-0.1,0-0.2,0-0.2-0.2c0-0.1,0-0.2,0-0.3
		c0-0.3,0-0.3,0.3-0.4l2.6-0.6c0.2,0,0.3-0.1,0.4,0.2c0,0.1,0.1,0.2,0.1,0.3c0,0.1,0,0.2-0.1,0.2c-0.2,0.1-0.4-0.4-0.9-0.2
		c-0.2,0-0.2,0.1-0.1,0.3l0.5,2.4c0,0.2,0.1,0.2,0.2,0.3c0.1,0,0.2,0.1,0.2,0.1c0,0.1-0.1,0.2-0.2,0.2l-1,0.2c-0.1,0-0.3,0-0.3-0.1
		c0-0.1,0-0.1,0.1-0.2c0.1-0.1,0.1-0.2,0.1-0.3L1188.6,5655.2z"/>
	<path class="st4" d="M1194.5,5654.5c0-0.2,0-0.3-0.1-0.3s-0.2-0.1-0.2-0.2c0-0.1,0.1-0.2,0.3-0.2l1,0c0.1,0,0.3,0,0.2,0.2
		c0,0.1,0,0.1-0.1,0.1c-0.2,0.1-0.2,0.2-0.2,0.3l-0.1,2.5c0,0.2,0,0.2,0.1,0.3c0.1,0.1,0.2,0.1,0.2,0.2c0,0.1-0.1,0.2-0.3,0.2l-1,0
		c-0.1,0-0.3,0-0.2-0.2c0-0.1,0.1-0.1,0.1-0.2c0.1-0.1,0.1-0.1,0.2-0.3L1194.5,5654.5z"/>
	<path class="st4" d="M1199.9,5657.7c0,0.2-0.1,0.2,0,0.3c0.1,0.1,0.2,0.1,0.1,0.2c0,0.1-0.2,0.1-0.3,0.1l-1-0.2
		c-0.1,0-0.2-0.1-0.2-0.2c0-0.1,0.1-0.1,0.2-0.1c0.1,0,0.2-0.1,0.2-0.3l0.6-2.4c0-0.2,0.1-0.3,0-0.3s-0.1-0.1-0.1-0.2
		c0-0.1,0.2-0.1,0.3-0.1l2.2,0.6c0.1,0,0.2,0.1,0.3,0.1c0.1,0.1,0,0.4,0,0.5c0,0.1,0,0.3-0.2,0.2c-0.1,0-0.1-0.1-0.2-0.2
		c-0.2-0.4-0.4-0.4-0.8-0.5c-0.5-0.1-0.5-0.1-0.6,0.3l-0.2,0.8l0.7,0.2c0.4,0.1,0.3-0.1,0.5-0.1c0.2,0,0.1,0.2,0.1,0.4
		c-0.1,0.2-0.1,0.4-0.3,0.4c-0.2,0-0.1-0.2-0.4-0.3l-0.7-0.2L1199.9,5657.7z"/>
	<path class="st4" d="M1205.7,5657.2c0.1-0.2,0.1-0.2,0-0.3c-0.1-0.1-0.1-0.1-0.1-0.2c0.1-0.1,0.2-0.1,0.3,0l0.9,0.5
		c0.1,0.1,0.2,0.1,0.1,0.3c0,0.1-0.1,0.1-0.2,0.1c-0.2,0-0.2,0.1-0.3,0.2l-1.1,2.2c-0.1,0.1-0.1,0.2,0,0.3c0.1,0.1,0.1,0.2,0.1,0.2
		c-0.1,0.1-0.2,0.1-0.3,0l-0.9-0.5c-0.1-0.1-0.2-0.1-0.1-0.3c0-0.1,0.1-0.1,0.2-0.1c0.1,0,0.2-0.1,0.3-0.2L1205.7,5657.2z"/>
	<path class="st4" d="M1209.3,5662.1c-0.3,0.4-0.3,0.5,0.2,0.9c0.2,0.2,0.5,0.3,0.7,0.3c0.1,0,0.3-0.1,0.4,0c0.1,0.1,0.1,0.2,0,0.3
		c-0.1,0.1-0.2,0.2-0.4,0.3c-0.2,0.1-0.2,0.1-0.4,0l-1.9-1.7c-0.1-0.1-0.2-0.2-0.1-0.3c0.1-0.1,0.1-0.1,0.2,0c0.1,0,0.2,0,0.3-0.1
		l1.6-1.9c0.1-0.2,0.2-0.2,0.1-0.3c-0.1-0.1-0.1-0.2,0-0.2c0.1-0.1,0.2,0,0.3,0l1.8,1.6c0.1,0.1,0.2,0.2,0.2,0.2
		c-0.1,0.2-0.1,0.3-0.3,0.4c-0.1,0.1-0.2,0.1-0.3,0.1c0,0,0,0,0,0c-0.1-0.1-0.1-0.2-0.1-0.3c0-0.3-0.1-0.4-0.5-0.7
		c-0.4-0.4-0.5-0.3-0.6-0.2l-0.6,0.7l0.6,0.5c0.3,0.2,0.4,0.1,0.5,0.2c0.1,0.1,0,0.3-0.1,0.4s-0.3,0.3-0.4,0.2
		c-0.1-0.1,0-0.2-0.2-0.5l-0.6-0.5L1209.3,5662.1z"/>
	<path class="st4" d="M1213.5,5666.8c-0.3,0.2-0.4,0.3-0.2,0.6c0.4,0.6,1.2,0.8,1.8,0.4c0,0,0.1-0.1,0.1-0.1c0.7-0.3,1-1.1,0.7-1.8
		c0,0,0-0.1-0.1-0.1c-0.2-0.3-0.3-0.2-0.6-0.1L1213.5,5666.8z M1216.2,5665.7c0.3,0.4,0.5,0.9,0.5,1.5c-0.1,0.6-0.4,1.1-0.9,1.4
		c-0.8,0.6-1.9,0.4-2.5-0.4c-0.1-0.1-0.1-0.2-0.2-0.3l-0.9-1.4c-0.1-0.1-0.1-0.2,0-0.3c0.1,0,0.1,0,0.2,0c0.1,0.1,0.2,0,0.3-0.1
		l2.1-1.3c0.2-0.1,0.2-0.1,0.2-0.3c0-0.1,0-0.2,0.1-0.2c0.1-0.1,0.2,0,0.3,0.1L1216.2,5665.7z"/>
	<path class="st4" d="M1172.3,5685.5c0.1,0.2-0.1,0.3-0.2,0.4c-0.6,0.4-1.1,0.8-1.6,1.3c0.7,0.1,1.4,0.2,2.1,0.2
		c0.2,0,0.2,0,0.3,0.2l0.3,0.8c0,0.1,0,0.3-0.1,0.3c-0.1,0-0.1,0-0.2-0.1c-0.1-0.2-0.2-0.2-0.4-0.1c-0.5,0.2-1.5,0.5-2.3,0.8
		c-0.2,0-0.2,0.1-0.3,0.2c0,0.1,0,0.2-0.1,0.2c-0.1,0-0.2-0.1-0.2-0.2l-0.3-0.9c0-0.1,0-0.3,0.1-0.3c0.1,0,0.1,0,0.2,0.1
		c0.1,0.1,0.2,0.1,0.3,0c0.8-0.2,1.4-0.5,2.1-0.7c-0.8-0.1-1.5-0.1-2.3-0.2c-0.3,0-0.3,0-0.4-0.3c-0.1-0.2-0.1-0.3,0.1-0.4
		c0.6-0.5,1.1-1,1.8-1.5c-0.8,0.2-1.5,0.4-2.1,0.6c-0.2,0.1-0.2,0.1-0.2,0.3c0,0.1,0,0.1-0.1,0.2c-0.1,0-0.2-0.1-0.3-0.3l-0.1-0.4
		c0-0.1-0.1-0.3,0.1-0.4c0.1,0,0.2,0,0.2,0.1c0.1,0.1,0.2,0.2,0.4,0.1c0.7-0.2,2.4-0.6,2.5-0.7c0.1,0,0.1-0.1,0.1-0.3
		c0-0.1,0-0.2,0.1-0.2c0.2,0,0.2,0.1,0.3,0.2L1172.3,5685.5z"/>
	<path class="st4" d="M1172.3,5691.6c0.4-0.4,0.7-0.7,1-1.1c-0.5,0-1,0-1.5,0.1L1172.3,5691.6z M1171.4,5690.6
		c-0.2,0-0.5,0.1-0.7,0.1c-0.2,0.1,0,0.3-0.2,0.4c-0.1,0.1-0.2-0.1-0.3-0.2l-0.2-0.4c-0.1-0.1-0.1-0.3,0-0.3c0.1,0,0.1,0,0.2,0
		c0.1,0,0.1,0.1,0.2,0.1c1.1-0.2,2.3-0.3,3.4-0.3c0.2,0,0.2,0.1,0.4,0.3c0.1,0.2,0.1,0.2,0,0.4c-0.7,0.9-1.4,1.8-2.2,2.6
		c-0.1,0.1-0.1,0.1-0.1,0.2c0,0.1,0,0.1-0.1,0.2c-0.1,0.1-0.2,0-0.3-0.2l-0.4-0.8c-0.1-0.1-0.1-0.3,0-0.4c0.1-0.1,0.2,0.1,0.3,0.1
		c0.2-0.2,0.4-0.4,0.6-0.6L1171.4,5690.6z"/>
	<path class="st4" d="M1174.6,5692.9c0.3-0.2,0.3-0.3,0.3-0.5c0-0.1-0.1-0.2,0-0.3c0.1-0.1,0.2,0,0.3,0.1l0.4,0.6
		c0.1,0.1,0.1,0.2,0.1,0.4c-0.2,0.9-0.5,1.8-0.8,2.7l1.4-1c0.2-0.1,0.2-0.2,0.1-0.4c0-0.1,0-0.2,0.1-0.2c0.1-0.1,0.2,0,0.3,0.2
		l0.3,0.4c0.1,0.1,0.2,0.3,0.1,0.4c-0.1,0.1-0.2,0.1-0.2,0c-0.2-0.1-0.2-0.1-0.4,0l-2.3,1.7c-0.3,0.2-0.3,0.2-0.5,0
		c-0.1-0.1-0.1-0.2-0.1-0.3c0.2-0.4,0.7-2,1-3.3l-1.7,1.3c-0.2,0.1-0.2,0.2-0.1,0.4c0,0.1,0,0.2-0.1,0.2c-0.1,0.1-0.2,0-0.3-0.2
		l-0.3-0.4c-0.1-0.1-0.2-0.3-0.1-0.4c0.1-0.1,0.2-0.1,0.2,0c0.2,0.1,0.2,0.1,0.4,0L1174.6,5692.9z"/>
	<path class="st4" d="M1177.3,5698.1c0.2-0.4,0.4-0.9,0.5-1.4c-0.5,0.2-0.9,0.4-1.4,0.6L1177.3,5698.1z M1176.1,5697.5
		c-0.2,0.1-0.4,0.2-0.6,0.4c-0.2,0.2,0.1,0.3-0.1,0.5c-0.1,0.1-0.2,0-0.4-0.1l-0.3-0.3c-0.1-0.1-0.2-0.2-0.1-0.3
		c0.1,0,0.1-0.1,0.2,0c0.1,0,0.2,0,0.2,0c1-0.6,2-1,3.1-1.4c0.2-0.1,0.3,0,0.4,0.2c0.2,0.2,0.2,0.2,0.1,0.4
		c-0.3,1.1-0.7,2.1-1.2,3.2c0,0.1,0,0.2,0,0.2c0,0.1,0,0.1,0,0.2c-0.1,0.1-0.2,0-0.3-0.1l-0.6-0.6c-0.1-0.1-0.2-0.2-0.1-0.3
		c0.1-0.1,0.3,0.1,0.3,0c0.2-0.2,0.3-0.5,0.4-0.7L1176.1,5697.5z"/>
	<path class="st4" d="M1181.7,5701.1c0.4,0.3,0.4,0.3,0.3,0.4c-0.1,0.1-0.3,0.3-0.4,0.5c-0.1,0.2-0.2,0.4-0.3,0.5
		c-0.1,0.1-0.3,0.2-0.8,0c-0.4-0.1-0.7-0.2-1-0.4c-0.9-0.5-1.3-1.7-0.7-2.6c0-0.1,0.1-0.1,0.1-0.2c0.6-0.9,1.9-1.2,2.8-0.5
		c0,0,0.1,0.1,0.1,0.1c0.3,0.2,0.6,0.5,0.8,0.9c0.1,0.1,0.1,0.2,0.1,0.3c-0.1,0.1-0.1,0.3-0.2,0.4c-0.1,0.2-0.2,0.2-0.3,0.1
		c-0.1-0.1-0.1-0.2-0.1-0.3c0.1-0.4-0.1-0.8-0.4-1.1c-0.7-0.4-1.6-0.1-1.9,0.6c0,0,0,0,0,0c-0.4,0.5-0.6,1.4,0.1,1.9
		c0.2,0.1,0.4,0.2,0.6,0.2c0.2,0,0.4-0.3,0.5-0.4c0.2-0.3,0.2-0.4-0.1-0.6c-0.2-0.1-0.3-0.2-0.2-0.4c0.1-0.2,0.2-0.1,0.4,0
		L1181.7,5701.1z"/>
	<path class="st4" d="M1183.2,5703c-0.2,0.5-0.2,0.5,0.4,0.8c0.2,0.2,0.5,0.2,0.8,0.1c0.1,0,0.3-0.1,0.4-0.1c0.1,0,0.1,0.1,0.1,0.2
		c-0.1,0.1-0.2,0.3-0.3,0.4c-0.2,0.2-0.2,0.2-0.4,0.1l-2.3-1.1c-0.1,0-0.2-0.1-0.2-0.3c0-0.1,0.1-0.1,0.2-0.1c0.1,0,0.2-0.1,0.3-0.2
		l1.1-2.2c0.1-0.2,0.1-0.2,0-0.3c-0.1-0.1-0.1-0.1-0.1-0.2c0.1-0.1,0.2-0.1,0.3-0.1l2.2,1c0.1,0.1,0.2,0.1,0.2,0.2
		c0,0.2-0.1,0.3-0.1,0.5c-0.1,0.1-0.1,0.2-0.3,0.1c-0.1,0-0.1-0.1-0.1-0.2c-0.1-0.3-0.2-0.4-0.7-0.6c-0.5-0.2-0.6-0.1-0.6,0
		l-0.4,0.9l0.7,0.3c0.3,0.2,0.4,0,0.5,0c0.2,0.1,0.1,0.3,0,0.4c-0.1,0.1-0.2,0.4-0.3,0.3c-0.2-0.1,0-0.2-0.4-0.4l-0.7-0.3
		L1183.2,5703z"/>
	<path class="st4" d="M1187.7,5701.7c0.2,0.1,0.2,0.2,0.2,0.4c0,0.7,0.1,1.4,0.2,2c0.4-0.5,0.9-1.1,1.3-1.7c0.1-0.2,0.1-0.2,0.4-0.1
		l0.9,0.2c0.1,0,0.2,0.1,0.2,0.2c0,0.1-0.1,0.1-0.1,0.1c-0.3,0-0.3,0.1-0.3,0.3c-0.1,0.5-0.3,1.5-0.6,2.4c0,0.2-0.1,0.2,0,0.3
		c0.1,0.1,0.1,0.1,0.1,0.2c0,0.1-0.2,0.1-0.3,0.1l-0.9-0.3c-0.1,0-0.2-0.1-0.2-0.2c0-0.1,0.1-0.1,0.2-0.1c0.1,0,0.2-0.1,0.2-0.3
		c0.2-0.8,0.4-1.5,0.5-2.2c-0.5,0.6-0.9,1.2-1.4,1.8c-0.2,0.2-0.2,0.2-0.4,0.2c-0.2-0.1-0.3-0.1-0.3-0.3c-0.1-0.7-0.2-1.5-0.3-2.3
		c-0.2,0.7-0.5,1.5-0.7,2.1c0,0.2,0,0.2,0.2,0.4c0.1,0,0.1,0.1,0.1,0.2c0,0.2-0.2,0.1-0.4,0.1l-0.4-0.1c-0.1,0-0.3-0.1-0.3-0.2
		c0-0.1,0.1-0.1,0.2-0.1c0.2,0,0.2-0.1,0.3-0.3c0.2-0.7,0.7-2.3,0.8-2.5c0-0.1-0.1-0.2-0.2-0.2c-0.1-0.1-0.2-0.1-0.1-0.2
		c0-0.2,0.2-0.1,0.3-0.1L1187.7,5701.7z"/>
	<path class="st4" d="M1192.2,5705.5c-0.1,0.5,0,0.6,0.7,0.6c0.3,0.1,0.6,0,0.8-0.2c0.1-0.1,0.2-0.2,0.4-0.2c0.1,0,0.2,0.1,0.2,0.2
		c0,0.2-0.1,0.3-0.2,0.5c-0.1,0.2-0.1,0.2-0.4,0.2l-2.5-0.2c-0.1,0-0.2-0.1-0.2-0.2c0-0.1,0.1-0.1,0.1-0.1c0.1,0,0.2-0.1,0.2-0.3
		l0.2-2.5c0-0.2,0-0.3-0.1-0.3s-0.1-0.1-0.1-0.2c0-0.1,0.2-0.2,0.3-0.2l2.4,0.2c0.2,0,0.2,0,0.3,0.1c0,0.2,0.1,0.3,0,0.5
		c0,0.1-0.1,0.2-0.2,0.2c-0.1,0-0.2-0.1-0.2-0.2c-0.2-0.2-0.3-0.3-0.8-0.3c-0.5-0.1-0.6,0.1-0.6,0.2l-0.1,0.9l0.8,0.1
		c0.4,0,0.3-0.2,0.5-0.1s0.2,0.2,0.1,0.4c0,0.1,0,0.4-0.2,0.4c-0.2,0-0.1-0.2-0.5-0.2l-0.8-0.1L1192.2,5705.5z"/>
	<path class="st4" d="M1195.1,5703.7c0-0.4-0.1-0.4-0.2-0.5c-0.1,0-0.2,0-0.2-0.2c0-0.2,0.2-0.2,0.3-0.2l0.7,0c0.1,0,0.3,0,0.4,0.1
		c0.6,0.7,1.2,1.4,1.8,2.1l-0.1-1.7c0-0.2-0.1-0.2-0.2-0.3c-0.1,0-0.1-0.1-0.1-0.2c0-0.2,0.1-0.2,0.3-0.2l0.4,0c0.2,0,0.4,0,0.4,0.1
		c0,0.1,0,0.1-0.1,0.2c-0.2,0.1-0.2,0.1-0.2,0.3l0.2,2.8c0,0.3,0,0.4-0.3,0.4c-0.1,0-0.2,0-0.3-0.1c-0.3-0.4-1.3-1.7-2.2-2.6
		l0.1,2.2c0,0.2,0.1,0.2,0.2,0.3c0.1,0,0.1,0.1,0.1,0.2c0,0.2-0.2,0.2-0.3,0.2l-0.4,0c-0.2,0-0.4,0-0.4-0.1c0-0.1,0-0.1,0.1-0.2
		c0.2-0.1,0.2-0.1,0.2-0.3L1195.1,5703.7z"/>
	<path class="st4" d="M1200,5703c0-0.2-0.1-0.3-0.3-0.2c-0.6,0.1-0.5,0.6-0.8,0.6c-0.1,0-0.2,0-0.2-0.2c0-0.1,0-0.2,0-0.3
		c0-0.3,0-0.3,0.3-0.4l2.6-0.6c0.2-0.1,0.3-0.1,0.4,0.2c0,0.1,0.1,0.2,0.1,0.3c0,0.1,0,0.2-0.1,0.2c-0.2,0.1-0.4-0.4-0.9-0.2
		c-0.2,0-0.2,0.1-0.1,0.3l0.5,2.4c0,0.2,0.1,0.2,0.2,0.3c0.1,0,0.2,0,0.2,0.1c0,0.1-0.1,0.2-0.2,0.2l-1,0.2c-0.1,0-0.3,0-0.3-0.1
		c0-0.1,0-0.1,0.1-0.2c0.1-0.1,0.1-0.2,0.1-0.3L1200,5703z"/>
	<path class="st4" d="M1206.1,5703.6c0.3-0.2,0.6-0.5,0.4-0.9c-0.4-0.8-2.1,0.8-2.8-0.6c-0.1-0.2-0.3-1.2,0.9-1.7
		c0.4-0.2,0.7-0.3,1.1-0.3c0.1,0,0.1,0,0.2,0.1c0.1,0.1,0.2,0.3,0.2,0.4c0.1,0.1,0,0.2,0,0.3c0,0,0,0,0,0c-0.3,0.1-0.5-0.6-1.3-0.2
		c-0.3,0.1-0.5,0.4-0.4,0.7c0.4,0.8,2.1-0.7,2.8,0.6c0.3,0.8-0.1,1.6-0.8,1.9c0,0,0,0-0.1,0c-1.1,0.6-1.7,0.1-1.8-0.1
		c-0.1-0.1,0-0.3,0.1-0.4c0.1-0.1,0.2-0.1,0.5,0.2C1205.4,5703.8,1205.8,5703.7,1206.1,5703.6"/>
	<path class="st4" d="M1208.6,5700.7c-0.6-0.2-1.2-0.4-1.8-0.7c-0.1-0.1-0.2-0.1-0.4-0.1c-0.1,0-0.2,0-0.2-0.1
		c-0.1-0.1,0-0.2,0.2-0.4l0.8-0.6c0.1-0.1,0.2-0.1,0.3,0s-0.1,0.2,0,0.3c0.1,0.1,0.3,0.3,1.5,0.7c0.1-0.5,0.1-1.1-0.1-1.6
		c-0.1-0.1-0.3,0-0.4-0.1s0-0.2,0.1-0.3l0.4-0.3c0.2-0.1,0.3-0.2,0.4-0.1c0,0.1,0,0.1,0,0.2c-0.1,0.1-0.1,0.2,0,0.3
		c0.1,0.7,0.1,1.3,0,2l0.5,0.7c0.1,0.1,0.1,0.2,0.3,0.2c0.1,0,0.2,0,0.2,0.1c0.1,0.1,0,0.2-0.1,0.3l-0.8,0.6c-0.1,0.1-0.2,0.1-0.3,0
		c-0.1-0.1,0-0.1,0-0.2c0.1-0.1,0-0.2-0.1-0.3L1208.6,5700.7z"/>
	<path class="st4" d="M1212.8,5698.8c0.3-0.2,0.4-0.7,0.2-1c-0.6-0.7-1.7,1.4-2.8,0.3c-0.5-0.6-0.4-1.4,0.2-1.9c0,0,0.1,0,0.1-0.1
		c0.3-0.3,0.6-0.5,1-0.6c0.1,0,0.1,0,0.2,0c0.1,0.1,0.2,0.2,0.4,0.3c0.1,0.1,0.1,0.2,0,0.3c0,0,0,0,0,0c-0.2,0.2-0.7-0.4-1.3,0.2
		c-0.3,0.2-0.3,0.6-0.1,0.8c0.7,0.7,1.8-1.3,2.8-0.3c0.5,0.6,0.4,1.5-0.2,2.1c0,0,0,0-0.1,0c-0.9,0.9-1.6,0.6-1.8,0.5
		c-0.1-0.1-0.1-0.3,0-0.4c0.1-0.1,0.2-0.1,0.6,0C1212.2,5699.2,1212.6,5699.1,1212.8,5698.8"/>
	<path class="st4" d="M1213,5694.5c-0.2-0.1-0.2-0.2-0.3,0c-0.4,0.5,0,0.8-0.2,1c-0.1,0.1-0.2,0.1-0.3,0c-0.1-0.1-0.1-0.1-0.2-0.2
		c-0.2-0.2-0.2-0.3,0-0.5l1.6-2.1c0.1-0.2,0.2-0.2,0.5-0.1c0.1,0,0.2,0.1,0.3,0.1c0.1,0.1,0.1,0.2,0.1,0.3c-0.1,0.2-0.5,0-0.9,0.4
		c-0.1,0.2-0.1,0.2,0.1,0.3l2,1.5c0.1,0.1,0.2,0.1,0.3,0.1c0.1-0.1,0.2-0.1,0.2,0c0.1,0.1,0.1,0.2,0,0.3l-0.6,0.8
		c-0.1,0.1-0.2,0.2-0.3,0.1c-0.1-0.1-0.1-0.1-0.1-0.2c0-0.1,0-0.2-0.2-0.3L1213,5694.5z"/>
	<path class="st4" d="M1216.9,5692.2c0.5,0.3,0.5,0.2,0.9-0.4c0.2-0.2,0.2-0.5,0.1-0.8c0-0.1-0.1-0.3-0.1-0.4c0-0.1,0.2-0.1,0.2-0.1
		c0.1,0.1,0.3,0.2,0.4,0.3c0.2,0.2,0.2,0.2,0,0.4l-1.2,2.2c-0.1,0.1-0.2,0.2-0.3,0.1c-0.1,0-0.1-0.1-0.1-0.2c0-0.1-0.1-0.2-0.2-0.3
		l-2.2-1.2c-0.2-0.1-0.2-0.1-0.3,0c-0.1,0.1-0.1,0.1-0.2,0.1c-0.1-0.1-0.1-0.2,0-0.3l1.2-2.1c0.1-0.1,0.1-0.2,0.2-0.2
		c0.2,0,0.3,0.1,0.5,0.2c0.1,0.1,0.2,0.2,0.1,0.3c-0.1,0.1-0.2,0.1-0.3,0.1c-0.3,0.1-0.4,0.1-0.6,0.6s-0.2,0.5-0.1,0.6l0.8,0.5
		l0.4-0.7c0.2-0.3,0-0.4,0.1-0.5c0.1-0.2,0.3-0.1,0.4,0c0.1,0.1,0.4,0.2,0.3,0.4c-0.1,0.2-0.2,0-0.4,0.3l-0.4,0.7L1216.9,5692.2z"/>
	<path class="st4" d="M1215.8,5687.6c0.1-0.2,0.2-0.2,0.4-0.2c0.8,0,1.4,0,2.1-0.1c-0.5-0.5-1-0.9-1.6-1.4c-0.1-0.1-0.2-0.2-0.1-0.4
		l0.3-0.8c0-0.1,0.1-0.2,0.2-0.2c0.1,0,0.1,0.1,0.1,0.1c0,0.3,0.1,0.3,0.2,0.3c0.5,0.2,1.5,0.4,2.4,0.7c0.2,0.1,0.2,0.1,0.3,0
		s0.1-0.1,0.2-0.1c0.1,0,0.1,0.2,0.1,0.3l-0.3,0.9c0,0.1-0.1,0.2-0.2,0.2c-0.1,0-0.1-0.1-0.1-0.2c0-0.1-0.1-0.2-0.3-0.2
		c-0.8-0.3-1.5-0.4-2.2-0.6c0.6,0.5,1.2,1,1.7,1.5c0.2,0.2,0.2,0.2,0.2,0.4s-0.1,0.3-0.3,0.3c-0.8,0.1-1.5,0.2-2.3,0.2
		c0.7,0.3,1.5,0.6,2.1,0.8c0.2,0.1,0.2,0,0.4-0.1c0-0.1,0.1-0.1,0.2-0.1c0.1,0,0.1,0.2,0,0.4l-0.1,0.4c0,0.1-0.1,0.3-0.3,0.3
		c-0.1,0-0.1-0.1-0.1-0.2c0-0.2-0.1-0.2-0.2-0.3c-0.7-0.2-2.3-0.9-2.4-0.9c-0.1,0-0.2,0-0.3,0.2c-0.1,0.1-0.1,0.2-0.2,0.1
		c-0.2-0.1-0.1-0.2-0.1-0.3L1215.8,5687.6z"/>
	<rect x="1166" y="5651.4" class="st5" width="57" height="57"/>
	<g transform="translate(1510.346 5655.887)">
		<g transform="translate(0 0)">
			
				<linearGradient id="SVGID_1_" gradientUnits="userSpaceOnUse" x1="-1088.8057" y1="553.2809" x2="-1088.2706" y2="553.1629" gradientTransform="matrix(39.7008 0 0 -43.4656 43245.2891 24069.791)">
				<stop  offset="0.126" style="stop-color:#BF011F"/>
				<stop  offset="0.195" style="stop-color:#C20E2A"/>
				<stop  offset="0.323" style="stop-color:#CB3049"/>
				<stop  offset="0.496" style="stop-color:#D9697A"/>
				<stop  offset="0.705" style="stop-color:#ECB5BE"/>
				<stop  offset="0.89" style="stop-color:#FFFFFF"/>
			</linearGradient>
			<path class="st6" d="M23.3,0C10.8,0.2,0.5,8.9,0,20.9c-0.5,12,8.9,22.1,20.9,22.5c0,0,0,0,0,0c5.9,0.2,11.6-1.9,15.8-6
				c3.9-3.8,3.8-10.4,0.6-7.4c-3.6,3.5-8.5,5.3-13.5,5.1C13.8,34.8,6,26.7,6.3,17.1c0.4-8.9,9.2-16,17.1-16.4L23.7,0
				C23.6,0,23.4,0,23.3,0z"/>
		</g>
		<g transform="translate(10.696)">
			<path class="st7" d="M14.3,0.6c10.1,0.6,18.4,9.2-11,17.8c4.6,0.9,9,2.6,13,5C41.5,10.6,27.2,0,13,0l-0.2,0.6
				C13.3,0.6,13.8,0.6,14.3,0.6z"/>
			
				<linearGradient id="SVGID_00000137122679301458045360000012712264383674636952_" gradientUnits="userSpaceOnUse" x1="-1093.6104" y1="488.5264" x2="-1092.8263" y2="488.5264" gradientTransform="matrix(26.134 0 0 -6.3451 28583.0957 3102.9126)">
				<stop  offset="0" style="stop-color:#BF011F"/>
				<stop  offset="1" style="stop-color:#F2D231"/>
			</linearGradient>
			<path style="fill:url(#SVGID_00000137122679301458045360000012712264383674636952_);" d="M2,5.1C5,2.5,8.8,1,12.8,0.6
				c0.5,0,1,0,1.6,0c4.9,0.3,9.5,2.5,9.3,5.7l2.5-2.9C22.8,1.2,17.9,0,13,0c-0.1,0-0.3,0-0.4,0C8.2,0,3.8,1.2,0,3.5L2,5.1z"/>
			
				<linearGradient id="SVGID_00000097493338890124562030000013844519579015386787_" gradientUnits="userSpaceOnUse" x1="-1096.6718" y1="540.7839" x2="-1096.6718" y2="540.4189" gradientTransform="matrix(32.212 0 0 -19.9941 35345.2852 10826.2061)">
				<stop  offset="0" style="stop-color:#D09924"/>
				<stop  offset="0.175" style="stop-color:#DAA927"/>
				<stop  offset="0.468" style="stop-color:#E7C02C"/>
				<stop  offset="0.748" style="stop-color:#EFCD2F"/>
				<stop  offset="1" style="stop-color:#F2D231"/>
			</linearGradient>
			<path style="fill:url(#SVGID_00000097493338890124562030000013844519579015386787_);" d="M25.1,33.9c0-0.1-0.4-3-0.4-3
				c-1-6.7,0.4-13.3,10.7-13.8c-15-7.2-24.9-0.3-32.2,1.3C9.8,19.2,23.8,26.7,25.1,33.9z"/>
			
				<linearGradient id="SVGID_00000109739855079922440550000007095181853069301395_" gradientUnits="userSpaceOnUse" x1="-1090.2611" y1="546.7526" x2="-1090.0631" y2="546.3947" gradientTransform="matrix(22.2679 0 0 -26.9673 24297.541 14770.1426)">
				<stop  offset="0" style="stop-color:#D09924"/>
				<stop  offset="0.144" style="stop-color:#DAA927"/>
				<stop  offset="0.383" style="stop-color:#E7C02C"/>
				<stop  offset="0.613" style="stop-color:#EFCD2F"/>
				<stop  offset="0.82" style="stop-color:#F2D231"/>
				<stop  offset="1" style="stop-color:#F2D231"/>
			</linearGradient>
			<path style="fill:url(#SVGID_00000109739855079922440550000007095181853069301395_);" d="M30.1,19.1c-6.4,2.6-5.7,9.9-5.1,14.2
				c0.5,1.9,0.2,4-0.7,5.8c-1.8,3.1-4.8,5.5-10.5,7C28.4,46.7,45.1,32.6,30.1,19.1z"/>
		</g>
	</g>
	<path class="st11" d="M1372.7,5684.2c-1.1,0.3-2.2,0.5-3.3,0.6c-2.5,0-3-2.2-3-4c0-2.8,1-4.3,3.1-4.3c0.6,0,1.2,0.1,1.7,0.3
		c0,0,1.8,0.7,1.8,0.7l0-2.4l-0.3-0.1c-1.3-0.5-2.6-0.8-4-0.9c-3.7,0-6,2.6-6,6.7c0,3.9,2.3,6.5,5.7,6.5c1.7-0.1,3.4-0.5,4.9-1.2
		l0.3-0.1l-0.6-1.8L1372.7,5684.2z"/>
	<path class="st11" d="M1330.1,5677.6c1.6-0.6,2.5-2.1,2.4-3.8c0.1-1.7-0.9-3.3-2.4-3.9c-1.1-0.5-2.1-0.6-5.2-0.6h-6.5v1.9
		c0,0,1.6,0.3,2.1,0.3v15.5h5.2c2.5,0,3.6-0.2,4.8-0.7c1.7-0.8,2.8-2.5,2.8-4.4C1333.3,5679.9,1332,5678.1,1330.1,5677.6
		 M1324,5671.6h1c1.4,0,2.4,0,3.1,0.6c0.5,0.5,0.7,1.1,0.7,1.7c0,1.7-0.6,2.5-2.6,2.6l-1.5,0.2l-0.7,1.1L1324,5671.6L1324,5671.6z
		 M1328.2,5684c-0.8,0.6-2,0.7-3.6,0.7h-0.6v-5.8h1.3c1.1-0.1,2.1,0.1,3.1,0.6c0.6,0.6,0.9,1.3,0.9,2.2
		C1329.3,5682.5,1328.9,5683.4,1328.2,5684"/>
	<path class="st11" d="M1433.4,5677.6c1.6-0.6,2.5-2.1,2.4-3.8c0.1-1.7-0.9-3.3-2.5-3.9c-1.1-0.5-2.1-0.6-5.2-0.6h-6.5v1.9
		c0,0,1.6,0.3,2.1,0.3v15.5h5.2c1.6,0.1,3.3-0.1,4.8-0.7c1.7-0.8,2.8-2.5,2.8-4.4C1436.6,5679.9,1435.4,5678.1,1433.4,5677.6
		 M1427.4,5671.6h1c1.4,0,2.4,0,3.1,0.6c0.5,0.5,0.7,1.1,0.7,1.7c0,1.7-0.6,2.5-2.6,2.6l-1.5,0.2l-0.7,1.1L1427.4,5671.6
		L1427.4,5671.6z M1431.6,5684c-0.8,0.6-2,0.7-3.6,0.7h-0.6v-5.8h1.3c1.1-0.1,2.1,0.1,3.1,0.6
		C1432.9,5680.7,1432.9,5682.8,1431.6,5684C1431.6,5684,1431.6,5684,1431.6,5684"/>
	<path class="st11" d="M1357.4,5674c-1.4,0.1-2.7,0.4-4,1c0-0.3-0.1-1-0.1-1l-5.3,0.7v1.9h2v10.4h3.5c0,0,0-9.2,0-9.7
		c0.9-0.3,1.8-0.5,2.7-0.5c0.4-0.1,0.8,0.1,1.1,0.3c0.3,0.5,0.4,1.2,0.3,1.8v8.1h3.5v-8.3c0-1.9-0.1-2.5-0.7-3.4
		C1359.8,5674.5,1358.6,5674,1357.4,5674"/>
	<path class="st11" d="M1380.4,5674c-3.9,0-6.3,2.5-6.3,6.6c0,4.1,2.4,6.6,6.3,6.6c3.9,0,6.3-2.5,6.3-6.6
		C1386.7,5676.5,1384.3,5674,1380.4,5674 M1380.4,5685c-1.1,0-2.6-0.4-2.6-4.3c0-3.8,1.4-4.3,2.7-4.3c1.1,0,2.6,0.5,2.6,4.3
		C1383,5684.4,1381.7,5685,1380.4,5685"/>
	<path class="st11" d="M1472,5674c-3.9,0-6.3,2.5-6.3,6.6c0,4.1,2.4,6.6,6.3,6.6c3.9,0,6.3-2.5,6.3-6.6
		C1478.3,5676.5,1475.9,5674,1472,5674 M1472,5685c-1.1,0-2.6-0.4-2.6-4.3c0-3.8,1.4-4.3,2.7-4.3c1.1,0,2.6,0.5,2.6,4.3
		C1474.6,5684.4,1473.3,5685,1472,5685"/>
	<path class="st11" d="M1486.7,5684.6l-2.5,0.4c-0.6,0-0.7-0.1-0.8-0.3c-0.1-0.1-0.1-0.2-0.1-1.2v-6.9h3.5v-2.2h-3.5v-3.4l-0.4,0
		l-3.1,0.3v12c-0.1,1,0.1,2,0.7,2.8c0.7,0.7,1.6,1.1,2.6,1c1.3,0,2.6-0.3,3.8-0.8l0.3-0.1L1486.7,5684.6z"/>
	<path class="st11" d="M1444.5,5674c-3.9,0-6.3,2.5-6.3,6.6c0,4.1,2.4,6.6,6.3,6.6c3.9,0,6.3-2.5,6.3-6.6
		C1450.8,5676.5,1448.4,5674,1444.5,5674 M1444.5,5685c-1.1,0-2.6-0.4-2.6-4.3c0-3.8,1.4-4.3,2.7-4.3c1.1,0,2.6,0.5,2.6,4.3
		C1447.1,5684.4,1445.8,5685,1444.5,5685"/>
	<path class="st11" d="M1460.7,5675.1c-0.8-0.5-1.8-0.7-2.8-0.7c-3.5,0-6,2.8-6,6.7c0,3.7,2,6.1,5.1,6.1c1.2-0.1,2.4-0.4,3.5-1v1
		c0,2.2-0.8,2.8-3.5,2.8c-1.4,0-2.8-0.2-4.2-0.5v2.1c1.6,0.4,3.3,0.7,5,0.7c1.4,0.1,2.9-0.2,4.2-0.8c1.5-0.8,2.1-2,2.1-4.2v-12.8
		h-3.5V5675.1z M1460.6,5684.4c-0.5,0.1-1.1,0.1-1.6,0.1c-2.1,0-3.3-1.4-3.3-3.9c0-2.6,1.3-4.1,3.6-4.1c0.4,0,0.9,0.1,1.3,0.1
		L1460.6,5684.4L1460.6,5684.4z"/>
	<path class="st11" d="M1346.3,5674.6h-3.4v0.5c-0.8-0.5-1.7-0.7-2.7-0.7c-3.4,0-5.9,2.8-5.9,6.7c0,3.7,1.9,6.1,5,6.1
		c1.2-0.1,2.4-0.6,3.4-1.3v1.1h0.1l4.9-0.5v-2.1h-1.4V5674.6z M1342.9,5684.5c-0.5,0.1-1.1,0.1-1.7,0.1c-2.2,0-3.4-1.4-3.4-3.9
		c0-2.6,1.4-4.2,3.7-4.2c0.4,0,0.9,0,1.3,0.1V5684.5z"/>
	<path class="st11" d="M1499.7,5674.6h-3.4v0.5c-0.8-0.5-1.7-0.7-2.7-0.7c-3.4,0-5.9,2.8-5.9,6.7c0,3.7,2,6.1,5,6.1
		c1.2-0.1,2.4-0.6,3.4-1.3v1.1l5-0.5v-2.1h-1.4L1499.7,5674.6L1499.7,5674.6z M1496.2,5684.5c-0.5,0.1-1.1,0.1-1.7,0.1
		c-2.2,0-3.4-1.4-3.4-3.9c0-2.6,1.3-4.2,3.7-4.2c0.4,0,0.9,0,1.3,0.1V5684.5L1496.2,5684.5z"/>
	<path class="st11" d="M1498.1,5671.5l-0.8-2.7l-0.3,0.1l-5.5,2.2l0.5,1.6L1498.1,5671.5z"/>
	<path class="st11" d="M1403.5,5668.5h-0.2l-0.4,0l-4.6,0.6v1.6h1.7v4.1c-1.6-0.6-3.4-0.7-5.1-0.3c-2.4,0.8-3.8,3-3.9,6.2
		c-0.1,2.9,1.4,5.2,3.8,6c1.8,0.4,3.7,0.1,5.3-0.7c0,0.3,0,1,0,1l4.7-0.6v-1.5h-1.5C1403.4,5684.6,1403.5,5668.5,1403.5,5668.5
		 M1400,5684.4c-1.6,0.4-3.3,0.8-4.5-0.6c-0.6-0.9-0.9-2.1-0.8-3.2v-0.4c0-1.1,0.3-2.1,1.1-3c1.1-1.2,2.9-1,4.3-0.3
		C1400.1,5676.9,1400,5684.2,1400,5684.4"/>
	<path class="st11" d="M1411.9,5674c-0.8,0-1.5,0.1-2.2,0.3c-2.6,0.8-4,3.1-4.1,6.4c-0.2,2.7,1.4,5.3,4,6.2c2.2,0.7,5.5,0,7.5-1.2
		l0.1,0l-0.6-1.8l-1.1,0.4c-1.7,0.5-3.8,1.3-5.2-0.3c-0.6-0.9-0.9-2.1-0.8-3.2l6.8,0.1h1v-0.2c0-0.3,0-0.6,0-0.9
		C1417.3,5673.9,1412.1,5674.1,1411.9,5674 M1409.5,5679c0-0.2,0.1-2.8,2.4-2.8c2.3,0,2.3,2.5,2.4,2.8H1409.5z"/>
	<path class="st12" d="M1672.6,5676.1c0.9,0,1.8,0.4,2.4,1c2.4,2.3,4.8,4.6,7.1,7c1.3,1.4,2.7,2.7,4.1,4.1c1.5,1.5,3,3,4.6,4.5
		c0.3,0.3,0.3,0.4,0,0.7c-1.5,1.5-3,3-4.5,4.5c-0.3,0.3-0.4,0.3-0.7,0c-4.2-4.2-8.4-8.4-12.6-12.6c-0.3-0.3-0.5-0.3-0.8,0
		c-4.2,4.2-8.4,8.4-12.6,12.6c-0.3,0.3-0.5,0.3-0.8,0c-1.5-1.5-3-3-4.5-4.4c-0.3-0.3-0.3-0.4,0-0.7c5.2-5.2,10.4-10.3,15.6-15.5
		C1670.5,5676.5,1671.5,5676.1,1672.6,5676.1L1672.6,5676.1z"/>
	<path class="st13" d="M1707.7,5698.2c-1,0.1-2-0.3-2.7-1c-2.6-2.5-5.2-5-7.7-7.7c-2.5-2.6-5.2-5.2-7.7-7.8c-0.6-0.6-0.6-0.6,0-1.2
		c1.4-1.4,2.8-2.8,4.3-4.2c0.3-0.3,0.4-0.3,0.7,0c1.5,1.6,3.1,3.1,4.6,4.6c2.7,2.7,5.3,5.3,8,8c0.3,0.3,0.5,0.3,0.7,0
		c4.2-4.2,8.4-8.4,12.6-12.6c0.3-0.3,0.5-0.3,0.8,0c1.5,1.5,3,3,4.5,4.5c0.3,0.3,0.3,0.4,0,0.7c-5.2,5.1-10.3,10.3-15.5,15.4
		C1709.6,5697.7,1708.7,5698.2,1707.7,5698.2z"/>
	<path class="st12" d="M1741.9,5676.1c0.9,0,1.9,0.4,2.5,1.1c2.1,2,4.2,4,6.2,6.1c3.1,3.2,6.2,6.2,9.3,9.4c0.4,0.4,0.4,0.5,0,0.9
		c-1.5,1.4-3,2.9-4.4,4.3c-0.3,0.3-0.5,0.3-0.7,0c-2.6-2.6-5.1-5.1-7.7-7.7c-1.6-1.6-3.3-3.3-4.9-4.9c-0.3-0.3-0.5-0.3-0.7,0
		c-4.2,4.2-8.4,8.4-12.6,12.6c-0.3,0.3-0.5,0.3-0.8,0c-1.5-1.5-3-3-4.5-4.4c-0.3-0.3-0.3-0.4,0-0.7c5.2-5.1,10.3-10.3,15.5-15.4
		C1739.8,5676.5,1740.9,5676.1,1741.9,5676.1z M1777.3,5698.2c-3.1,0-6.2,0-9.3,0c-1.9,0.1-3.6-1.3-3.7-3.3c0-0.1,0-0.3,0-0.4
		c-0.1-6,0-12.1,0-18.1c0-0.4,0.1-0.5,0.5-0.5c2,0,3.9,0,5.9,0c0.5,0,0.5,0.1,0.5,0.6c0,4.7,0,9.4,0,14.2c0,0.5,0.1,0.6,0.6,0.6
		c5,0,10.1,0,15.1,0c0.4,0,0.6,0.1,0.6,0.5c0,1.9,0,3.9,0,5.8c0,0.5-0.2,0.6-0.6,0.6C1783.7,5698.2,1780.5,5698.2,1777.3,5698.2
		L1777.3,5698.2z M1677.9,5666.4c0.7,0,1.5,0,2.2,0c0.3,0,0.4,0,0.4,0.4c0.2,2.6-1.8,4.8-4.4,4.9c0,0-0.1,0-0.1,0
		c-2.7,0.2-5-1.9-5.2-4.6c-0.1-2,1-3.9,2.9-4.8c1.9-0.8,4.1-0.4,5.6,1c0.2,0.2,0.4,0.4,0.5,0.6c0.5,0.7,0.5,0.7-0.3,1
		c-0.3,0.1-0.4,0-0.5-0.2c-0.8-1.4-2.4-2-4-1.7c-1.5,0.2-2.7,1.4-3,2.9c-0.5,2,0.7,4.1,2.7,4.7c0.7,0.2,1.4,0.2,2.1,0
		c1.2-0.3,2.2-1.3,2.5-2.6c0.1-0.4,0.1-0.6-0.4-0.5c-1.1,0-2.2,0-3.3,0c-0.4,0-0.4-0.2-0.4-0.5c0-0.3-0.1-0.6,0.4-0.5
		C1676.4,5666.4,1677.2,5666.4,1677.9,5666.4z M1704.1,5665.7c1.3-1.5,3.6-1.7,5.1-0.4c0,0,0.1,0.1,0.1,0.1c1.3,1.4,1.4,3.5,0.3,5.1
		c-1.3,1.5-3.7,1.6-5.2,0.3c-0.1-0.1-0.2-0.2-0.2-0.2c0,1,0,1.9,0,2.9c0,0.5-0.2,0.5-0.6,0.5c-0.4,0-0.6-0.1-0.6-0.5
		c0-2.7,0-5.4,0-8.2c0-0.5,0.1-0.6,0.6-0.6c0.5,0,0.6,0.2,0.5,0.6C1704.1,5665.4,1704.1,5665.5,1704.1,5665.7L1704.1,5665.7z
		 M1709.3,5668.1c0.1-1.4-0.9-2.6-2.3-2.7c-0.1,0-0.2,0-0.3,0c-1.5,0-2.7,1.2-2.6,2.7c0,0,0,0,0,0c0,1.4,1.1,2.6,2.5,2.7
		c0,0,0.1,0,0.1,0c1.4,0.1,2.5-1,2.6-2.4C1709.3,5668.3,1709.3,5668.2,1709.3,5668.1L1709.3,5668.1z M1713.6,5668
		c-0.1-1.9,1.4-3.5,3.3-3.6c0.1,0,0.2,0,0.3,0c2-0.1,3.7,1.5,3.7,3.5c0.1,2-1.5,3.7-3.5,3.7c-0.1,0-0.2,0-0.3,0
		c-1.9,0.1-3.5-1.4-3.6-3.3C1713.6,5668.3,1713.6,5668.1,1713.6,5668L1713.6,5668z M1719.8,5668.1c0.1-1.4-1-2.6-2.4-2.7
		c0,0-0.1,0-0.2,0c-1.5,0-2.7,1.1-2.7,2.6c0,0,0,0.1,0,0.1c-0.1,1.4,1,2.6,2.4,2.7c0,0,0.1,0,0.1,0c1.4,0.1,2.6-0.9,2.7-2.2
		C1719.8,5668.4,1719.8,5668.3,1719.8,5668.1L1719.8,5668.1z M1697.4,5670.5c-0.6,0.8-1.6,1.2-2.6,1.2c-1.4,0-2.6-1.1-2.7-2.5
		c0,0,0,0,0,0c0-1.4,0-2.8,0-4.2c0-0.5,0.4-0.3,0.6-0.3c0.3,0,0.5-0.1,0.5,0.4c0,1.1,0,2.2,0,3.2c0,0.2,0,0.4,0,0.6
		c0,0.9,0.6,1.6,1.5,1.8c1,0.2,2-0.2,2.5-1.1c0.2-0.4,0.3-0.9,0.3-1.4c0-1,0-2,0-3c0-0.5,0.3-0.5,0.6-0.5c0.4,0,0.5,0.1,0.5,0.5
		c0,2,0,3.9,0,5.9c0,0.5-0.2,0.5-0.6,0.5c-0.3,0-0.7,0.1-0.6-0.5C1697.6,5670.9,1697.5,5670.7,1697.4,5670.5L1697.4,5670.5z
		 M1685.6,5666.2c0.5-0.8,1.3-1.4,2.2-1.6c0.1,0,0.3,0,0.4-0.1c0.7,0,0.7,0,0.7,0.7c0,0.2-0.1,0.3-0.3,0.3c-2.1-0.1-2.9,1.6-2.9,3.1
		c0,0.8,0,1.6,0,2.5c0,0.5-0.2,0.4-0.5,0.4c-0.3,0-0.6,0.1-0.6-0.4c0-2.1,0-4.1,0-6.2c0-0.6,0.4-0.3,0.7-0.4c0.3,0,0.5,0,0.5,0.4
		C1685.6,5665.4,1685.6,5665.7,1685.6,5666.2L1685.6,5666.2z"/>
	<g>
		<g>
			<path class="st14" d="M1047.6,5644.9h29.5c2.1,0,4.1,0.9,5.5,2.3c1.4,1.4,2.3,3.3,2.3,5.5v50.6c0,2.1-0.9,4.1-2.3,5.5
				c-1.4,1.4-3.3,2.3-5.5,2.3h-29.5c-2.1,0-4.1-0.9-5.5-2.3c-1.4-1.4-2.3-3.3-2.3-5.5v-50.6c0-2.1,0.9-4.1,2.3-5.5
				C1043.6,5645.8,1045.5,5644.9,1047.6,5644.9L1047.6,5644.9z M1077.1,5645.6h-29.5c-1.9,0-3.7,0.8-4.9,2.1s-2.1,3-2.1,4.9v50.6
				c0,1.9,0.8,3.7,2.1,4.9s3,2.1,4.9,2.1h29.5c1.9,0,3.7-0.8,4.9-2.1s2.1-3,2.1-4.9v-50.6c0-1.9-0.8-3.7-2.1-4.9
				S1079,5645.6,1077.1,5645.6L1077.1,5645.6z"/>
			<path class="st15" d="M1077.1,5645.3h-29.5c-4.1,0-7.4,3.3-7.4,7.4v31c6.4,4.6,14,7.3,22.1,7.3s15.7-2.7,22.1-7.3v-31
				C1084.5,5648.6,1081.1,5645.3,1077.1,5645.3L1077.1,5645.3z"/>
			<path class="st16" d="M1062.3,5656.7c1.1,0,2.1,0.4,3,0.9l1.3-0.8c-1.1-1-2.6-1.6-4.2-1.6c-1.8,0-3.4,0.7-4.6,1.9
				c-1.2,1.2-1.9,2.8-1.9,4.6s0.7,3.4,1.9,4.6c1.2,1.2,2.8,1.9,4.6,1.9c1.8,0,3.4-0.7,4.6-1.9l0,0c0.1-0.1,0.2-0.2,0.2-0.2l-1.2-0.9
				c0,0-0.1,0.1-0.1,0.1l0,0c-0.9,0.9-2.2,1.5-3.6,1.5c-1.4,0-2.7-0.6-3.6-1.5c-0.9-0.9-1.5-2.2-1.5-3.6s0.6-2.7,1.5-3.6
				C1059.7,5657.3,1060.9,5656.7,1062.3,5656.7L1062.3,5656.7z M1065.9,5661.8c0-1-0.4-1.9-1-2.5c-0.6-0.6-1.5-1-2.5-1
				c-1,0-1.8,0.4-2.5,1l0,0c-0.6,0.6-1,1.5-1,2.5c0,1,0.4,1.9,1,2.5c0.6,0.6,1.5,1,2.5,1c1,0,1.9-0.4,2.5-1
				C1065.5,5663.7,1065.9,5662.8,1065.9,5661.8L1065.9,5661.8z M1062.3,5659.7c0.6,0,1.1,0.2,1.5,0.6c0.4,0.4,0.6,0.9,0.6,1.5
				s-0.2,1.1-0.6,1.5c-0.4,0.4-0.9,0.6-1.5,0.6c-0.6,0-1.1-0.2-1.5-0.6c-0.4-0.4-0.6-0.9-0.6-1.5s0.2-1.1,0.6-1.5l0,0
				C1061.3,5660,1061.8,5659.7,1062.3,5659.7L1062.3,5659.7z M1067.5,5661.8c0,1-0.3,1.9-0.7,2.6l1.2,0.9c0.7-1,1-2.2,1-3.5
				c0-1.1-0.3-2.1-0.7-3l1.5-1c0.6,1.2,1,2.5,1,3.9c0,2.3-0.9,4.4-2.4,5.9c-0.1,0.1-0.3,0.3-0.4,0.4l0.9,1.1
				c0.2-0.2,0.4-0.3,0.5-0.5c1.8-1.8,2.9-4.2,2.9-6.9c0-1.7-0.4-3.3-1.2-4.7c-0.2-0.4-0.5-0.8-0.8-1.2l-1.2,0.8l-1.5,1l-1.2,0.8
				c0.2,0.2,0.3,0.4,0.4,0.6c0.1,0.2,0.2,0.4,0.3,0.6C1067.3,5660.3,1067.5,5661.1,1067.5,5661.8L1067.5,5661.8z M1062.3,5670.1
				c-2,0-3.9-0.7-5.3-1.9l-1,1c1.7,1.5,3.9,2.3,6.3,2.3c2,0,3.9-0.6,5.5-1.7l-0.9-1.1C1065.6,5669.6,1064,5670.1,1062.3,5670.1
				L1062.3,5670.1z M1055.4,5657.2l-1.2-0.9c-1.1,1.6-1.7,3.4-1.7,5.5c0,2.4,0.9,4.7,2.4,6.4l1-1c-1.2-1.4-2-3.3-2-5.4
				C1054.1,5660.1,1054.6,5658.6,1055.4,5657.2L1055.4,5657.2z M1057,5655.5l-0.9-1.2c-0.2,0.2-0.4,0.4-0.7,0.6
				c-0.2,0.2-0.4,0.4-0.5,0.6l1.2,0.9c0.1-0.1,0.3-0.3,0.4-0.4C1056.6,5655.8,1056.8,5655.7,1057,5655.5L1057,5655.5z
				 M1062.3,5653.5c2.2,0,4.2,0.9,5.7,2.3l1.2-0.8l-0.1-0.1c-1.8-1.8-4.2-2.9-6.9-2.9c-2,0-3.8,0.6-5.4,1.6l0.9,1.2
				C1059.1,5654,1060.7,5653.5,1062.3,5653.5L1062.3,5653.5z"/>
			<path class="st4" d="M1046,5675.5c-0.2,0-0.3-0.1-0.5-0.2c-0.1-0.1-0.2-0.3-0.2-0.5c0-0.2,0.1-0.4,0.2-0.5
				c0.1-0.2,0.3-0.2,0.5-0.2c0.2,0,0.3,0.1,0.5,0.2c0.1,0.2,0.2,0.3,0.2,0.5c0,0.2-0.1,0.4-0.2,0.5
				C1046.3,5675.4,1046.2,5675.5,1046,5675.5L1046,5675.5z M1045.5,5681.7v-5.7h1v5.7H1045.5L1045.5,5681.7z M1051.5,5677.8
				c-0.4-0.4-0.8-0.6-1.3-0.6c-0.5,0-0.9,0.2-1.2,0.5c-0.3,0.3-0.5,0.8-0.5,1.3c0,0.6,0.3,1.1,0.8,1.4c0.3,0.2,0.6,0.3,1,0.3
				c0.2,0,0.5-0.1,0.7-0.2c0.2-0.1,0.4-0.3,0.6-0.4l0.8,0.8c-0.3,0.3-0.6,0.5-0.9,0.7c-0.4,0.2-0.8,0.3-1.1,0.3
				c-0.8,0-1.5-0.3-2-0.9c-0.5-0.6-0.8-1.3-0.8-2.1c0-0.8,0.3-1.5,0.8-2.1c0.5-0.6,1.2-0.9,2-0.9c0.4,0,0.8,0.1,1.2,0.3
				c0.3,0.1,0.7,0.4,1,0.7L1051.5,5677.8L1051.5,5677.8z M1055.7,5681.8c-0.8,0-1.5-0.3-2-0.9c-0.6-0.6-0.8-1.3-0.8-2.1
				c0-0.8,0.3-1.5,0.8-2c0.6-0.6,1.2-0.9,2-0.9c0.8,0,1.5,0.3,2,0.9c0.5,0.6,0.8,1.3,0.8,2.1c0,0.8-0.3,1.5-0.8,2
				C1057.2,5681.5,1056.5,5681.8,1055.7,5681.8L1055.7,5681.8z M1055.7,5677.2c-0.5,0-0.9,0.2-1.2,0.5c-0.3,0.3-0.5,0.8-0.5,1.2
				c0,0.5,0.2,0.9,0.5,1.2c0.3,0.3,0.7,0.5,1.2,0.5c0.5,0,0.9-0.2,1.2-0.5c0.3-0.3,0.5-0.7,0.5-1.2c0-0.5-0.2-0.9-0.5-1.2
				C1056.6,5677.4,1056.2,5677.2,1055.7,5677.2L1055.7,5677.2z M1063.1,5681.7v-3.3c0-0.4-0.1-0.7-0.3-0.9c-0.2-0.3-0.5-0.4-0.9-0.4
				c-0.3,0-0.6,0.1-0.9,0.4c-0.3,0.2-0.4,0.5-0.4,0.8v3.4h-1.2v-3.7c0-0.6,0.2-1.1,0.7-1.5c0.5-0.4,1.1-0.6,1.7-0.6
				c0.6,0,1.2,0.2,1.6,0.5c0.5,0.4,0.8,0.9,0.8,1.5v3.7H1063.1L1063.1,5681.7z M1065.4,5677.5c0-0.2,0-0.3-0.1-0.3h-0.5v-1.2h0.2
				c0.1,0,0.2,0,0.2,0c0,0,0,0,0-0.1c0-0.1,0-0.2,0-0.3v-1.1h1.2l0,1.4c0,0,0,0.1,0,0.1c0,0.1,0,0.1,0.1,0.1h1.2v1.2h-1.1
				c-0.1,0-0.1,0-0.1,0c0,0-0.1,0-0.1,0.1v1.6c0,0.5,0.1,0.9,0.3,1.2c0.2,0.3,0.5,0.5,1,0.6v1.2c-0.7-0.1-1.3-0.4-1.8-0.8
				c-0.4-0.5-0.7-1-0.7-1.8c0-0.3,0-0.6,0-0.9C1065.4,5678.1,1065.4,5677.8,1065.4,5677.5L1065.4,5677.5z M1073.8,5679.4h-4.1
				c-0.1,0-0.2,0-0.2,0c-0.1,0-0.1,0.1-0.1,0.2c0,0.1,0.1,0.2,0.2,0.4c0.1,0.1,0.2,0.2,0.3,0.3c0.3,0.3,0.7,0.4,1.1,0.4
				c0.2,0,0.5-0.1,0.7-0.2c0.2-0.1,0.4-0.2,0.6-0.4l0.7,0.9c-0.3,0.3-0.6,0.5-0.9,0.7c-0.4,0.2-0.7,0.2-1.1,0.2
				c-0.8,0-1.5-0.3-2-0.9c-0.6-0.6-0.8-1.3-0.8-2c0-0.8,0.3-1.5,0.8-2.1c0.5-0.6,1.2-0.9,2-0.9c0.8,0,1.5,0.3,2.1,0.9
				s0.8,1.3,0.8,2.1V5679.4L1073.8,5679.4z M1070.9,5677.1c-0.2,0-0.5,0.1-0.7,0.2c-0.2,0.1-0.4,0.3-0.6,0.5
				c-0.1,0.1-0.1,0.2-0.2,0.3c-0.1,0.1-0.1,0.2-0.1,0.3c0,0,0,0.1,0,0.1h2.8c0.1,0,0.2,0,0.2-0.1c0-0.1,0-0.1-0.1-0.2
				c-0.1-0.1-0.1-0.2-0.2-0.3c-0.2-0.2-0.3-0.3-0.6-0.5C1071.4,5677.1,1071.2,5677.1,1070.9,5677.1L1070.9,5677.1z M1078.5,5677.8
				c-0.4-0.4-0.8-0.6-1.3-0.6c-0.5,0-0.9,0.2-1.2,0.5c-0.3,0.3-0.5,0.8-0.5,1.3c0,0.6,0.3,1.1,0.8,1.4c0.3,0.2,0.6,0.3,1,0.3
				c0.2,0,0.5-0.1,0.7-0.2c0.2-0.1,0.4-0.3,0.6-0.4l0.8,0.8c-0.3,0.3-0.6,0.5-0.9,0.7c-0.4,0.2-0.8,0.3-1.1,0.3
				c-0.8,0-1.5-0.3-2-0.9c-0.5-0.6-0.8-1.3-0.8-2.1c0-0.8,0.3-1.5,0.8-2.1c0.5-0.6,1.2-0.9,2-0.9c0.4,0,0.8,0.1,1.2,0.3
				c0.3,0.1,0.7,0.4,1,0.7L1078.5,5677.8L1078.5,5677.8z"/>
			<path class="st17" d="M1048.2,5702.3l0.1-0.8l0.1-1.7l0.1-1.7c0-0.1,0-0.2,0-0.3l0-0.4l0.4,0l0.4,0c0,0.6-0.1,1.2-0.1,1.9
				c0,1.1-0.1,2.1-0.1,3.1l-0.3,0C1048.6,5702.3,1048.4,5702.3,1048.2,5702.3L1048.2,5702.3z M1049.9,5702.2c0-0.2,0-0.4,0-0.6
				c0.3,0.1,0.5,0.2,0.7,0.3c0.2,0,0.4,0.1,0.6,0.1c0.2,0,0.4,0,0.5-0.1c0.2-0.1,0.3-0.1,0.4-0.3c0.1-0.1,0.1-0.2,0.1-0.4
				c0-0.1,0-0.2,0-0.2c0-0.1-0.1-0.1-0.1-0.2c-0.1-0.1-0.2-0.2-0.3-0.3c-0.1-0.1-0.4-0.3-0.6-0.5l-0.3-0.2c-0.1-0.1-0.2-0.2-0.3-0.3
				c-0.1-0.1-0.2-0.2-0.2-0.2c-0.1-0.1-0.1-0.1-0.1-0.2c0-0.1-0.1-0.1-0.1-0.2c0-0.1,0-0.2,0-0.2c0-0.2,0.1-0.4,0.2-0.6
				c0.1-0.2,0.3-0.3,0.5-0.4c0.2-0.1,0.5-0.2,0.9-0.2c0.3,0,0.6,0,1,0.1c0,0.2,0,0.3,0.1,0.6c-0.4-0.1-0.7-0.2-1-0.2
				c-0.2,0-0.4,0-0.5,0.1c-0.1,0.1-0.2,0.2-0.3,0.3c-0.1,0.1-0.1,0.2-0.1,0.3c0,0.1,0,0.1,0,0.2c0,0.1,0,0.1,0.1,0.2
				c0.1,0.1,0.1,0.2,0.2,0.3c0.1,0.1,0.2,0.2,0.3,0.3c0,0,0.2,0.1,0.4,0.3c0.2,0.2,0.4,0.4,0.5,0.5c0.1,0.1,0.2,0.2,0.3,0.3
				c0.1,0.1,0.1,0.2,0.2,0.3c0,0.1,0.1,0.2,0.1,0.4c0,0.2,0,0.4-0.1,0.5c-0.1,0.2-0.2,0.3-0.4,0.4c-0.2,0.1-0.3,0.2-0.5,0.2
				c-0.2,0-0.4,0.1-0.6,0.1c-0.2,0-0.3,0-0.5,0C1050.5,5702.3,1050.2,5702.3,1049.9,5702.2L1049.9,5702.2z M1056.2,5697.3
				c0.4,0,0.7,0.1,1,0.2c0.3,0.1,0.6,0.3,0.9,0.5c0.2,0.2,0.4,0.5,0.5,0.8c0.1,0.3,0.2,0.6,0.2,1c0,0.4-0.1,0.7-0.2,1.1
				c-0.1,0.3-0.3,0.6-0.5,0.9c-0.2,0.2-0.5,0.4-0.9,0.5c-0.4,0.1-0.7,0.2-1.1,0.2c-0.4,0-0.7-0.1-1.1-0.2c-0.3-0.1-0.6-0.3-0.9-0.5
				c-0.2-0.2-0.4-0.5-0.5-0.8c-0.1-0.3-0.2-0.6-0.2-1c0-0.4,0.1-0.7,0.2-1.1c0.1-0.3,0.3-0.6,0.6-0.9c0.2-0.2,0.6-0.4,0.9-0.5
				C1055.5,5697.3,1055.9,5697.3,1056.2,5697.3L1056.2,5697.3z M1056.2,5697.7c-0.3,0-0.6,0-0.8,0.1c-0.3,0.1-0.5,0.2-0.7,0.4
				c-0.2,0.2-0.3,0.4-0.4,0.7c-0.1,0.3-0.1,0.6-0.1,0.9c0,0.3,0,0.5,0.1,0.8c0.1,0.3,0.2,0.5,0.4,0.6c0.2,0.2,0.4,0.3,0.6,0.4
				c0.3,0.1,0.5,0.1,0.8,0.1c0.3,0,0.5,0,0.8-0.1c0.3-0.1,0.5-0.2,0.7-0.4c0.2-0.2,0.3-0.4,0.4-0.7c0.1-0.3,0.1-0.6,0.1-0.9
				c0-0.3,0-0.6-0.1-0.8c-0.1-0.3-0.2-0.5-0.4-0.7c-0.2-0.2-0.4-0.3-0.6-0.4C1056.7,5697.8,1056.5,5697.7,1056.2,5697.7
				L1056.2,5697.7z M1062.4,5702.3c0.6-0.7,1-1.4,1.3-2c0.3-0.6,0.5-1.1,0.5-1.5c0-0.2,0-0.4-0.1-0.6c-0.1-0.2-0.2-0.3-0.4-0.4
				c-0.2-0.1-0.3-0.1-0.5-0.1c-0.2,0-0.4,0-0.6,0.1c-0.2,0.1-0.3,0.2-0.4,0.4c-0.1,0.2-0.1,0.3-0.1,0.5c0,0.2,0,0.4,0.1,0.5
				c0.1,0.1,0.2,0.3,0.3,0.3c0.2,0.1,0.3,0.1,0.6,0.1c0.1,0,0.2,0,0.3,0c0.1,0,0.2,0,0.4-0.1c-0.1,0.1-0.2,0.3-0.3,0.5
				c-0.2,0-0.4,0.1-0.6,0.1c-0.3,0-0.6-0.1-0.8-0.2c-0.2-0.1-0.4-0.3-0.5-0.5c-0.1-0.2-0.2-0.4-0.2-0.7c0-0.3,0.1-0.6,0.2-0.9
				c0.2-0.2,0.4-0.4,0.7-0.6c0.3-0.1,0.6-0.2,0.9-0.2c0.2,0,0.5,0,0.7,0.1c0.2,0.1,0.4,0.2,0.5,0.3c0.1,0.1,0.2,0.3,0.3,0.5
				c0.1,0.2,0.1,0.4,0.1,0.6c0,0.1,0,0.3,0,0.5c0,0.2-0.1,0.4-0.2,0.6c-0.1,0.2-0.2,0.4-0.3,0.7c-0.1,0.2-0.3,0.5-0.5,0.8
				c-0.2,0.3-0.4,0.6-0.7,1c-0.1,0-0.3,0-0.4,0C1062.7,5702.3,1062.6,5702.3,1062.4,5702.3L1062.4,5702.3z M1067.5,5697.3
				c0.2,0,0.3,0,0.5,0.1c0.2,0,0.3,0.1,0.5,0.2c0.2,0.1,0.3,0.3,0.4,0.5c0.1,0.2,0.2,0.4,0.2,0.7c0,0.2,0.1,0.5,0.1,0.8
				c0,0.4,0,0.7-0.1,1.1c-0.1,0.4-0.2,0.7-0.3,0.9c-0.1,0.3-0.3,0.5-0.6,0.6c-0.3,0.1-0.5,0.2-0.8,0.2c-0.3,0-0.6-0.1-0.9-0.3
				c-0.3-0.2-0.4-0.4-0.6-0.8c-0.1-0.3-0.2-0.7-0.2-1.2c0-0.4,0-0.8,0.1-1.1c0.1-0.4,0.2-0.7,0.3-1c0.2-0.3,0.4-0.5,0.6-0.6
				C1066.9,5697.3,1067.2,5697.3,1067.5,5697.3L1067.5,5697.3z M1067.4,5697.7c-0.1,0-0.2,0-0.3,0.1c-0.1,0-0.2,0.1-0.3,0.2
				c-0.1,0.1-0.2,0.2-0.2,0.3c-0.1,0.1-0.1,0.3-0.2,0.5c-0.1,0.2-0.1,0.4-0.1,0.7c0,0.3,0,0.5,0,0.8c0,0.2,0,0.5,0.1,0.7
				c0,0.2,0.1,0.3,0.2,0.5c0.1,0.1,0.1,0.2,0.2,0.3c0.1,0.1,0.2,0.2,0.3,0.2c0.1,0,0.2,0.1,0.3,0.1c0.1,0,0.2,0,0.3-0.1
				c0.1,0,0.2-0.1,0.3-0.2c0.1-0.1,0.2-0.3,0.3-0.5c0.1-0.2,0.2-0.5,0.2-0.7c0-0.3,0.1-0.6,0.1-0.8c0-0.2,0-0.4,0-0.6
				c0-0.2-0.1-0.3-0.1-0.5c-0.1-0.2-0.1-0.3-0.2-0.4c-0.1-0.1-0.2-0.2-0.3-0.2C1067.7,5697.8,1067.6,5697.7,1067.4,5697.7
				L1067.4,5697.7z M1071.7,5697.3c0.2,0,0.3,0,0.5,0.1c0.2,0,0.3,0.1,0.5,0.2c0.2,0.1,0.3,0.3,0.4,0.5c0.1,0.2,0.2,0.4,0.2,0.7
				c0,0.2,0.1,0.5,0.1,0.8c0,0.4,0,0.7-0.1,1.1c-0.1,0.4-0.2,0.7-0.3,0.9c-0.1,0.3-0.3,0.5-0.6,0.6c-0.3,0.1-0.5,0.2-0.8,0.2
				c-0.3,0-0.6-0.1-0.9-0.3c-0.3-0.2-0.4-0.4-0.6-0.8c-0.1-0.3-0.2-0.7-0.2-1.2c0-0.4,0-0.8,0.1-1.1c0.1-0.4,0.2-0.7,0.3-1
				c0.2-0.3,0.4-0.5,0.6-0.6C1071.1,5697.3,1071.4,5697.3,1071.7,5697.3L1071.7,5697.3z M1071.7,5697.7c-0.1,0-0.2,0-0.3,0.1
				c-0.1,0-0.2,0.1-0.3,0.2c-0.1,0.1-0.2,0.2-0.2,0.3c-0.1,0.1-0.1,0.3-0.2,0.5c-0.1,0.2-0.1,0.4-0.1,0.7c0,0.3,0,0.5,0,0.8
				c0,0.2,0,0.5,0.1,0.7c0,0.2,0.1,0.3,0.2,0.5c0.1,0.1,0.1,0.2,0.2,0.3c0.1,0.1,0.2,0.2,0.3,0.2c0.1,0,0.2,0.1,0.3,0.1
				c0.1,0,0.2,0,0.3-0.1c0.1,0,0.2-0.1,0.3-0.2c0.1-0.1,0.2-0.3,0.3-0.5c0.1-0.2,0.2-0.5,0.2-0.7c0-0.3,0.1-0.6,0.1-0.8
				c0-0.2,0-0.4,0-0.6c0-0.2-0.1-0.3-0.1-0.5c-0.1-0.2-0.1-0.3-0.2-0.4c-0.1-0.1-0.2-0.2-0.3-0.2
				C1071.9,5697.8,1071.8,5697.7,1071.7,5697.7L1071.7,5697.7z M1075.6,5702.3c0-0.4,0.1-0.8,0.1-1.3l0.1-1.6c0-0.6,0-1.1,0.1-1.4
				c-0.1,0.1-0.2,0.1-0.3,0.2l-0.2,0.2c0-0.2,0-0.4,0-0.6c0.3-0.2,0.5-0.3,0.6-0.4c0.1,0,0.2,0,0.3,0c0.1,0,0.2,0,0.3,0l-0.1,1.6
				l-0.1,2.1l0,0.5c0,0.1,0,0.3,0,0.4l0,0.3c-0.1,0-0.2,0-0.3,0C1075.8,5702.3,1075.7,5702.3,1075.6,5702.3L1075.6,5702.3z"/>
		</g>
		<g>
			<text transform="matrix(1 0 0 1 1051.8228 5718.8979)" class="st18 st19 st20">SC920-1</text>
		</g>
	</g>
</g>
</svg>
