<svg xmlns="http://www.w3.org/2000/svg" xmlns:xlink="http://www.w3.org/1999/xlink" width="160" height="160" viewBox="0 0 160 160">
  <defs>
    <clipPath id="clip-path">
      <rect id="Rectángulo_231" data-name="Rectángulo 231" width="160" height="160" transform="translate(5738 2957)" fill="#fff"/>
    </clipPath>
  </defs>
  <g id="Enmascarar_grupo_1" data-name="Enmascarar grupo 1" transform="translate(-5738 -2957)" clip-path="url(#clip-path)">
    <g id="Grupo_168" data-name="Grupo 168" transform="translate(-68 54)">
      <circle id="Elipse_52" data-name="Elipse 52" cx="51.148" cy="51.148" r="51.148" transform="translate(5808.708 2981.591) rotate(-60)" fill="#f5f5f8"/>
      <circle id="Elipse_53" data-name="Elipse 53" cx="51.148" cy="51.148" r="51.148" transform="translate(5836.814 3009.63) rotate(-60)" fill="#f5f5f8"/>
      <circle id="Elipse_54" data-name="Elipse 54" cx="51.148" cy="51.148" r="51.148" transform="translate(5796 3021.502) rotate(-60)" fill="#f5f5f8"/>
      <path id="Trazado_292" data-name="Trazado 292" d="M83.015,125.6,132.45,85.446a3.442,3.442,0,0,0-.553-.113H34.133Z" transform="translate(5795.884 2863.078)" fill="#09b1fd"/>
      <path id="Trazado_293" data-name="Trazado 293" d="M72.082,156.872a3.76,3.76,0,0,1-4.764,0l-50.251-41.4v64.8a3.76,3.76,0,0,0,3.76,3.76h97.764a3.76,3.76,0,0,0,3.76-3.76V116.03Z" transform="translate(5809.19 2839.578)" fill="#09b1fd"/>
    </g>
  </g>
</svg>
