<svg xmlns="http://www.w3.org/2000/svg" xmlns:xlink="http://www.w3.org/1999/xlink" width="158" height="158" viewBox="0 0 158 158"><defs><clipPath id="a"><rect width="158" height="158" transform="translate(3223 2540)" fill="#fff"/></clipPath></defs><g transform="translate(-3223 -2540)" clip-path="url(#a)"><g transform="translate(-147 62.252)"><g transform="matrix(0.259, 0.966, -0.966, 0.259, 3494.018, 2478.748)"><circle cx="35.965" cy="35.965" r="35.965" transform="translate(8.935 62.293) rotate(-60)" fill="#f5f5f8"/><circle cx="35.965" cy="35.965" r="35.965" transform="translate(28.699 82.009) rotate(-60)" fill="#f5f5f8"/><circle cx="35.965" cy="35.965" r="35.965" transform="translate(0 90.357) rotate(-60)" fill="#f5f5f8"/></g><g transform="translate(3408.371 2517.602)"><path d="M987.8,492a9.17,9.17,0,0,1-8.07-6.822H971.25v22.344h15.711A63.486,63.486,0,0,0,987.8,492Zm0,0" transform="translate(-929.828 -457.223)" fill="#09b1fd"/><path d="M1038.515,451.527a4.566,4.566,0,1,0,4.565,4.566,4.571,4.571,0,0,0-4.565-4.566Zm0,0" transform="translate(-979.749 -430.428)" fill="#09b1fd"/><path d="M842.525,579.872A6.9,6.9,0,1,1,840.5,575a6.9,6.9,0,0,1,2.02,4.875Zm0,0" transform="translate(-816.357 -527.127)" fill="#09b1fd"/><path d="M891.374,348c-5.233,3.6-9.489,9.66-12.426,16.68a51.9,51.9,0,0,0-2.26,6.691h14.686Zm0,0" transform="translate(-854.538 -348)" fill="#09b1fd"/><path d="M866.843,498.525a11.5,11.5,0,0,1,10.316,9h6.347V485.18H867.8a63.334,63.334,0,0,0-.958,13.345Zm0,0" transform="translate(-846.67 -457.223)" fill="#09b1fd"/><path d="M902.1,640.691V617.32h-6.287a11.509,11.509,0,0,1-5.653,7.861c2.863,6.532,6.865,12.088,11.94,15.511Zm0,0" transform="translate(-865.267 -562.433)" fill="#09b1fd"/><path d="M971.25,640.691c5.487-3.766,9.881-10.168,12.828-17.671a52.426,52.426,0,0,0,1.864-5.7H971.25Zm0,0" transform="translate(-929.828 -562.433)" fill="#09b1fd"/><path d="M1019.539,624.7a44.342,44.342,0,0,1-9.113,14.629,39.221,39.221,0,0,0,25.547-22.005h-14.11a57.76,57.76,0,0,1-2.324,7.377Zm0,0" transform="translate(-961.02 -562.433)" fill="#09b1fd"/><path d="M800.187,626.658a11.5,11.5,0,0,1-11.277-9.338h-4.69a39.222,39.222,0,0,0,25.414,21.969,41.654,41.654,0,0,1-8.211-12.7,11.576,11.576,0,0,1-1.236.068Zm0,0" transform="translate(-780.914 -562.433)" fill="#09b1fd"/><path d="M1071.9,491.23a68.292,68.292,0,0,1-.734,16.294h14.852a39.292,39.292,0,0,0,0-22.344h-9.011a9.19,9.19,0,0,1-5.107,6.05Zm0,0" transform="translate(-1009.383 -457.223)" fill="#09b1fd"/><path d="M783.6,499.091a68.221,68.221,0,0,1,.874-13.911H769.622a39.3,39.3,0,0,0,0,22.344h6.435a11.521,11.521,0,0,1,7.548-8.433Zm0,0" transform="translate(-768 -457.223)" fill="#09b1fd"/><path d="M1019.725,369.852l.048,0a9.168,9.168,0,0,1,8.86,6.858h7.327a39.216,39.216,0,0,0-25.55-22.005,38.32,38.32,0,0,1,2.536,2.924,46.66,46.66,0,0,1,6.779,12.225Zm0,0" transform="translate(-961.007 -353.337)" fill="#09b1fd"/><path d="M971.25,348v23.371h8.484a9.187,9.187,0,0,1,4.357-5.669c-2.263-5.777-6.182-13.152-12.841-17.7Zm0,0" transform="translate(-929.828 -348)" fill="#09b1fd"/><path d="M801.094,368.244a43.825,43.825,0,0,1,8.677-13.545,39.22,39.22,0,0,0-25.552,22.006h14.114a57,57,0,0,1,2.761-8.461Zm0,0" transform="translate(-780.914 -353.334)" fill="#09b1fd"/></g></g></g></svg>