<svg xmlns="http://www.w3.org/2000/svg" xmlns:xlink="http://www.w3.org/1999/xlink" width="158" height="158" viewBox="0 0 158 158"><defs><clipPath id="a"><rect width="158" height="158" transform="translate(4258 1382)" fill="#fff"/></clipPath></defs><g transform="translate(-4258 -1382)" clip-path="url(#a)"><g transform="translate(-28 -324)"><g transform="translate(2984 2)"><circle cx="40" cy="40" r="40" transform="translate(1357 1728)" fill="#f5f5f8"/><circle cx="40" cy="40" r="40" transform="translate(1349 1758)" fill="#f5f5f8"/><circle cx="40" cy="40" r="40" transform="translate(1325 1735)" fill="#f5f5f8"/></g><g transform="translate(3476.625 1331.588)"><path d="M947.219,505.441a3.333,3.333,0,0,0-2.344-.964,3.292,3.292,0,0,0-2.344.964l-11.6,11.6-4.008-4.008a3.315,3.315,0,0,0-4.685,4.69l6.352,6.352a3.282,3.282,0,0,0,2.34.96h0a3.3,3.3,0,0,0,2.344-.963l13.948-13.948a3.318,3.318,0,0,0,0-4.688Zm0,0" transform="translate(-46.469 -63.657)" fill="#09b1fd"/><path d="M926.931,425.569a1.724,1.724,0,0,0-.964-1.4l-36.981-17.994a1.721,1.721,0,0,0-1.508,0l-36.983,17.994a1.723,1.723,0,0,0-.963,1.4,95.251,95.251,0,0,0,2.978,29.262,78.4,78.4,0,0,0,11.014,24.8,64.887,64.887,0,0,0,23.914,21.125,1.728,1.728,0,0,0,1.589,0,64.887,64.887,0,0,0,23.913-21.125,78.4,78.4,0,0,0,11.014-24.8,95.226,95.226,0,0,0,2.978-29.262Zm-38.7,47.18a21.925,21.925,0,1,1,21.925-21.925,21.949,21.949,0,0,1-21.925,21.925Zm0,0" fill="#09b1fd"/></g></g></g></svg>