<svg xmlns="http://www.w3.org/2000/svg" xmlns:xlink="http://www.w3.org/1999/xlink" width="158" height="158" viewBox="0 0 158 158"><defs><clipPath id="a"><rect width="158" height="158" transform="translate(3980.569 1382.871)" fill="#fff"/></clipPath></defs><g transform="translate(-3980.569 -1382.871)" clip-path="url(#a)"><g transform="translate(140.696 -324)"><g transform="matrix(0.259, 0.966, -0.966, 0.259, 5272.276, 1077.859)"><circle cx="40" cy="40" r="40" transform="translate(272.369 1489.285) rotate(-60)" fill="#f5f5f8"/><circle cx="40" cy="40" r="40" transform="translate(294.349 1511.213) rotate(-60)" fill="#f5f5f8"/><circle cx="40" cy="40" r="40" transform="translate(262.431 1520.497) rotate(-60)" fill="#f5f5f8"/></g><g transform="translate(3856.051 1663.758)"><path d="M118.127,309.043a3.7,3.7,0,0,0,.336-5.217l-.2-.234a3.67,3.67,0,0,0-2.536-1.239h-.246a3.671,3.671,0,0,0-2.435.919l-4.955,4.35-4.512,3.961a3.7,3.7,0,0,0-.335,5.215l.207.237a3.7,3.7,0,0,0,5.219.336l3.469-3.044Z" transform="translate(-76.873 -163.351)" fill="#09b1fd"/><path d="M103.548,316.411c-.1,0-.2,0-.306-.009a4.55,4.55,0,0,1-3.145-1.547l-.209-.239a4.591,4.591,0,0,1,.416-6.459l9.471-8.317a4.6,4.6,0,0,1,3.32-1.129,4.549,4.549,0,0,1,3.145,1.547l.29.338a4.576,4.576,0,0,1-.5,6.362l-9.468,8.317A4.537,4.537,0,0,1,103.548,316.411Zm9.245-15.927a2.812,2.812,0,0,0-1.851.708l-9.468,8.317a2.819,2.819,0,0,0-.253,3.967l.209.239a2.816,2.816,0,0,0,3.968.253l9.466-8.317a2.812,2.812,0,0,0,.255-3.966l-.207-.239a2.785,2.785,0,0,0-1.927-.947Z" transform="translate(-74.191 -160.607)" fill="#09b1fd"/><path d="M193.36,366.414a3.684,3.684,0,0,0-2.437.917l-4.886,4.29a3.7,3.7,0,0,0,4.879,5.56l4.886-4.29a3.7,3.7,0,0,0-2.442-6.477Z" transform="translate(-138.818 -211.477)" fill="#09b1fd"/><path d="M185.8,376.464a4.582,4.582,0,0,1-3.028-8.027l4.888-4.29a4.721,4.721,0,0,1,6.468.421,4.585,4.585,0,0,1-.421,6.47l-4.886,4.29A4.56,4.56,0,0,1,185.8,376.464Zm4.881-11.679a2.8,2.8,0,0,0-1.86.686l-4.888,4.29a2.816,2.816,0,0,0,3.716,4.231l4.888-4.284a2.812,2.812,0,0,0-1.858-4.927Z" transform="translate(-136.141 -208.96)" fill="#09b1fd"/><path d="M14,93.793,4.062,137.135,12,141.6l20.553-33.432Z" transform="translate(-3.052 -6.665)" fill="#09b1fd"/><path d="M9.261,138.109,0,132.906,10.389,87.568l20.284,15.706Zm-7.24-6.1,6.624,3.716L28.337,103.7,11.5,90.665Z" transform="translate(0 -1.989)" fill="#09b1fd"/><path d="M83,289.252a3.7,3.7,0,0,0,.34-5.22l-.064-.073a3.67,3.67,0,0,0-2.538-1.249h-.246a3.671,3.671,0,0,0-2.435.919l-5.934,5.2a3.748,3.748,0,0,0,4.9,5.674l.048-.041.449-.395L82.03,290.1Z" transform="translate(-53.236 -148.593)" fill="#09b1fd"/><path d="M72.015,293.584a3.243,3.243,0,0,1-.345-.012,4.7,4.7,0,0,1-3.2-1.612,4.583,4.583,0,0,1,.419-6.468l5.927-5.2a4.632,4.632,0,0,1,6.111,6.962l-5.925,5.2a4.5,4.5,0,0,1-2.991,1.131Zm5.824-12.663a2.8,2.8,0,0,0-1.851.708l-5.927,5.2A2.814,2.814,0,0,0,69.8,290.8h0a2.942,2.942,0,0,0,2,1.016,2.749,2.749,0,0,0,2.037-.683l5.925-5.2a2.816,2.816,0,0,0,.258-3.971,2.85,2.85,0,0,0-1.994-1.025Z" transform="translate(-50.587 -145.92)" fill="#09b1fd"/><path d="M155.69,338.62a3.673,3.673,0,0,0-.911-2.681l-.053-.06a3.669,3.669,0,0,0-2.532-1.239h-.246a3.67,3.67,0,0,0-2.435.919l-.581.51-6,5.263-1.593,1.391a3.755,3.755,0,0,0,2.251,6.53,3.661,3.661,0,0,0,2.681-.911l8.163-7.165a3.675,3.675,0,0,0,1.251-2.555Z" transform="translate(-105.259 -187.606)" fill="#09b1fd"/><path d="M141.1,347.4c-.1,0-.2,0-.3-.009a4.624,4.624,0,0,1-2.778-8.079l8.156-7.174a4.624,4.624,0,0,1,3.32-1.129,4.542,4.542,0,0,1,3.141,1.543,4.582,4.582,0,0,1-.356,6.53l-8.163,7.165A4.551,4.551,0,0,1,141.1,347.4Zm5.663-13.416-7.576,6.65a2.819,2.819,0,0,0-.265,3.973,2.855,2.855,0,0,0,1.984,1.011,2.785,2.785,0,0,0,2.046-.7l8.163-7.165a2.812,2.812,0,0,0,.261-3.968l0,0a2.832,2.832,0,0,0-1.986-1.012H149.2a2.773,2.773,0,0,0-1.851.708Z" transform="translate(-102.521 -184.875)" fill="#09b1fd"/><path d="M142.408,196.04l-28.8-23.467c-11.028,5.856-18.838,2.842-22.572.458a4.208,4.208,0,0,1,.354-7.255l9.6-5.1c-.248-.037-.49-.069-.708-.09A185.744,185.744,0,0,1,74.1,162.842l-16.78,27.291,3.741,2.851,4.4-3.861a7.356,7.356,0,0,1,10.382.675h0l.064.073a7.3,7.3,0,0,1,1.692,3.561,7.213,7.213,0,0,1,4.545-1.239,7.306,7.306,0,0,1,5.05,2.488l.207.237a7.306,7.306,0,0,1,1.81,5.327v.011a7.423,7.423,0,0,1,1.014-.034,7.308,7.308,0,0,1,5.05,2.488l-1.322,1.267,1.375-1.207a7.31,7.31,0,0,1,1.814,5.33c0,.025-.011.048-.012.073a7.286,7.286,0,0,1,6.6,11.326l7.891,4.553a3.656,3.656,0,0,0,4.944-1.31,3.585,3.585,0,0,0-1.074-4.794l-12.564-8.707c-.011,0-.016-.019-.025-.027l-.846-.586a1.83,1.83,0,0,1,2.083-3.008L121.86,217.9a3.6,3.6,0,0,0,5.011-.908l0,0a3.615,3.615,0,0,0-.885-4.985l-17.635-12.508c-.011,0-.014-.019-.025-.027a1.831,1.831,0,0,1,2.124-2.984l19.77,14.026a3.833,3.833,0,0,0,4.562-6.158l-21.273-15.329a1.83,1.83,0,0,1,2.031-3.044c.032.021.062.043.093.066l1.455,1.037h.019l19.716,14.205c.037.027.064.06.1.087l.326.234a1.716,1.716,0,0,1,.177.14l.354.243a3.812,3.812,0,0,0,5.2-.719,3.752,3.752,0,0,0,.657-3.391,3.665,3.665,0,0,0-1.227-1.839Z" transform="translate(-43.065 -56.846)" fill="#09b1fd"/><path d="M109.868,222.708a4.453,4.453,0,0,1-2.228-.6l-8.712-5.024.531-.779a6.445,6.445,0,0,0-4.967-9.993,4.373,4.373,0,0,0-.658.018l-1.187.074.069-1.007a6.463,6.463,0,0,0-1.044-4.054l-.664.584-1.2-1.3.673-.644a6.425,6.425,0,0,0-3.847-1.593,5.942,5.942,0,0,0-.773.025l-.95.071-.119-1.048V197.4a6.461,6.461,0,0,0-1.593-4.613l-.209-.239a6.408,6.408,0,0,0-8.434-1.09l-1.127.757-.237-1.338a6.5,6.5,0,0,0-10.683-3.8l-4.943,4.339L52.6,187.641l17.45-28.385.476-.014A185.487,185.487,0,0,0,96.566,157l.124-.025.126.011c.234.021.492.057.759.1l2.654.4-11.97,6.357a3.323,3.323,0,0,0-.289,5.737c3.513,2.242,11.009,5.164,21.676-.5l.519-.276,29.252,23.835a4.556,4.556,0,0,1,1.51,2.288,4.627,4.627,0,0,1-.807,4.183,4.706,4.706,0,0,1-6.415.885l-.993-.741-21.137-15.219a.941.941,0,0,0-1.314.216l0,0a.943.943,0,0,0,.216,1.316l0,0,21.276,15.341a4.718,4.718,0,0,1-5.592,7.6l-19.776-14.019a.946.946,0,1,0-1.1,1.542l17.665,12.538a4.486,4.486,0,0,1-5.146,7.349h0L100.09,203.641a.945.945,0,0,0-1.127,1.518l.052.036,13.439,9.319a4.484,4.484,0,0,1-1.363,8.029A4.626,4.626,0,0,1,109.868,222.708Zm-8.462-6.238,7.119,4.109a2.732,2.732,0,0,0,2.923-4.6l-10.043-6.969a8.185,8.185,0,0,1,.885,4.295,7.972,7.972,0,0,1-.884,3.166Zm-1.844-14.764a2.7,2.7,0,0,1,1.54.48l17.718,12.276a2.715,2.715,0,0,0,3.115-4.449l-17.76-12.61a2.715,2.715,0,0,1,3.24-4.353l19.776,14.026a2.948,2.948,0,0,0,3.509-4.736l-21.25-15.313a2.714,2.714,0,1,1,3.157-4.415l1.476,1.046,20.139,14.527a2.6,2.6,0,0,1,.258.212l.249.163a2.927,2.927,0,0,0,3.994-.531,2.874,2.874,0,0,0,.506-2.6,2.8,2.8,0,0,0-.922-1.416l-28.352-23.1c-11.182,5.716-19.155,2.57-22.94.15a5.093,5.093,0,0,1,.423-8.792l5.426-2.881c-5.518.749-13.051,1.306-21.8,1.593l-16.1,26.208,2.532,1.927,3.856-3.384a8.24,8.24,0,0,1,11.628.755l0,0a8.351,8.351,0,0,1,1.66,2.872,7.978,7.978,0,0,1,4.033-.784,8.189,8.189,0,0,1,5.663,2.789l.209.239a8.17,8.17,0,0,1,2.033,5h.177a8.187,8.187,0,0,1,5.095,2.224l.028-.025.48.549.051.057.557.635-.025.025a8.161,8.161,0,0,1,1.559,4.468h.108a8.278,8.278,0,0,1,2.3.485,2.709,2.709,0,0,1,2.654-3.325Z" transform="translate(-39.519 -54.134)" fill="#09b1fd"/><path d="M406.1,91.146l-18.557,14.373,17.166,27.92a1.75,1.75,0,0,1,.317.211,1.8,1.8,0,0,1,.5,1.122l2.571,4.182,7.935-4.465Z" transform="translate(-291.15 -4.677)" fill="#09b1fd"/><path d="M404.236,135.464l-3.123-5.082-.019-.205a.92.92,0,0,0-.248-.581l-.34-.2-.1-.177L382.82,100.628l20.287-15.707L413.5,130.259Zm-1.416-5.674,2.028,3.3,6.624-3.716L402,88.016l-16.838,13.039L401.8,128.111a1.63,1.63,0,0,1,.3.234,2.636,2.636,0,0,1,.727,1.446Z" transform="translate(-287.601)" fill="#09b1fd"/><path d="M241.783,159.8a16.31,16.31,0,0,1-11.308.411l-9.742-3.162a5.308,5.308,0,0,0-4.06.354l-3.3,1.754c-.035.018-.065.039-.1.055l-13.085,6.951a.555.555,0,0,0-.315.481.5.5,0,0,0,.235.465c3.849,2.456,10.441,4.247,19.878-1.168a1.833,1.833,0,0,1,2.067.168l29.744,24.244a7.061,7.061,0,0,1,1.115,1.152l7.355-7.36L244.59,158.651Z" transform="translate(-150.155 -54)" fill="#09b1fd"/><path d="M250.182,190.18l-.616-.781a6.086,6.086,0,0,0-.973-1.009l-29.751-24.237a.954.954,0,0,0-1.062-.087c-9.823,5.642-16.73,3.737-20.8,1.147a1.382,1.382,0,0,1-.642-1.256,1.433,1.433,0,0,1,.787-1.221l16.484-8.754a6.193,6.193,0,0,1,4.746-.418l9.738,3.157a15.426,15.426,0,0,0,10.7-.386l3.509-1.437,16.433,26.722Zm-31.944-28.01a2.726,2.726,0,0,1,1.718.605L249.7,187.019a6.737,6.737,0,0,1,.6.543l6.194-6.194L241.58,157.1l-2.109.864a17.194,17.194,0,0,1-11.922.432l-9.733-3.161a4.424,4.424,0,0,0-3.377.3l-15.985,8.494c3.7,2.152,9.8,3.463,18.445-1.5A2.711,2.711,0,0,1,218.238,162.17Z" transform="translate(-147.504 -51.352)" fill="#09b1fd"/></g></g></g></svg>