<svg xmlns="http://www.w3.org/2000/svg" xmlns:xlink="http://www.w3.org/1999/xlink" width="158" height="158" viewBox="0 0 158 158"><defs><clipPath id="a"><rect width="158" height="158" transform="translate(3223 2874)" fill="#fff"/></clipPath></defs><g transform="translate(-3223 -2874)" clip-path="url(#a)"><g transform="matrix(0.259, 0.966, -0.966, 0.259, 3347.018, 2875)"><circle cx="35.965" cy="35.965" r="35.965" transform="translate(8.935 62.293) rotate(-60)" fill="#f5f5f8"/><circle cx="35.965" cy="35.965" r="35.965" transform="translate(28.699 82.009) rotate(-60)" fill="#f5f5f8"/><circle cx="35.965" cy="35.965" r="35.965" transform="translate(0 90.357) rotate(-60)" fill="#f5f5f8"/></g><g transform="translate(3272 2910)"><path d="M969.008,614.316V598.291h23.879v16.025h18.008V528H951v86.316Zm23.879-78.383h10.089v10.076H992.887Zm0,14.641h10.089v10.075H992.887Zm0,14.655h10.089v10.062H992.887Zm0,14.641h10.089v10.076H992.887Zm-16.972-43.938h10.079v10.076H975.915Zm0,14.641h10.079v10.075H975.915Zm0,14.655h10.079v10.062H975.915Zm0,14.641h10.079v10.076H975.915Zm-16.982-43.938h10.075v10.076H958.932Zm0,14.641h10.075v10.075H958.932Zm0,14.655h10.075v10.062H958.932Zm0,14.641h10.075v10.076H958.932Zm0,0" transform="translate(-951 -528)" fill="#09b1fd"/></g></g></svg>