<svg xmlns="http://www.w3.org/2000/svg" xmlns:xlink="http://www.w3.org/1999/xlink" width="158" height="158" viewBox="0 0 158 158"><defs><clipPath id="a"><rect width="158" height="158" transform="translate(3223 2703)" fill="#fff"/></clipPath></defs><g transform="translate(-3223 -2703)" clip-path="url(#a)"><g transform="translate(2103.825 14.842)"><g transform="translate(1148.175 2718.158)"><circle cx="35.965" cy="35.965" r="35.965" transform="translate(28.772)" fill="#f5f5f8"/><circle cx="35.965" cy="35.965" r="35.965" transform="translate(21.579 26.974)" fill="#f5f5f8"/><circle cx="35.965" cy="35.965" r="35.965" transform="translate(0 6.294)" fill="#f5f5f8"/></g><g transform="translate(2464 2297.517)"><circle cx="16.378" cy="16.378" r="16.378" transform="translate(-1281.535 432)" fill="#09b1fd"/><circle cx="12.255" cy="12.255" r="12.255" transform="translate(-1306.045 447.347)" fill="#09b1fd"/><path d="M21.875,0h0A21.875,21.875,0,0,1,43.75,21.875v17.83a4.045,4.045,0,0,1-4.045,4.045H4.045A4.045,4.045,0,0,1,0,39.705V21.875A21.875,21.875,0,0,1,21.875,0Z" transform="translate(-1287.262 467.733)" fill="#09b1fd"/><path d="M-1292.53,653.871V626.455a13.718,13.718,0,0,1,1.6-6.455h-7.29A13.785,13.785,0,0,0-1312,633.785v14.689a7.946,7.946,0,0,0,7.946,7.946h14.073A2.549,2.549,0,0,1-1292.53,653.871Z" transform="translate(0 -144.937)" fill="#09b1fd"/><circle cx="12.255" cy="12.255" r="12.255" transform="translate(-1248.78 447.347)" fill="#09b1fd"/><path d="M-996.579,653.871V626.455a13.719,13.719,0,0,0-1.6-6.455h7.29a13.785,13.785,0,0,1,13.785,13.785v14.689a7.946,7.946,0,0,1-7.946,7.946h-14.073A2.549,2.549,0,0,0-996.579,653.871Z" transform="translate(-241.207 -144.937)" fill="#09b1fd"/></g></g></g></svg>