<svg xmlns="http://www.w3.org/2000/svg" xmlns:xlink="http://www.w3.org/1999/xlink" width="158" height="158" viewBox="0 0 158 158">
  <defs>
    <clipPath id="clip-path">
      <rect id="Rectángulo_230" data-name="Rectángulo 230" width="158" height="158" transform="translate(3436 1382)" fill="#fff"/>
    </clipPath>
  </defs>
  <g id="Ico_3" transform="translate(-3436 -1382)" clip-path="url(#clip-path)">
    <g id="Grupo_147" data-name="Grupo 147" transform="translate(-617 -17)">
      <g id="Grupo_148" data-name="Grupo 148" transform="translate(2963 2)">
        <circle id="Elipse_52" data-name="Elipse 52" cx="40" cy="40" r="40" transform="translate(1145 1421)" fill="#f5f5f8"/>
        <circle id="Elipse_53" data-name="Elipse 53" cx="40" cy="40" r="40" transform="translate(1137 1451)" fill="#f5f5f8"/>
        <circle id="Elipse_54" data-name="Elipse 54" cx="40" cy="40" r="40" transform="translate(1113 1428)" fill="#f5f5f8"/>
        <path id="Trazado_298" data-name="Trazado 298" d="M735.9,446.625h-2.82a31.6,31.6,0,0,0-10.36-14.68,2.68,2.68,0,0,0-.08-.56,11.368,11.368,0,0,1,1.7-9.18,2.3,2.3,0,0,0-2.219-3.5,16.951,16.951,0,0,0-9.3,3.9,9.031,9.031,0,0,0-2.839,4.68,29.08,29.08,0,0,1-45.96,16.261,28.26,28.26,0,0,0-1.82,18.56.36.36,0,0,0,.02.1,28.877,28.877,0,0,0,2.4,6.38,33.489,33.489,0,0,0,6.14,9.279,17.7,17.7,0,0,1,4.761,11.381v1.079a2.093,2.093,0,0,0,2.079,1.941h12.641a2.079,2.079,0,0,0,2.08-2.08v-3.12a43.423,43.423,0,0,0,5.62.38,40.6,40.6,0,0,0,4.42-.239v2.98a2.079,2.079,0,0,0,2.08,2.08h12.68a2.079,2.079,0,0,0,2.08-2.08v-3.12a12.472,12.472,0,0,1,4.3-8.72l.42-.36c.04-.04.08-.06.12-.1a31.276,31.276,0,0,0,9.24-14.12h2.66a3.841,3.841,0,0,0,3.84-3.84v-9.46a3.9,3.9,0,0,0-3.88-3.84Zm-15.82.68a3.14,3.14,0,1,1,3.14-3.139,3.132,3.132,0,0,1-3.14,3.139Zm0,0" transform="translate(470.275 1028.735)" fill="#09b1fd"/>
        <path id="Trazado_299" data-name="Trazado 299" d="M670.121,377.34a24.17,24.17,0,1,0-24.16-24.18,24.164,24.164,0,0,0,24.16,24.18Zm-8.44-14.62c.221-.8.44-1.58.68-2.38.28-.92.54-1.02,1.38-.58a13.5,13.5,0,0,0,4.56,1.36,5.622,5.622,0,0,0,2.981-.4,2.328,2.328,0,0,0,.56-4.08,7.31,7.31,0,0,0-1.7-1,40.223,40.223,0,0,1-4.661-2.08c-2.379-1.42-3.9-3.4-3.719-6.3.2-3.279,2.06-5.34,5.06-6.42,1.239-.46,1.239-.439,1.259-1.74V337.78c.02-.981.2-1.141,1.16-1.181h.9c2.08,0,2.08,0,2.08,2.08,0,1.46,0,1.48,1.46,1.7a12.976,12.976,0,0,1,3.221.96.96.96,0,0,1,.619,1.26c-.26.9-.5,1.8-.8,2.681-.279.84-.54.96-1.339.58a10.289,10.289,0,0,0-5.12-1.021,3.525,3.525,0,0,0-1.359.28,1.934,1.934,0,0,0-.481,3.44,8.311,8.311,0,0,0,2.22,1.24,41.025,41.025,0,0,1,4.06,1.84,7.269,7.269,0,0,1,2.34,11.04,7.776,7.776,0,0,1-4.04,2.58,1.129,1.129,0,0,0-.98,1.28c.04.72,0,1.42,0,2.14a.885.885,0,0,1-.96,1c-.76.021-1.54.021-2.3,0a.933.933,0,0,1-1-1.06c0-.52,0-1.04-.02-1.56-.021-1.14-.04-1.2-1.16-1.38a13.985,13.985,0,0,1-4.1-1.18c-.979-.46-1.079-.72-.8-1.78Zm0,0" transform="translate(481.856 1096)" fill="#09b1fd"/>
      </g>
    </g>
  </g>
</svg>
