<svg xmlns="http://www.w3.org/2000/svg" width="42.749" height="15.897" viewBox="0 0 42.749 15.897">
  <g id="Grupo_134" data-name="Grupo 134" transform="translate(-2422.352 896.852)">
    <g id="Grupo_88" data-name="Grupo 88" transform="translate(2422.352 -896.852)">
      <g id="Grupo_85" data-name="Grupo 85" transform="translate(0)">
        <path id="Trazado_177" data-name="Trazado 177" d="M2664.934-900.717c0,2.754,1.169,3.793,4.286,3.793a26.45,26.45,0,0,0,3.455-.26v1.948a24.837,24.837,0,0,1-4.961.779c-4.234,0-6.546-2.364-6.546-6.7,0-4.468,2.442-7.2,6.416-7.2,2.779,0,4.624,1.247,5.351,3.637a12.3,12.3,0,0,1,.364,4Zm2.441-5.611c-1.688,0-2.441,1.091-2.441,3.507h4.65C2669.584-905.419,2669.012-906.328,2667.375-906.328Z" transform="translate(-2661.167 910.354)" fill="#263185"/>
        <path id="Trazado_178" data-name="Trazado 178" d="M2889.268-894.062a15.4,15.4,0,0,1-4.39-.727v-2.1a15.522,15.522,0,0,0,3.793.494c1.507,0,2.182-.442,2.182-1.429,0-.6-.338-.987-1.169-1.377l-2.026-.935c-1.9-.883-2.7-2-2.7-3.767,0-2.52,1.818-4.026,4.857-4.026a14.017,14.017,0,0,1,4.052.727v2.078a13.3,13.3,0,0,0-3.3-.468c-1.429,0-2.052.39-2.052,1.247,0,.623.364.987,1.506,1.481l2.026.909a3.621,3.621,0,0,1,2.468,3.663C2894.514-895.672,2892.514-894.062,2889.268-894.062Z" transform="translate(-2871.058 909.959)" fill="#263185"/>
        <path id="Trazado_179" data-name="Trazado 179" d="M3081.14-933.407v5.091h-2.494v-5.091h-4.961v-2.26h4.961v-5.065h2.494v5.065h4.962v2.26Z" transform="translate(-3048.203 940.732)" fill="#263185"/>
        <path id="Trazado_180" data-name="Trazado 180" d="M3298.383-917.616a1.736,1.736,0,0,1-1.745-1.726,1.736,1.736,0,0,1,1.745-1.725,1.737,1.737,0,0,1,1.75,1.725A1.737,1.737,0,0,1,3298.383-917.616Zm0-3.172a1.446,1.446,0,0,0-1.442,1.447,1.449,1.449,0,0,0,1.442,1.447,1.444,1.444,0,0,0,1.447-1.447A1.447,1.447,0,0,0,3298.383-920.789Zm.322,2.473-.562-.938h-.059v.938h-.454v-2.073h.68c.557,0,.767.147.767.533a.522.522,0,0,1-.46.552l.65.987Zm-.445-1.774h-.176v.587h.166c.225,0,.333-.1.333-.3S3298.49-920.09,3298.26-920.09Z" transform="translate(-3257.384 922.282)" fill="#263185"/>
      </g>
    </g>
  </g>
</svg>
