<svg xmlns="http://www.w3.org/2000/svg" xmlns:xlink="http://www.w3.org/1999/xlink" width="158" height="158" viewBox="0 0 158 158"><defs><clipPath id="a"><rect width="158" height="158" transform="translate(3615 1382)" fill="#fff"/></clipPath></defs><g transform="translate(-3615 -1382)" clip-path="url(#a)"><g transform="translate(-837.431 -9.003)"><g transform="translate(4198 -20)"><circle cx="40" cy="40" r="40" transform="translate(272.369 1489.285) rotate(-60)" fill="#f5f5f8"/><circle cx="40" cy="40" r="40" transform="translate(294.349 1511.213) rotate(-60)" fill="#f5f5f8"/><circle cx="40" cy="40" r="40" transform="translate(262.431 1520.497) rotate(-60)" fill="#f5f5f8"/></g><g transform="translate(3264.889 1190.196)"><g transform="translate(1235.897 274.211)"><path d="M1421.521,418h-67.759a7.43,7.43,0,0,0-7.421,7.421v41.946a7.43,7.43,0,0,0,7.421,7.421h67.759a7.43,7.43,0,0,0,7.421-7.421V425.421a7.43,7.43,0,0,0-7.421-7.421Zm-49.367,22.586a5.815,5.815,0,0,1-5.808,5.808h-3.872a5.815,5.815,0,0,1-5.808-5.808v-3.872a5.815,5.815,0,0,1,5.808-5.808h3.872a5.815,5.815,0,0,1,5.808,5.808Zm33.185,13.182a2.581,2.581,0,0,1-2.025-4.179,5.169,5.169,0,0,0,0-6.39,2.581,2.581,0,1,1,4.054-3.2,10.331,10.331,0,0,1,0,12.782,2.576,2.576,0,0,1-2.029.983Zm8.331,5.551a2.581,2.581,0,1,1-3.842-3.448,14.2,14.2,0,0,0,0-18.955,2.581,2.581,0,1,1,3.842-3.448,19.359,19.359,0,0,1,0,25.85Zm0,0" transform="translate(-1346.34 -418)" fill="#09b1fd"/></g><g transform="translate(1205.629 234.804)"><path d="M1233.746,321.428V279.482a7.43,7.43,0,0,1,7.421-7.421h25.154a5.163,5.163,0,0,0-4.144-4.484,2.581,2.581,0,1,1,.982-5.068,10.326,10.326,0,0,1,8.342,9.552h3.874a14.192,14.192,0,0,0-12.371-13.5,2.581,2.581,0,0,1,.657-5.12,19.357,19.357,0,0,1,16.881,18.616h18.375a7.376,7.376,0,0,0-1.549-2.928l-27.4-31.758a7.43,7.43,0,0,0-10.467-.771l-51.3,44.266a7.43,7.43,0,0,0-.771,10.467l26.331,30.516C1233.751,321.712,1233.746,321.57,1233.746,321.428Z" transform="translate(-1205.629 -234.804)" fill="#09b1fd"/></g></g></g></g></svg>