<svg xmlns="http://www.w3.org/2000/svg" xmlns:xlink="http://www.w3.org/1999/xlink" width="158" height="158" viewBox="0 0 158 158"><defs><clipPath id="a"><rect width="158" height="158" transform="translate(3799 1382)" fill="#fff"/></clipPath></defs><g transform="translate(-3799 -1382)" clip-path="url(#a)"><g transform="translate(403.569 -324)"><g transform="translate(3141 294.997)"><circle cx="40" cy="40" r="40" transform="translate(272.369 1489.285) rotate(-60)" fill="#f5f5f8"/><circle cx="40" cy="40" r="40" transform="translate(294.349 1511.213) rotate(-60)" fill="#f5f5f8"/><circle cx="40" cy="40" r="40" transform="translate(262.431 1520.497) rotate(-60)" fill="#f5f5f8"/></g><path d="M91.222,47.259A19.159,19.159,0,0,0,72.3,66.185c0,14.059,18.926,35.148,18.926,35.148s18.926-21.089,18.926-35.148A19.159,19.159,0,0,0,91.222,47.259m0,25.955a6.489,6.489,0,1,1,0-12.978,6.978,6.978,0,0,1,6.489,6.489c.541,3.244-2.7,6.489-6.489,6.489m-21.359,17.3H12.815A10.812,10.812,0,0,1,2,79.7V14.815A10.812,10.812,0,0,1,12.815,4H99.333a10.777,10.777,0,0,1,10.815,10.815V43.474a30.012,30.012,0,0,0-10.815-5.84v-12H12.815V41.852H74.4A29.919,29.919,0,0,0,61.481,66.185C61.481,74.3,65.375,83,69.863,90.518Z" transform="translate(3416.77 1739.285)" fill="#09b1fd"/></g></g></svg>