<svg xmlns="http://www.w3.org/2000/svg" xmlns:xlink="http://www.w3.org/1999/xlink" width="158" height="158" viewBox="0 0 158 158"><defs><clipPath id="a"><rect width="158" height="158" transform="translate(3076 1382)" fill="#fff"/></clipPath></defs><g transform="translate(-3076 -1382)" clip-path="url(#a)"><g transform="translate(-131 -9.003)"><g transform="translate(2959 -20)"><circle cx="40" cy="40" r="40" transform="translate(272.369 1489.285) rotate(-60)" fill="#f5f5f8"/><circle cx="40" cy="40" r="40" transform="translate(294.349 1511.213) rotate(-60)" fill="#f5f5f8"/><circle cx="40" cy="40" r="40" transform="translate(262.431 1520.497) rotate(-60)" fill="#f5f5f8"/></g><g transform="translate(2959 -20)"><path d="M436.847,128.685c-2.727-.03-5.336-.178-7.855-.385a35.792,35.792,0,0,1-5.691,9.753,92.594,92.594,0,0,0,13.725,1.215l-.178-10.049v-.534Z" transform="translate(-114.342 1389.856)" fill="#09b1fd"/><path d="M289.653,9.266A29.761,29.761,0,0,0,269.437-13a30.191,30.191,0,0,0-8.745-1.3A29.81,29.81,0,0,0,240.8-6.622a29.545,29.545,0,1,0,49.445,21.847A31,31,0,0,0,289.653,9.266ZM263.715,33.218v2.609a2.964,2.964,0,1,1-5.929,0V33.247a11.26,11.26,0,0,1-8.3-10.82,2.964,2.964,0,0,1,5.929,0,5.262,5.262,0,1,0,5.247-5.276,11.184,11.184,0,0,1-2.846-22V-6.119a2.973,2.973,0,0,1,2.964-2.964,2.973,2.973,0,0,1,2.964,2.964v1.334A11.206,11.206,0,0,1,271.9,6.005a2.964,2.964,0,0,1-5.929,0,5.277,5.277,0,1,0-5.276,5.247,11.188,11.188,0,0,1,3.024,21.966Z" transform="translate(20.846 1490.185)" fill="#09b1fd"/><path d="M454.277,84.1,454.1,73.607c-1.838-.03-3.646-.089-5.365-.207.089,1.186.148,2.342.148,3.5a36.439,36.439,0,0,1-.682,6.936C450.156,84.012,452.2,84.1,454.277,84.1Z" transform="translate(-131.861 1428.482)" fill="#09b1fd"/><path d="M433.687-56a35.554,35.554,0,0,1-6.433,2.579c-6.67,2.016-15.414,3.113-24.544,3.113A87.615,87.615,0,0,1,379.2-53.184a32.841,32.841,0,0,1-6.4-2.46l.207,8.359a34.2,34.2,0,0,1,9.278,5.247c.089.03.148.03.237.059a84.808,84.808,0,0,0,20.187,2.223,83.907,83.907,0,0,0,22.825-2.875c6.433-1.956,7.855-4,7.855-4.387a1.7,1.7,0,0,1,.3-1.215Z" transform="translate(-78.812 1519.524)" fill="#09b1fd"/><path d="M371.83-98.108c.148.652,1.927,2.668,8.3,4.506a81.39,81.39,0,0,0,21.847,2.668c8.478,0,16.778-1.037,22.8-2.846,6.433-1.927,7.885-3.972,7.885-4.387,0-.385-1.423-2.4-7.855-4.358-6.018-1.838-14.347-2.875-22.825-2.875a80.072,80.072,0,0,0-22.529,2.875c-6.255,1.9-7.618,3.765-7.648,4.358C371.8-98.167,371.83-98.167,371.83-98.108Z" transform="translate(-78.108 1554.281)" fill="#09b1fd"/><path d="M549.753,151a37.992,37.992,0,0,1-6.225,2.52c-6.64,2.016-15.326,3.113-24.485,3.113a91.227,91.227,0,0,1-22.262-2.549,38.624,38.624,0,0,1-7.381-2.7l.148,8.6v.059c0,.445,1.3,2.431,7.559,4.358,5.929,1.808,13.932,2.816,22.5,2.816,8.537,0,16.57-1.038,22.558-2.905,6.255-1.956,7.618-4,7.618-4.417h-.03Z" transform="translate(-160.848 1373.885)" fill="#09b1fd"/><path d="M472.605-.2a37.434,37.434,0,0,1-6.4,2.549c-6.67,2.016-15.414,3.113-24.574,3.113A106.763,106.763,0,0,1,428.2,4.6a35.142,35.142,0,0,1,5.306,11.027c2.549.178,5.306.3,8.152.3h.3c4.861-5.336,17.934-8,30.651-8.359V-.2Z" transform="translate(-117.789 1480.265)" fill="#09b1fd"/><path d="M542.688,98.22a88.728,88.728,0,0,1-24.218,3.024,87.615,87.615,0,0,1-23.507-2.875,36.371,36.371,0,0,1-6.462-2.49l.119,6.818.03,2.49c2.312,2.875,13.369,6.581,29.791,6.581,8.567,0,16.659-1.008,22.736-2.846,6.4-1.956,7.8-3.972,7.8-4.387,0-.326.178-.682.178-.978h.03V95.7A33.844,33.844,0,0,1,542.688,98.22Z" transform="translate(-160.215 1412.793)" fill="#09b1fd"/><path d="M496.159,57.939a82.69,82.69,0,0,0,21.847,2.638,82.344,82.344,0,0,0,22.529-2.786c6.581-1.956,8.063-4,8.093-4.446v-.03c-.03-.445-1.512-2.4-7.826-4.3-6.047-1.838-14.347-2.816-22.825-2.816h-.5a80.674,80.674,0,0,0-21.136,2.52C490.2,50.439,488.1,52.4,487.83,53.2a.224.224,0,0,0-.03.119l.059.119C488.037,54.055,489.786,56.071,496.159,57.939Z" transform="translate(-159.722 1447.619)" fill="#09b1fd"/></g></g></g></svg>