<svg xmlns="http://www.w3.org/2000/svg" xmlns:xlink="http://www.w3.org/1999/xlink" width="158" height="158" viewBox="0 0 158 158"><defs><clipPath id="a"><rect width="158" height="158" transform="translate(3257 1382)" fill="#fff"/></clipPath></defs><g transform="translate(-3257 -1382)" clip-path="url(#a)"><g transform="translate(-381 -15)"><g transform="translate(2336 -307)"><circle cx="40" cy="40" r="40" transform="translate(1357 1728)" fill="#f5f5f8"/><circle cx="40" cy="40" r="40" transform="translate(1349 1758)" fill="#f5f5f8"/><circle cx="40" cy="40" r="40" transform="translate(1325 1735)" fill="#f5f5f8"/></g><path d="M22.2,44.2h24v24h-24M79.8,87.4H12.6V34.6H79.8m0-24H75V1H65.4v9.6H27V1H17.4v9.6H12.6A9.6,9.6,0,0,0,3,20.2V87.4A9.6,9.6,0,0,0,12.6,97H79.8a9.6,9.6,0,0,0,9.6-9.6V20.2A9.6,9.6,0,0,0,79.8,10.6Z" transform="translate(3665.6 1424)" fill="#09b1fd"/></g></g></svg>