<svg xmlns="http://www.w3.org/2000/svg" width="11.749" height="315.771" viewBox="0 0 11.749 315.771">
  <g id="Grupo_131" data-name="Grupo 131" opacity="0.5">
    <path id="Trazado_300" data-name="Trazado 300" d="M135.983,1095.281V1093.9h7.129v-3.114H144.4v4.5Z" transform="translate(-135.396 -779.51)"/>
    <path id="Trazado_301" data-name="Trazado 301" d="M147.913,1073.127a9.146,9.146,0,0,0,1.46-.09v1.247l-.674.1v.034a1.925,1.925,0,0,1,.812,1.618,1.717,1.717,0,0,1-1.811,1.72c-1.523,0-2.31-1.225-2.3-3.248h-.1a.981.981,0,0,0-1.061,1.113,2.687,2.687,0,0,0,.449,1.473l-1,.27a3.637,3.637,0,0,1-.537-1.978c0-1.753,1.236-2.259,2.572-2.259Zm-1.512,1.349c-.012.978.213,1.91,1.137,1.91a.766.766,0,0,0,.873-.786,1.113,1.113,0,0,0-1.173-1.124Z" transform="translate(-140.371 -767.199)"/>
    <path id="Trazado_302" data-name="Trazado 302" d="M147.95,1060.215a2.786,2.786,0,0,0,.449-1.394c0-.606-.287-.876-.686-.876s-.612.225-.887.9c-.4,1.067-1.049,1.505-1.773,1.505a1.9,1.9,0,0,1-1.9-2.067,2.909,2.909,0,0,1,.362-1.462l1.074.282a2.237,2.237,0,0,0-.349,1.157c0,.495.275.764.649.764s.562-.259.849-.955a1.892,1.892,0,0,1,1.848-1.461c1.112,0,1.911.775,1.911,2.225a3.249,3.249,0,0,1-.425,1.664Z" transform="translate(-140.371 -755.802)"/>
    <path id="Trazado_303" data-name="Trazado 303" d="M146.277,1027.6c2.235,0,3.234,1.417,3.234,2.81,0,1.54-1.174,2.742-3.134,2.742-2,0-3.222-1.179-3.222-2.832C143.155,1028.689,144.429,1027.6,146.277,1027.6Zm.062,4.125c1.174,0,2.06-.529,2.06-1.36,0-.786-.848-1.337-2.085-1.337-.95,0-2.048.382-2.048,1.326C144.266,1031.33,145.328,1031.723,146.339,1031.723Z" transform="translate(-140.371 -735.681)"/>
    <path id="Trazado_304" data-name="Trazado 304" d="M134.515,1011.219v-1.382h3.621v-.023a1.929,1.929,0,0,1-.974-1.753c0-1.337,1.236-2.292,3.084-2.281,2.185,0,3.272,1.247,3.272,2.483a1.847,1.847,0,0,1-1.05,1.731v.022l.912.068v1.18c-.412-.023-1.086-.045-1.71-.045Zm6.355-1.382a1.875,1.875,0,0,0,.362-.034,1.3,1.3,0,0,0,1.074-1.225c0-.865-.761-1.393-2-1.393-1.074,0-1.948.461-1.948,1.383a1.325,1.325,0,0,0,1.123,1.225,2.074,2.074,0,0,0,.4.045Z" transform="translate(-134.378 -720.547)"/>
    <path id="Trazado_305" data-name="Trazado 305" d="M134.515,998.583V997.2h8.865v1.382Z" transform="translate(-134.378 -714.596)"/>
    <path id="Trazado_306" data-name="Trazado 306" d="M136.166,987.118a.778.778,0,1,1-.836.775A.779.779,0,0,1,136.166,987.118Zm7.779,1.472h-6.081v-1.382h6.081Z" transform="translate(-134.943 -707.602)"/>
    <path id="Trazado_307" data-name="Trazado 307" d="M148.487,965.889a3.771,3.771,0,0,1,2.759.809,2.925,2.925,0,0,1,.737,2.113,3.678,3.678,0,0,1-.487,1.911l-1.16-.3a3.062,3.062,0,0,0,.461-1.6c0-.9-.524-1.574-1.835-1.574h-.524v.022a1.788,1.788,0,0,1,.9,1.6c0,1.36-1.248,2.327-2.971,2.327-2,0-3.209-1.169-3.209-2.484a1.683,1.683,0,0,1,.949-1.584V967.1l-.812-.056v-1.2c.412.022.912.044,1.748.044Zm-2.76,1.382a1.589,1.589,0,0,0-.412.045,1.18,1.18,0,0,0-.986,1.123c0,.775.75,1.349,1.986,1.349,1.036,0,1.873-.472,1.873-1.337a1.2,1.2,0,0,0-.936-1.124,2.082,2.082,0,0,0-.537-.056Z" transform="translate(-140.371 -692.846)"/>
    <path id="Trazado_308" data-name="Trazado 308" d="M147.913,946.717a9.058,9.058,0,0,0,1.46-.09v1.248l-.674.1v.033a1.928,1.928,0,0,1,.812,1.619,1.717,1.717,0,0,1-1.811,1.719c-1.523,0-2.31-1.224-2.3-3.248h-.1a.981.981,0,0,0-1.061,1.113,2.686,2.686,0,0,0,.449,1.472l-1,.27a3.638,3.638,0,0,1-.537-1.979c0-1.753,1.236-2.259,2.572-2.259Zm-1.512,1.348c-.012.979.213,1.911,1.137,1.911a.766.766,0,0,0,.873-.787,1.115,1.115,0,0,0-1.173-1.124Z" transform="translate(-140.371 -679.516)"/>
    <path id="Trazado_309" data-name="Trazado 309" d="M149.185,928.634a3.655,3.655,0,0,1,.312,1.55,2.792,2.792,0,0,1-3.109,2.821,2.98,2.98,0,0,1-3.234-3.045,3.358,3.358,0,0,1,.275-1.337l1.161.247a2.1,2.1,0,0,0-.237,1.046,1.992,1.992,0,0,0,3.933,0,2.5,2.5,0,0,0-.238-1.09Z" transform="translate(-140.371 -667.028)"/>
    <path id="Trazado_310" data-name="Trazado 310" d="M136.166,920.155a.778.778,0,1,1-.836.775A.779.779,0,0,1,136.166,920.155Zm7.779,1.471h-6.081v-1.382h6.081Z" transform="translate(-134.943 -661.154)"/>
    <path id="Trazado_311" data-name="Trazado 311" d="M146.277,898.219c2.235,0,3.234,1.416,3.234,2.81,0,1.54-1.174,2.742-3.134,2.742-2,0-3.222-1.18-3.222-2.832C143.155,899.31,144.429,898.219,146.277,898.219Zm.062,4.125c1.174,0,2.06-.529,2.06-1.361,0-.786-.848-1.337-2.085-1.337-.95,0-2.048.383-2.048,1.326C144.266,901.95,145.328,902.344,146.339,902.344Z" transform="translate(-140.371 -645.939)"/>
    <path id="Trazado_312" data-name="Trazado 312" d="M145.1,882.932c-.7,0-1.286.022-1.81.045v-1.2l.912-.067v-.034a1.977,1.977,0,0,1-1.049-1.753c0-.955.687-1.945,2.61-1.945h3.609v1.382H145.94c-.874,0-1.536.293-1.536,1.046a1.186,1.186,0,0,0,.9,1.079,1.571,1.571,0,0,0,.487.068h3.584v1.383Z" transform="translate(-140.371 -631.897)"/>
    <path id="Trazado_313" data-name="Trazado 313" d="M146.764,861.222a1.537,1.537,0,0,0,1.573-1.686,4.005,4.005,0,0,0-.275-1.517l1.049-.2a4.5,4.5,0,0,1,.387,1.91c0,1.776-1.211,2.821-3.071,2.821-1.686,0-3.272-.922-3.272-2.675,0-1.775,1.623-2.36,2.959-2.36a4.164,4.164,0,0,1,.649.045Zm-1.074-2.4c-.561-.012-1.486.213-1.486,1.135,0,.854.861,1.213,1.486,1.27Z" transform="translate(-140.371 -617.704)"/>
    <path id="Trazado_314" data-name="Trazado 314" d="M147.95,845.538a2.782,2.782,0,0,0,.449-1.393c0-.607-.287-.877-.686-.877s-.612.224-.887.9c-.4,1.068-1.049,1.506-1.773,1.506a1.9,1.9,0,0,1-1.9-2.068,2.9,2.9,0,0,1,.362-1.46l1.074.281a2.244,2.244,0,0,0-.349,1.158c0,.494.275.764.649.764s.562-.259.849-.956a1.891,1.891,0,0,1,1.848-1.46c1.112,0,1.911.775,1.911,2.225a3.248,3.248,0,0,1-.425,1.664Z" transform="translate(-140.371 -606.895)"/>
    <path id="Trazado_315" data-name="Trazado 315" d="M134.515,813.333h7.155c.624,0,1.3-.023,1.71-.045v1.225l-.962.067v.022a1.936,1.936,0,0,1,1.1,1.776c0,1.315-1.236,2.349-3.11,2.349-2.035.012-3.246-1.135-3.246-2.45a1.683,1.683,0,0,1,.787-1.54v-.023h-3.434Zm5.319,1.382a2.611,2.611,0,0,0-.412.034,1.252,1.252,0,0,0-1.074,1.191c0,.888.873,1.383,2,1.383s1.936-.495,1.936-1.371a1.258,1.258,0,0,0-1.087-1.191,1.908,1.908,0,0,0-.449-.045Z" transform="translate(-134.378 -587.027)"/>
    <path id="Trazado_316" data-name="Trazado 316" d="M146.764,796.643a1.536,1.536,0,0,0,1.573-1.685,4,4,0,0,0-.275-1.517l1.049-.2a4.5,4.5,0,0,1,.387,1.91c0,1.776-1.211,2.821-3.071,2.821-1.686,0-3.272-.922-3.272-2.675,0-1.775,1.623-2.36,2.959-2.36a4.171,4.171,0,0,1,.649.045Zm-1.074-2.4c-.561-.012-1.486.214-1.486,1.135,0,.854.861,1.214,1.486,1.27Z" transform="translate(-140.371 -572.91)"/>
    <path id="Trazado_317" data-name="Trazado 317" d="M134.515,777.855v-1.383h8.865v1.383Z" transform="translate(-134.378 -561.491)"/>
    <path id="Trazado_318" data-name="Trazado 318" d="M147.913,757.123a9.143,9.143,0,0,0,1.46-.089v1.247l-.674.1v.034a1.926,1.926,0,0,1,.812,1.618,1.717,1.717,0,0,1-1.811,1.72c-1.523,0-2.31-1.225-2.3-3.248h-.1a.981.981,0,0,0-1.061,1.112,2.687,2.687,0,0,0,.449,1.473l-1,.269a3.636,3.636,0,0,1-.537-1.978c0-1.753,1.236-2.259,2.572-2.259Zm-1.512,1.349c-.012.978.213,1.911,1.137,1.911a.766.766,0,0,0,.873-.786,1.115,1.115,0,0,0-1.173-1.124Z" transform="translate(-140.371 -548.008)"/>
    <path id="Trazado_319" data-name="Trazado 319" d="M143.069,733.243h-4.932v.741h-1.149v-.741H136.7a2.448,2.448,0,0,1-2.634-2.642,2.989,2.989,0,0,1,.387-1.517l1.161.315a2.278,2.278,0,0,0-.325,1.2c0,.956.65,1.27,1.448,1.27h.25v-3.259h6.081v1.383h-4.932v1.866h4.932Z" transform="translate(-134.067 -528.293)"/>
    <path id="Trazado_320" data-name="Trazado 320" d="M134.515,706.8h7.155c.624,0,1.3-.022,1.71-.045v1.225l-.962.067v.023a1.935,1.935,0,0,1,1.1,1.776c0,1.315-1.236,2.349-3.11,2.349-2.035.011-3.246-1.135-3.246-2.45a1.683,1.683,0,0,1,.787-1.539v-.022h-3.434Zm5.319,1.383a2.567,2.567,0,0,0-.412.033,1.252,1.252,0,0,0-1.074,1.191c0,.888.873,1.383,2,1.383s1.936-.494,1.936-1.371a1.258,1.258,0,0,0-1.087-1.192,1.906,1.906,0,0,0-.449-.044Z" transform="translate(-134.378 -513.133)"/>
    <path id="Trazado_321" data-name="Trazado 321" d="M147.861,685.6c.724,0,1.323-.023,1.823-.045v1.2l-.912.068v.034a1.973,1.973,0,0,1,1.05,1.764c0,.989-.662,1.9-2.648,1.9H143.6v-1.382h3.309c1.012,0,1.661-.293,1.661-1.023a1.142,1.142,0,0,0-.824-1.056,1.209,1.209,0,0,0-.475-.079H143.6V685.6Z" transform="translate(-140.682 -498.43)"/>
    <path id="Trazado_322" data-name="Trazado 322" d="M149.185,667.309a3.656,3.656,0,0,1,.312,1.551,2.791,2.791,0,0,1-3.109,2.82,2.98,2.98,0,0,1-3.234-3.045,3.358,3.358,0,0,1,.275-1.337l1.161.247a2.092,2.092,0,0,0-.237,1.045,1.992,1.992,0,0,0,3.933,0,2.5,2.5,0,0,0-.238-1.09Z" transform="translate(-140.371 -485.764)"/>
    <path id="Trazado_323" data-name="Trazado 323" d="M136.166,658.83a.778.778,0,1,1-.836.775A.779.779,0,0,1,136.166,658.83Zm7.779,1.471h-6.081V658.92h6.081Z" transform="translate(-134.943 -479.89)"/>
    <path id="Trazado_324" data-name="Trazado 324" d="M147.913,639.81a9.064,9.064,0,0,0,1.46-.09v1.248l-.674.1v.033a1.928,1.928,0,0,1,.812,1.619,1.717,1.717,0,0,1-1.811,1.72c-1.523,0-2.31-1.225-2.3-3.248h-.1a.981.981,0,0,0-1.061,1.113,2.685,2.685,0,0,0,.449,1.472l-1,.27a3.638,3.638,0,0,1-.537-1.979c0-1.753,1.236-2.258,2.572-2.258Zm-1.512,1.348c-.012.979.213,1.911,1.137,1.911a.766.766,0,0,0,.873-.787,1.115,1.115,0,0,0-1.173-1.124Z" transform="translate(-140.371 -466.634)"/>
    <path id="Trazado_325" data-name="Trazado 325" d="M145.253,627.935c-.824,0-1.423.011-1.96.045V626.79l1.149-.056V626.7a1.669,1.669,0,0,1-1.286-1.505,1.343,1.343,0,0,1,.037-.327h1.436a2.021,2.021,0,0,0-.038.416,1.263,1.263,0,0,0,1.162,1.236,2.921,2.921,0,0,0,.462.034h3.159v1.382Z" transform="translate(-140.371 -456.332)"/>
    <path id="Trazado_326" data-name="Trazado 326" d="M136.166,616.658a.778.778,0,1,1-.836.775A.779.779,0,0,1,136.166,616.658Zm7.779,1.471h-6.081v-1.382h6.081Z" transform="translate(-134.943 -450.638)"/>
    <path id="Trazado_327" data-name="Trazado 327" d="M147.913,597.637a9.107,9.107,0,0,0,1.46-.089V598.8l-.674.1v.034a1.928,1.928,0,0,1,.812,1.619,1.717,1.717,0,0,1-1.811,1.719c-1.523,0-2.31-1.225-2.3-3.248h-.1a.981.981,0,0,0-1.061,1.113,2.685,2.685,0,0,0,.449,1.471l-1,.27a3.634,3.634,0,0,1-.537-1.978c0-1.753,1.236-2.259,2.572-2.259Zm-1.512,1.349c-.012.978.213,1.911,1.137,1.911a.766.766,0,0,0,.873-.787,1.115,1.115,0,0,0-1.173-1.123Z" transform="translate(-140.371 -437.382)"/>
    <path id="Trazado_328" data-name="Trazado 328" d="M147.95,576.77a2.785,2.785,0,0,0,.449-1.394c0-.607-.287-.877-.686-.877s-.612.225-.887.9c-.4,1.068-1.049,1.506-1.773,1.506a1.9,1.9,0,0,1-1.9-2.068,2.9,2.9,0,0,1,.362-1.461l1.074.281a2.241,2.241,0,0,0-.349,1.158c0,.495.275.764.649.764s.562-.259.849-.956a1.891,1.891,0,0,1,1.848-1.461c1.112,0,1.911.775,1.911,2.225a3.248,3.248,0,0,1-.425,1.664Z" transform="translate(-140.371 -420.467)"/>
    <path id="Trazado_329" data-name="Trazado 329" d="M146.277,552.11c2.235,0,3.234,1.416,3.234,2.81,0,1.54-1.174,2.742-3.134,2.742-2,0-3.222-1.18-3.222-2.832C143.155,553.2,144.429,552.11,146.277,552.11Zm.062,4.125c1.174,0,2.06-.528,2.06-1.36,0-.787-.848-1.337-2.085-1.337-.95,0-2.048.382-2.048,1.326C144.266,555.841,145.328,556.235,146.339,556.235Z" transform="translate(-140.371 -405.865)"/>
    <path id="Trazado_330" data-name="Trazado 330" d="M145.1,536.823c-.7,0-1.286.023-1.81.045v-1.2l.912-.067v-.034a1.978,1.978,0,0,1-1.049-1.753c0-.955.687-1.944,2.61-1.944h3.609v1.382H145.94c-.874,0-1.536.292-1.536,1.045a1.186,1.186,0,0,0,.9,1.079,1.569,1.569,0,0,0,.487.068h3.584v1.382Z" transform="translate(-140.371 -391.824)"/>
    <path id="Trazado_331" data-name="Trazado 331" d="M134.515,502.172h7.155c.624,0,1.3-.022,1.71-.045v1.225l-.962.068v.022a1.935,1.935,0,0,1,1.1,1.776c0,1.315-1.236,2.349-3.11,2.349-2.035.011-3.246-1.135-3.246-2.45a1.683,1.683,0,0,1,.787-1.54v-.023h-3.434Zm5.319,1.382a2.534,2.534,0,0,0-.412.034,1.252,1.252,0,0,0-1.074,1.191c0,.888.873,1.383,2,1.383s1.936-.495,1.936-1.371a1.257,1.257,0,0,0-1.087-1.191,1.873,1.873,0,0,0-.449-.045Z" transform="translate(-134.378 -371.195)"/>
    <path id="Trazado_332" data-name="Trazado 332" d="M146.764,485.482a1.537,1.537,0,0,0,1.573-1.686,4.006,4.006,0,0,0-.275-1.517l1.049-.2a4.5,4.5,0,0,1,.387,1.91c0,1.776-1.211,2.821-3.071,2.821-1.686,0-3.272-.921-3.272-2.675,0-1.776,1.623-2.36,2.959-2.36a4.168,4.168,0,0,1,.649.045Zm-1.074-2.4c-.561-.011-1.486.214-1.486,1.135,0,.854.861,1.214,1.486,1.27Z" transform="translate(-140.371 -357.077)"/>
    <path id="Trazado_333" data-name="Trazado 333" d="M145.1,451.554c-.7,0-1.286.023-1.81.045v-1.18l.9-.067v-.034a1.842,1.842,0,0,1-1.036-1.686,1.588,1.588,0,0,1,1.123-1.517v-.023a2.307,2.307,0,0,1-.761-.663,1.764,1.764,0,0,1-.362-1.123c0-.9.687-1.821,2.635-1.821h3.584v1.348h-3.359c-1.012,0-1.611.315-1.611.978a1.077,1.077,0,0,0,.811.966,1.8,1.8,0,0,0,.512.068h3.646v1.349h-3.521c-.85,0-1.449.3-1.449.944a1.139,1.139,0,0,0,.861,1,1.931,1.931,0,0,0,.512.067h3.6v1.349Z" transform="translate(-140.371 -330.519)"/>
    <path id="Trazado_334" data-name="Trazado 334" d="M146.764,426.77a1.537,1.537,0,0,0,1.573-1.686,4.006,4.006,0,0,0-.275-1.517l1.049-.2a4.5,4.5,0,0,1,.387,1.911c0,1.776-1.211,2.821-3.071,2.821-1.686,0-3.272-.921-3.272-2.675,0-1.776,1.623-2.36,2.959-2.36a4.206,4.206,0,0,1,.649.045Zm-1.074-2.4c-.561-.011-1.486.214-1.486,1.135,0,.854.861,1.214,1.486,1.27Z" transform="translate(-140.371 -316.352)"/>
    <path id="Trazado_335" data-name="Trazado 335" d="M134.515,402.5h7.155c.624,0,1.3-.022,1.71-.045v1.225l-.962.067v.022a1.935,1.935,0,0,1,1.1,1.776c0,1.315-1.236,2.349-3.11,2.349-2.035.011-3.246-1.135-3.246-2.45a1.683,1.683,0,0,1,.787-1.54v-.023h-3.434Zm5.319,1.382a2.541,2.541,0,0,0-.412.034,1.252,1.252,0,0,0-1.074,1.191c0,.888.873,1.383,2,1.383s1.936-.495,1.936-1.371a1.258,1.258,0,0,0-1.087-1.191,1.892,1.892,0,0,0-.449-.045Z" transform="translate(-134.378 -302.057)"/>
    <path id="Trazado_336" data-name="Trazado 336" d="M136.166,392.591a.778.778,0,1,1-.836.775A.779.779,0,0,1,136.166,392.591Zm7.779,1.472h-6.081v-1.382h6.081Z" transform="translate(-134.943 -295.217)"/>
    <path id="Trazado_337" data-name="Trazado 337" d="M146.277,370.656c2.235,0,3.234,1.416,3.234,2.81,0,1.539-1.174,2.742-3.134,2.742-2,0-3.222-1.18-3.222-2.832C143.155,371.746,144.429,370.656,146.277,370.656Zm.062,4.125c1.174,0,2.06-.528,2.06-1.36,0-.786-.848-1.337-2.085-1.337-.95,0-2.048.382-2.048,1.327C144.266,374.388,145.328,374.781,146.339,374.781Z" transform="translate(-140.371 -280.002)"/>
    <path id="Trazado_338" data-name="Trazado 338" d="M143.6,346.841l3.259-.978c.375-.112.837-.236,1.174-.315v-.033c-.337-.079-.8-.18-1.186-.292l-3.247-.854V342.9l4.145,1.371c2.273.753,3.284,1.259,3.908,1.9a2.792,2.792,0,0,1,.774,1.45l-1.286.315a2.226,2.226,0,0,0-.424-.8,2.521,2.521,0,0,0-.961-.764.622.622,0,0,0-.275-.079.845.845,0,0,0-.3.067l-5.581,2.012Z" transform="translate(-140.682 -260.747)"/>
    <path id="Trazado_339" data-name="Trazado 339" d="M145.1,320.752c-.7,0-1.286.023-1.81.045v-1.2l.912-.067v-.034a1.978,1.978,0,0,1-1.049-1.753c0-.956.687-1.945,2.61-1.945h3.609v1.382H145.94c-.874,0-1.536.292-1.536,1.045a1.186,1.186,0,0,0,.9,1.079,1.569,1.569,0,0,0,.487.068h3.584v1.382Z" transform="translate(-140.371 -241.949)"/>
    <path id="Trazado_340" data-name="Trazado 340" d="M146.277,293.645c2.235,0,3.234,1.416,3.234,2.81,0,1.54-1.174,2.742-3.134,2.742-2,0-3.222-1.18-3.222-2.832C143.155,294.735,144.429,293.645,146.277,293.645Zm.062,4.125c1.174,0,2.06-.528,2.06-1.36,0-.787-.848-1.337-2.085-1.337-.95,0-2.048.382-2.048,1.326C144.266,297.376,145.328,297.77,146.339,297.77Z" transform="translate(-140.371 -226.584)"/>
    <path id="Trazado_341" data-name="Trazado 341" d="M134.515,265.05h7.155c.624,0,1.3-.022,1.71-.045v1.225l-.962.067v.022a1.935,1.935,0,0,1,1.1,1.776c0,1.315-1.236,2.349-3.11,2.349-2.035.011-3.246-1.135-3.246-2.45a1.683,1.683,0,0,1,.787-1.54v-.023h-3.434Zm5.319,1.382a2.541,2.541,0,0,0-.412.034,1.252,1.252,0,0,0-1.074,1.191c0,.888.873,1.383,2,1.383s1.936-.494,1.936-1.371a1.258,1.258,0,0,0-1.087-1.191,1.892,1.892,0,0,0-.449-.045Z" transform="translate(-134.378 -206.719)"/>
    <path id="Trazado_342" data-name="Trazado 342" d="M146.764,248.361a1.537,1.537,0,0,0,1.573-1.686,4.006,4.006,0,0,0-.275-1.517l1.049-.2a4.494,4.494,0,0,1,.387,1.91c0,1.776-1.211,2.821-3.071,2.821-1.686,0-3.272-.921-3.272-2.675,0-1.776,1.623-2.36,2.959-2.36a4.209,4.209,0,0,1,.649.045Zm-1.074-2.4c-.561-.011-1.486.214-1.486,1.135,0,.854.861,1.214,1.486,1.27Z" transform="translate(-140.371 -192.601)"/>
    <path id="Trazado_343" data-name="Trazado 343" d="M145.253,225.755c-.824,0-1.423.011-1.96.045v-1.191l1.149-.056v-.034a1.669,1.669,0,0,1-1.286-1.506,1.338,1.338,0,0,1,.037-.326h1.436a2.017,2.017,0,0,0-.038.416,1.263,1.263,0,0,0,1.162,1.236,2.921,2.921,0,0,0,.462.034h3.159v1.382Z" transform="translate(-140.371 -177.365)"/>
    <path id="Trazado_344" data-name="Trazado 344" d="M146.764,208.021a1.537,1.537,0,0,0,1.573-1.686,4,4,0,0,0-.275-1.517l1.049-.2a4.5,4.5,0,0,1,.387,1.911c0,1.775-1.211,2.82-3.071,2.82-1.686,0-3.272-.921-3.272-2.675,0-1.776,1.623-2.36,2.959-2.36a4.2,4.2,0,0,1,.649.045Zm-1.074-2.4c-.561-.011-1.486.214-1.486,1.135,0,.854.861,1.214,1.486,1.27Z" transform="translate(-140.371 -164.62)"/>
    <path id="Trazado_345" data-name="Trazado 345" d="M147.95,192.336a2.784,2.784,0,0,0,.449-1.394c0-.607-.287-.877-.686-.877s-.612.225-.887.9c-.4,1.068-1.049,1.506-1.773,1.506a1.9,1.9,0,0,1-1.9-2.068,2.9,2.9,0,0,1,.362-1.461l1.074.281a2.242,2.242,0,0,0-.349,1.157c0,.495.275.764.649.764s.562-.258.849-.955a1.891,1.891,0,0,1,1.848-1.461c1.112,0,1.911.775,1.911,2.225a3.246,3.246,0,0,1-.425,1.663Z" transform="translate(-140.371 -153.811)"/>
    <path id="Trazado_346" data-name="Trazado 346" d="M147.861,168.566c.724,0,1.323-.022,1.823-.045v1.2l-.912.067v.034a1.974,1.974,0,0,1,1.05,1.764c0,.989-.662,1.9-2.648,1.9H143.6v-1.382h3.309c1.012,0,1.661-.292,1.661-1.023a1.143,1.143,0,0,0-.824-1.057,1.219,1.219,0,0,0-.475-.078H143.6v-1.382Z" transform="translate(-140.682 -139.794)"/>
    <path id="Trazado_347" data-name="Trazado 347" d="M134.515,160.3v-1.382h8.865V160.3Z" transform="translate(-134.378 -133.132)"/>
    <path id="Trazado_348" data-name="Trazado 348" d="M138.51,145.488h1.56v-1.315h1.149v1.315H143.9c.749,0,1.123-.18,1.123-.708a1.629,1.629,0,0,0-.062-.54l1.161-.023a2.766,2.766,0,0,1,.163,1,1.5,1.5,0,0,1-.5,1.191,2.585,2.585,0,0,1-1.71.438h-2.86v.775H140.07v-.775h-1.136Z" transform="translate(-137.149 -122.905)"/>
    <path id="Trazado_349" data-name="Trazado 349" d="M147.913,126.328a9.059,9.059,0,0,0,1.46-.09v1.248l-.674.1v.033a1.928,1.928,0,0,1,.812,1.618,1.717,1.717,0,0,1-1.811,1.72c-1.523,0-2.31-1.225-2.3-3.248h-.1a.981.981,0,0,0-1.061,1.113,2.685,2.685,0,0,0,.449,1.472l-1,.27a3.635,3.635,0,0,1-.537-1.978c0-1.753,1.236-2.259,2.572-2.259Zm-1.512,1.348c-.012.978.213,1.91,1.137,1.91a.766.766,0,0,0,.873-.786,1.115,1.115,0,0,0-1.173-1.124Z" transform="translate(-140.371 -110.465)"/>
    <path id="Trazado_350" data-name="Trazado 350" d="M134.515,104.829h7.155c.624,0,1.3-.022,1.71-.045v1.225l-.962.068v.022a1.935,1.935,0,0,1,1.1,1.776c0,1.315-1.236,2.349-3.11,2.349-2.035.011-3.246-1.135-3.246-2.45a1.683,1.683,0,0,1,.787-1.54v-.023h-3.434Zm5.319,1.382a2.538,2.538,0,0,0-.412.034,1.252,1.252,0,0,0-1.074,1.191c0,.888.873,1.383,2,1.383s1.936-.494,1.936-1.371a1.259,1.259,0,0,0-1.087-1.191,1.908,1.908,0,0,0-.449-.045Z" transform="translate(-134.378 -95.584)"/>
    <path id="Trazado_351" data-name="Trazado 351" d="M146.277,82.744c2.235,0,3.234,1.416,3.234,2.81,0,1.54-1.174,2.742-3.134,2.742-2,0-3.222-1.18-3.222-2.832C143.155,83.834,144.429,82.744,146.277,82.744Zm.062,4.125c1.174,0,2.06-.528,2.06-1.36,0-.786-.848-1.337-2.085-1.337-.95,0-2.048.382-2.048,1.327C144.266,86.476,145.328,86.869,146.339,86.869Z" transform="translate(-140.371 -80.296)"/>
    <path id="Trazado_352" data-name="Trazado 352" d="M158.447,76.461a.9.9,0,0,1-.986-.854.882.882,0,0,1,.986-.854.863.863,0,1,1,0,1.708Z" transform="translate(-150.294 -74.753)"/>
  </g>
</svg>
