<svg xmlns="http://www.w3.org/2000/svg" xmlns:xlink="http://www.w3.org/1999/xlink" width="420" height="77.117" viewBox="0 0 420 77.117">
  <defs>
    <linearGradient id="linear-gradient" x1="0.475" y1="0.486" x2="1.01" y2="0.604" gradientUnits="objectBoundingBox">
      <stop offset="0.126" stop-color="#bf011f"/>
      <stop offset="0.195" stop-color="#c20e2a"/>
      <stop offset="0.323" stop-color="#cb3049"/>
      <stop offset="0.496" stop-color="#d9697a"/>
      <stop offset="0.705" stop-color="#ecb5be"/>
      <stop offset="0.89" stop-color="#fff"/>
    </linearGradient>
    <linearGradient id="linear-gradient-2" x1="0.103" y1="0.5" x2="0.887" y2="0.5" gradientUnits="objectBoundingBox">
      <stop offset="0" stop-color="#bf011f"/>
      <stop offset="1" stop-color="#f2d231"/>
    </linearGradient>
    <linearGradient id="linear-gradient-3" x1="0.5" y1="-0.008" x2="0.5" y2="0.357" gradientUnits="objectBoundingBox">
      <stop offset="0" stop-color="#d09924"/>
      <stop offset="0.175" stop-color="#daa927"/>
      <stop offset="0.468" stop-color="#e7c02c"/>
      <stop offset="0.748" stop-color="#efcd2f"/>
      <stop offset="1" stop-color="#f2d231"/>
    </linearGradient>
    <linearGradient id="linear-gradient-4" x1="0.27" y1="0.244" x2="0.468" y2="0.602" gradientUnits="objectBoundingBox">
      <stop offset="0" stop-color="#d09924"/>
      <stop offset="0.144" stop-color="#daa927"/>
      <stop offset="0.383" stop-color="#e7c02c"/>
      <stop offset="0.613" stop-color="#efcd2f"/>
      <stop offset="0.82" stop-color="#f2d231"/>
      <stop offset="1" stop-color="#f2d231"/>
    </linearGradient>
  </defs>
  <g id="Grupo_44" data-name="Grupo 44" transform="translate(1012.227 762.5)">
    <g id="Grupo_41" data-name="Grupo 41" transform="translate(-670.383 -762.5)">
      <g id="Grupo_40" data-name="Grupo 40" transform="translate(0 0)">
        <g id="Grupo_39" data-name="Grupo 39">
          <g id="Grupo_35" data-name="Grupo 35" transform="translate(0 0)">
            <g id="Grupo_34" data-name="Grupo 34">
              <path id="Trazado_33" data-name="Trazado 33" d="M431.956-762.5c-20.918.36-38.212,14.958-38.972,35.03a36.361,36.361,0,0,0,34.972,37.708,36.247,36.247,0,0,0,26.475-10.025c6.605-6.3,6.334-17.389,1.079-12.361a31.064,31.064,0,0,1-22.666,8.51c-16.8-.6-29.91-14.164-29.279-30.289.586-14.964,15.422-26.807,28.705-27.52l.345-1.056C432.394-762.5,432.178-762.5,431.956-762.5Z" transform="translate(-392.958 762.499)" fill="url(#linear-gradient)"/>
            </g>
          </g>
          <g id="Grupo_38" data-name="Grupo 38" transform="translate(17.907)">
            <g id="Grupo_37" data-name="Grupo 37">
              <g id="Grupo_36" data-name="Grupo 36">
                <path id="Trazado_34" data-name="Trazado 34" d="M508.179-761.436c16.879,1.019,30.778,15.4-18.346,29.763a70.092,70.092,0,0,1,21.756,8.325c42.054-21.379,18.131-39.224-5.666-39.151l-.347,1.056A22.475,22.475,0,0,1,508.179-761.436Z" transform="translate(-484.173 762.5)" fill="#f2d231"/>
                <path id="Trazado_35" data-name="Trazado 35" d="M469.885-753.92a31.839,31.839,0,0,1,18.085-7.524,22.447,22.447,0,0,1,2.6.008c8.278.5,15.835,4.207,15.6,9.558l4.131-4.87c-5.526-3.661-13.764-5.774-21.988-5.752-.221,0-.438,0-.662.005a42.97,42.97,0,0,0-21.088,5.815Z" transform="translate(-466.567 762.5)" fill="url(#linear-gradient-2)"/>
                <path id="Trazado_36" data-name="Trazado 36" d="M525.169-633.432c-.009-.189-.7-4.947-.7-4.947-1.7-11.289.677-22.245,17.955-23.135-25.059-12.047-41.72-.512-53.928,2.183C499.609-657.942,523.031-645.388,525.169-633.432Z" transform="translate(-483.164 690.158)" fill="url(#linear-gradient-3)"/>
                <path id="Trazado_37" data-name="Trazado 37" d="M588.336-631.095c-10.674,4.4-9.588,16.582-8.558,23.719a13.563,13.563,0,0,1-1.2,9.67c-3.07,5.223-8.032,9.154-17.606,11.722C585.516-584.857,613.6-608.426,588.336-631.095Z" transform="translate(-538.009 663.062)" fill="url(#linear-gradient-4)"/>
              </g>
            </g>
          </g>
        </g>
      </g>
    </g>
    <g id="Grupo_42" data-name="Grupo 42" transform="translate(-818.973 -740.966)">
      <path id="Trazado_38" data-name="Trazado 38" d="M-198.051-656.158c2.7-1.117,3.983-3.129,3.983-6.361a6.693,6.693,0,0,0-4.086-6.605c-1.82-.748-3.532-.929-8.71-.929h-10.973v3.137s2.661.388,3.452.506v25.915h8.72c4.28,0,6.077-.252,8.021-1.149a7.775,7.775,0,0,0,4.638-7.318C-193.006-652.779-194.722-655.1-198.051-656.158Zm-10.173-10.08h1.7c2.264-.009,4.054-.009,5.146.931a3.792,3.792,0,0,1,1.145,2.953c0,2.942-.9,4.107-4.372,4.451l-2.482.26c0-.024-1.141,1.912-1.141,1.912Zm7.066,20.79c-1.37,1.047-3.43,1.129-5.973,1.129h-1.092v-9.716c.035,0,.144.024.144.024h2.021c2.22,0,4,.068,5.151.979a4.617,4.617,0,0,1,1.473,3.66A4.771,4.771,0,0,1-201.159-645.448Z" transform="translate(217.837 671.009)" fill="#263185"/>
      <path id="Trazado_39" data-name="Trazado 39" d="M96.02-637.694c-6.554,0-10.619,4.25-10.619,11.079,0,6.911,3.969,11.031,10.619,11.031,6.527,0,10.585-4.244,10.585-11.074C106.6-633.567,102.65-637.694,96.02-637.694ZM95.974-619.4c-1.9,0-4.413-.752-4.413-7.214,0-6.356,2.253-7.21,4.459-7.21,1.9,0,4.422.739,4.422,7.168C100.442-620.274,98.184-619.4,95.974-619.4Z" transform="translate(-11.631 646.522)" fill="#263185"/>
      <path id="Trazado_40" data-name="Trazado 40" d="M194.668-635.476l-4.139.624c-.92,0-1.162-.238-1.316-.464-.122-.216-.149-.36-.149-2,0-.187.009-10.316.009-11.487h5.84v-3.621h-5.84v-5.622l-.732.063-5.168.432v20.122c0,2.236.187,3.66,1.14,4.781.89,1.1,2.268,1.616,4.3,1.616a17.475,17.475,0,0,0,6.358-1.395l.581-.225Z" transform="translate(-85.618 661.923)" fill="#263185"/>
      <path id="Trazado_41" data-name="Trazado 41" d="M-93.438-637.694c-6.541,0-10.612,4.25-10.612,11.079,0,6.911,3.975,11.031,10.612,11.031,6.541,0,10.593-4.244,10.593-11.074C-82.845-633.567-86.8-637.694-93.438-637.694Zm-.034,18.293c-1.9,0-4.417-.752-4.417-7.214,0-6.356,2.251-7.21,4.451-7.21,1.9,0,4.43.739,4.43,7.168C-89.008-620.274-91.258-619.4-93.472-619.4Z" transform="translate(131.731 646.522)" fill="#263185"/>
      <path id="Trazado_42" data-name="Trazado 42" d="M5.947-634.317a9.459,9.459,0,0,0-4.582-1.162c-5.869,0-10.036,4.667-10.036,11.216,0,6.285,3.3,10.225,8.584,10.225,1.37,0,2.693-.359,5.873-1.649V-614c0,3.66-1.331,4.711-5.905,4.711a32.71,32.71,0,0,1-7.031-.848v3.541c4.386.96,6.2,1.245,8.433,1.245a15.125,15.125,0,0,0,7.02-1.414c2.567-1.365,3.516-3.294,3.516-7V-635.2H5.947Zm-.16,15.735a16.8,16.8,0,0,1-2.73.246c-3.553,0-5.5-2.3-5.5-6.519,0-4.385,2.2-6.924,6.032-6.924a11.326,11.326,0,0,1,2.194.2Z" transform="translate(59.555 644.846)" fill="#263185"/>
      <path id="Trazado_43" data-name="Trazado 43" d="M257.4-634.658h-5.745v.883a9.171,9.171,0,0,0-4.483-1.16c-5.751,0-9.83,4.651-9.83,11.18,0,6.257,3.231,10.186,8.409,10.186,1.338,0,3.075-.6,5.74-2.135v1.939l8.288-.832v-3.5H257.4Zm-5.733,16.648a16.548,16.548,0,0,1-2.791.255c-3.618,0-5.609-2.329-5.609-6.6,0-4.435,2.239-7,6.163-7a11.151,11.151,0,0,1,2.237.213Z" transform="translate(-126.611 644.435)" fill="#263185"/>
      <path id="Trazado_44" data-name="Trazado 44" d="M273.966-669.508l-1.4-4.474-.612.248-9.177,3.718.8,2.673Z" transform="translate(-145.859 673.982)" fill="#263185"/>
    </g>
    <g id="Grupo_43" data-name="Grupo 43" transform="translate(-1012.227 -740.7)">
      <path id="Trazado_45" data-name="Trazado 45" d="M-452.229-636.944v1.625c2.615-1.249,4.548-1.916,5.6-1.916a5.318,5.318,0,0,1,2.277.5v5.044a10.424,10.424,0,0,0-4.592-.957,19.462,19.462,0,0,0-3.114.332v16.847h-6.152v-20.849Z" transform="translate(592.987 645.908)" fill="#263185"/>
      <path id="Trazado_46" data-name="Trazado 46" d="M-659.022-632.948a19.689,19.689,0,0,0-4.424-.5c-4.544,0-6.779,2.381-6.779,7.217,0,4.586,2.189,6.795,6.822,6.795a27.6,27.6,0,0,0,4.382-.371v3.293a33.468,33.468,0,0,1-7.326,1.25c-6.407,0-10.239-3.959-10.239-10.552,0-7.213,4.3-11.59,11.417-11.59a22.9,22.9,0,0,1,6.147,1.04Z" transform="translate(758.238 646.038)" fill="#263185"/>
      <path id="Trazado_47" data-name="Trazado 47" d="M-991.046-664.612v-4.165h-21.181v3.138s2.658.383,3.445.5v25.8h6.362v-13.134h9.014v-4.171h-7.873l-1.141,1.865v-9.835Z" transform="translate(1012.227 669.777)" fill="#263185"/>
      <path id="Trazado_48" data-name="Trazado 48" d="M-852.507-672.887l-.3.037-.7.085-7.757.982v2.614h2.86c0,.478-.008,6.23-.008,6.824-2.3-.775-5.521-1.449-8.475-.452-4.066,1.372-6.364,5.042-6.479,10.345-.111,4.8,2.373,8.754,6.324,10.054,2.9.95,6.755-.118,8.9-1.141.016.412.07,1.728.07,1.728l7.821-1.038v-2.615h-2.5C-852.743-646-852.507-672.887-852.507-672.887Zm-5.887,26.69c-2.641.7-5.572,1.241-7.469-1.047-1.111-1.327-1.328-3.316-1.328-5.344,0-.223.007-.462.007-.695a7.036,7.036,0,0,1,1.788-4.94c1.806-2.035,4.891-1.631,7.149-.573C-858.247-658.8-858.394-646.624-858.394-646.2Z" transform="translate(907.148 672.887)" fill="#263185"/>
      <path id="Trazado_49" data-name="Trazado 49" d="M-765.171-614.352a18.651,18.651,0,0,0,6.7-1.718c.037.486.12,1.676.12,1.676l8.895-1.13v-3.114h-3.273v-17.4h-5.831s-.053,15.375-.053,16.252a14.826,14.826,0,0,1-4.521.846,2.7,2.7,0,0,1-1.937-.538c-.556-.569-.549-1.684-.538-2.973l.007-13.587h-5.9v13.9c0,3.224.144,4.277,1.164,5.592A6.126,6.126,0,0,0-765.171-614.352Z" transform="translate(830.064 645.003)" fill="#263185"/>
      <path id="Trazado_50" data-name="Trazado 50" d="M-536.082-635.861h-5.749v.9a9.065,9.065,0,0,0-4.482-1.176c-5.751,0-9.833,4.737-9.833,11.386,0,6.376,3.229,10.378,8.41,10.378,1.34,0,3.071-.609,5.744-2.172v1.983l8.284-.853v-3.564h-2.375Zm-5.733,16.966a15.888,15.888,0,0,1-2.79.26c-3.623,0-5.614-2.373-5.614-6.72,0-4.524,2.239-7.135,6.165-7.135a10.616,10.616,0,0,1,2.238.222Z" transform="translate(667.098 645.08)" fill="#263185"/>
      <path id="Trazado_51" data-name="Trazado 51" d="M-332.442-635.861h-5.747v.9a9.088,9.088,0,0,0-4.482-1.176c-5.752,0-9.837,4.737-9.837,11.386,0,6.376,3.235,10.378,8.418,10.378,1.333,0,3.067-.609,5.737-2.172v1.983l8.287-.853v-3.564h-2.375Zm-5.734,16.966a15.906,15.906,0,0,1-2.79.26c-3.626,0-5.615-2.373-5.615-6.72,0-4.524,2.241-7.135,6.167-7.135a10.6,10.6,0,0,1,2.237.222Z" transform="translate(513.001 645.08)" fill="#263185"/>
      <path id="Trazado_52" data-name="Trazado 52" d="M-592.432-665.742c2.737,0,3.751-.791,3.751-2.877,0-2.042-1.014-2.837-3.665-2.837s-3.707.795-3.707,2.8C-596.053-666.533-595.044-665.742-592.432-665.742Zm2.958,2.728-7.62.894v3.335h1.632v17.228h6.147v-21.476l-.158.021Z" transform="translate(698.085 671.804)" fill="#263185"/>
      <path id="Trazado_53" data-name="Trazado 53" d="M-388.786-665.742c2.739,0,3.75-.791,3.75-2.877,0-2.042-1.011-2.837-3.667-2.837s-3.708.795-3.708,2.8C-392.411-666.533-391.4-665.742-388.786-665.742Zm2.962,2.728-7.625.894v3.335h1.632v17.228h6.149v-21.476l-.156.021Z" transform="translate(543.981 671.804)" fill="#263185"/>
      <path id="Trazado_54" data-name="Trazado 54" d="M-911.323-665.742c2.736,0,3.747-.791,3.747-2.877,0-2.042-1.011-2.837-3.661-2.837s-3.705.795-3.705,2.8C-914.942-666.533-913.933-665.742-911.323-665.742Zm2.96,2.728-7.621.894v3.335h1.63v17.228h6.147v-21.476l-.155.021Z" transform="translate(939.397 671.804)" fill="#263185"/>
    </g>
  </g>
</svg>
