<svg xmlns="http://www.w3.org/2000/svg" xmlns:xlink="http://www.w3.org/1999/xlink" width="312" height="73" viewBox="0 0 312 73">
  <defs>
    <linearGradient id="linear-gradient" x1="0.475" y1="0.486" x2="1.01" y2="0.604" gradientUnits="objectBoundingBox">
      <stop offset="0.126" stop-color="#bf011f"/>
      <stop offset="0.195" stop-color="#c20e2a"/>
      <stop offset="0.323" stop-color="#cb3049"/>
      <stop offset="0.496" stop-color="#d9697a"/>
      <stop offset="0.705" stop-color="#ecb5be"/>
      <stop offset="0.89" stop-color="#fff"/>
    </linearGradient>
    <linearGradient id="linear-gradient-2" x1="0.103" y1="0.5" x2="0.887" y2="0.5" gradientUnits="objectBoundingBox">
      <stop offset="0" stop-color="#bf011f"/>
      <stop offset="1" stop-color="#f2d231"/>
    </linearGradient>
    <linearGradient id="linear-gradient-3" x1="0.5" y1="-0.008" x2="0.5" y2="0.357" gradientUnits="objectBoundingBox">
      <stop offset="0" stop-color="#d09924"/>
      <stop offset="0.175" stop-color="#daa927"/>
      <stop offset="0.468" stop-color="#e7c02c"/>
      <stop offset="0.748" stop-color="#efcd2f"/>
      <stop offset="1" stop-color="#f2d231"/>
    </linearGradient>
    <linearGradient id="linear-gradient-4" x1="0.27" y1="0.244" x2="0.468" y2="0.602" gradientUnits="objectBoundingBox">
      <stop offset="0" stop-color="#d09924"/>
      <stop offset="0.144" stop-color="#daa927"/>
      <stop offset="0.383" stop-color="#e7c02c"/>
      <stop offset="0.613" stop-color="#efcd2f"/>
      <stop offset="0.82" stop-color="#f2d231"/>
      <stop offset="1" stop-color="#f2d231"/>
    </linearGradient>
  </defs>
  <g id="Grupo_162" data-name="Grupo 162" transform="translate(-5003 -4926)">
    <rect id="Rectángulo_233" data-name="Rectángulo 233" width="312" height="73" transform="translate(5003 4926)" fill="none"/>
    <g id="Grupo_161" data-name="Grupo 161" transform="translate(6052.227 5703.5)">
      <g id="Grupo_41" data-name="Grupo 41" transform="translate(-818.738 -762.5)">
        <g id="Grupo_40" data-name="Grupo 40" transform="translate(0 0)">
          <g id="Grupo_39" data-name="Grupo 39">
            <g id="Grupo_35" data-name="Grupo 35" transform="translate(0 0)">
              <g id="Grupo_34" data-name="Grupo 34">
                <path id="Trazado_33" data-name="Trazado 33" d="M415.031-762.5c-11.84.2-21.629,8.466-22.059,19.828a20.581,20.581,0,0,0,19.795,21.344A20.517,20.517,0,0,0,427.753-727c3.739-3.565,3.585-9.843.611-7a17.583,17.583,0,0,1-12.829,4.817c-9.51-.34-16.93-8.017-16.572-17.144.331-8.47,8.729-15.173,16.248-15.577l.2-.6C415.279-762.5,415.157-762.5,415.031-762.5Z" transform="translate(-392.958 762.499)" fill="url(#linear-gradient)"/>
              </g>
            </g>
            <g id="Grupo_38" data-name="Grupo 38" transform="translate(10.136)">
              <g id="Grupo_37" data-name="Grupo 37">
                <g id="Grupo_36" data-name="Grupo 36">
                  <path id="Trazado_34" data-name="Trazado 34" d="M500.217-761.9c9.554.577,17.421,8.717-10.384,16.846a39.674,39.674,0,0,1,12.314,4.712c23.8-12.1,10.262-22.2-3.207-22.16l-.2.6A12.69,12.69,0,0,1,500.217-761.9Z" transform="translate(-486.629 762.5)" fill="#f2d231"/>
                  <path id="Trazado_35" data-name="Trazado 35" d="M468.445-757.643a18.021,18.021,0,0,1,10.236-4.259,12.7,12.7,0,0,1,1.473,0c4.686.284,8.963,2.381,8.831,5.41l2.338-2.757a23.338,23.338,0,0,0-12.446-3.256c-.125,0-.248,0-.375,0a24.32,24.32,0,0,0-11.936,3.291Z" transform="translate(-466.567 762.5)" fill="url(#linear-gradient-2)"/>
                  <path id="Trazado_36" data-name="Trazado 36" d="M509.255-647.957c0-.107-.394-2.8-.394-2.8-.963-6.39.383-12.591,10.163-13.095-14.184-6.819-23.614-.29-30.524,1.235C494.788-661.83,508.045-654.724,509.255-647.957Z" transform="translate(-485.48 680.065)" fill="url(#linear-gradient-3)"/>
                  <path id="Trazado_37" data-name="Trazado 37" d="M576.462-631.095c-6.042,2.49-5.427,9.386-4.844,13.426a7.677,7.677,0,0,1-.677,5.473c-1.738,2.957-4.546,5.181-9.965,6.635C574.866-604.924,590.76-618.264,576.462-631.095Z" transform="translate(-547.976 649.189)" fill="url(#linear-gradient-4)"/>
                </g>
              </g>
            </g>
          </g>
        </g>
      </g>
      <g id="Grupo_42" data-name="Grupo 42" transform="translate(-902.842 -750.311)">
        <path id="Trazado_38" data-name="Trazado 38" d="M-206.638-662.188a3.475,3.475,0,0,0,2.254-3.6,3.788,3.788,0,0,0-2.312-3.739c-1.03-.423-2-.526-4.93-.526h-6.211v1.775s1.506.22,1.954.286v14.669h4.936c2.423,0,3.44-.142,4.54-.65a4.4,4.4,0,0,0,2.625-4.142A3.835,3.835,0,0,0-206.638-662.188Zm-5.758-5.705h.965c1.281-.005,2.294-.005,2.913.527a2.146,2.146,0,0,1,.648,1.671c0,1.665-.511,2.324-2.475,2.519l-1.4.147c0-.013-.646,1.083-.646,1.083Zm4,11.768c-.776.593-1.941.639-3.381.639h-.618v-5.5l.081.013h1.144a4.779,4.779,0,0,1,2.915.554,2.614,2.614,0,0,1,.834,2.072A2.7,2.7,0,0,1-208.4-656.126Z" transform="translate(217.837 670.594)" fill="#263185"/>
        <path id="Trazado_39" data-name="Trazado 39" d="M91.411-637.694c-3.71,0-6.01,2.406-6.01,6.271,0,3.912,2.247,6.244,6.01,6.244,3.694,0,5.991-2.4,5.991-6.268C97.4-635.358,95.164-637.694,91.411-637.694Zm-.026,10.354c-1.076,0-2.5-.426-2.5-4.083,0-3.6,1.275-4.081,2.524-4.081,1.076,0,2.5.418,2.5,4.057C93.914-627.834,92.637-627.34,91.386-627.34Z" transform="translate(-43.646 642.691)" fill="#263185"/>
        <path id="Trazado_40" data-name="Trazado 40" d="M189.679-645.271l-2.343.353c-.521,0-.658-.135-.745-.263-.069-.122-.084-.2-.084-1.132,0-.106.005-5.839.005-6.5h3.306v-2.05h-3.306v-3.182l-.414.036-2.925.244v11.389a3.907,3.907,0,0,0,.646,2.706,2.9,2.9,0,0,0,2.435.915,9.891,9.891,0,0,0,3.6-.79l.329-.127Z" transform="translate(-127.955 660.24)" fill="#263185"/>
        <path id="Trazado_41" data-name="Trazado 41" d="M-98.044-637.694c-3.7,0-6.006,2.406-6.006,6.271,0,3.912,2.25,6.244,6.006,6.244,3.7,0,6-2.4,6-6.268C-92.048-635.358-94.287-637.694-98.044-637.694Zm-.019,10.354c-1.074,0-2.5-.426-2.5-4.083,0-3.6,1.274-4.081,2.519-4.081,1.077,0,2.507.418,2.507,4.057C-95.536-627.834-96.81-627.34-98.063-627.34Z" transform="translate(119.718 642.691)" fill="#263185"/>
        <path id="Trazado_42" data-name="Trazado 42" d="M-.4-634.821a5.354,5.354,0,0,0-2.593-.658c-3.322,0-5.68,2.641-5.68,6.349,0,3.558,1.868,5.787,4.859,5.787a8.8,8.8,0,0,0,3.324-.933v.957c0,2.072-.754,2.667-3.343,2.667a18.514,18.514,0,0,1-3.98-.48v2a20.79,20.79,0,0,0,4.773.7,8.561,8.561,0,0,0,3.974-.8c1.453-.773,1.99-1.864,1.99-3.962v-12.135H-.4Zm-.09,8.906a9.51,9.51,0,0,1-1.545.139c-2.011,0-3.111-1.3-3.111-3.69,0-2.482,1.243-3.919,3.414-3.919a6.415,6.415,0,0,1,1.242.115Z" transform="translate(37.472 640.781)" fill="#263185"/>
        <path id="Trazado_43" data-name="Trazado 43" d="M248.7-634.779h-3.252v.5a5.192,5.192,0,0,0-2.538-.657c-3.255,0-5.564,2.632-5.564,6.328,0,3.542,1.829,5.765,4.76,5.765a7.03,7.03,0,0,0,3.249-1.209v1.1l4.691-.471v-1.98H248.7Zm-3.245,9.423a9.367,9.367,0,0,1-1.58.144c-2.048,0-3.175-1.318-3.175-3.733,0-2.51,1.267-3.96,3.488-3.96a6.31,6.31,0,0,1,1.266.12Z" transform="translate(-174.667 640.313)" fill="#263185"/>
        <path id="Trazado_44" data-name="Trazado 44" d="M269.112-671.45l-.79-2.532-.347.14-5.194,2.1.454,1.513Z" transform="translate(-196.601 673.982)" fill="#263185"/>
      </g>
      <g id="Grupo_43" data-name="Grupo 43" transform="translate(-1012.227 -750.161)">
        <path id="Trazado_45" data-name="Trazado 45" d="M-454.824-637.07v.92a9.308,9.308,0,0,1,3.17-1.084,3.01,3.01,0,0,1,1.289.283v2.855a5.9,5.9,0,0,0-2.6-.542,11.014,11.014,0,0,0-1.763.188v9.536h-3.482v-11.8Z" transform="translate(534.495 642.144)" fill="#263185"/>
        <path id="Trazado_46" data-name="Trazado 46" d="M-666.644-634.883a11.142,11.142,0,0,0-2.5-.282c-2.572,0-3.837,1.348-3.837,4.085,0,2.6,1.239,3.846,3.861,3.846a15.62,15.62,0,0,0,2.48-.21v1.864a18.939,18.939,0,0,1-4.146.707c-3.626,0-5.8-2.241-5.8-5.973,0-4.083,2.431-6.56,6.462-6.56a12.96,12.96,0,0,1,3.479.589Z" transform="translate(722.803 642.292)" fill="#263185"/>
        <path id="Trazado_47" data-name="Trazado 47" d="M-1000.238-666.42v-2.357h-11.989V-667s1.5.217,1.95.284v14.6h3.6v-7.434h5.1v-2.361h-4.456l-.646,1.056v-5.567Z" transform="translate(1012.227 669.343)" fill="#263185"/>
        <path id="Trazado_48" data-name="Trazado 48" d="M-861.56-672.887l-.169.021-.4.048-4.391.556v1.48h1.619c0,.271,0,3.527,0,3.862a7.707,7.707,0,0,0-4.8-.256c-2.3.777-3.6,2.854-3.667,5.855a5.572,5.572,0,0,0,3.58,5.691,7.611,7.611,0,0,0,5.04-.646c.009.233.04.978.04.978l4.427-.587v-1.48H-861.7C-861.694-657.667-861.56-672.887-861.56-672.887Zm-3.332,15.107c-1.5.4-3.154.7-4.228-.593a4.705,4.705,0,0,1-.751-3.025c0-.126,0-.262,0-.393a3.983,3.983,0,0,1,1.012-2.8c1.022-1.152,2.768-.923,4.046-.325C-864.809-664.911-864.892-658.022-864.892-657.78Z" transform="translate(892.488 672.887)" fill="#263185"/>
        <path id="Trazado_49" data-name="Trazado 49" d="M-767.918-623.764a10.557,10.557,0,0,0,3.79-.972c.021.275.068.949.068.949l5.035-.64v-1.763h-1.853v-9.849h-3.3s-.03,8.7-.03,9.2a8.391,8.391,0,0,1-2.559.479,1.528,1.528,0,0,1-1.1-.3c-.315-.322-.31-.953-.3-1.683l0-7.691H-771.5v7.867c0,1.825.081,2.421.659,3.165A3.468,3.468,0,0,0-767.918-623.764Z" transform="translate(804.649 641.113)" fill="#263185"/>
        <path id="Trazado_50" data-name="Trazado 50" d="M-544.79-635.982h-3.254v.508a5.131,5.131,0,0,0-2.537-.665c-3.255,0-5.566,2.681-5.566,6.445,0,3.609,1.828,5.874,4.76,5.874a6.952,6.952,0,0,0,3.251-1.23v1.123l4.689-.483v-2.017h-1.344Zm-3.245,9.6a9,9,0,0,1-1.579.147c-2.051,0-3.177-1.343-3.177-3.8,0-2.561,1.267-4.038,3.49-4.038a6.01,6.01,0,0,1,1.267.126Z" transform="translate(618.947 641.2)" fill="#263185"/>
        <path id="Trazado_51" data-name="Trazado 51" d="M-341.151-635.982H-344.4v.508a5.144,5.144,0,0,0-2.537-.665c-3.256,0-5.568,2.681-5.568,6.445,0,3.609,1.831,5.874,4.764,5.874a6.949,6.949,0,0,0,3.247-1.23v1.123l4.691-.483v-2.017h-1.344Zm-3.245,9.6a9.007,9.007,0,0,1-1.579.147c-2.052,0-3.178-1.343-3.178-3.8,0-2.561,1.269-4.038,3.49-4.038a6,6,0,0,1,1.266.126Z" transform="translate(443.35 641.2)" fill="#263185"/>
        <path id="Trazado_52" data-name="Trazado 52" d="M-594.455-668.222c1.549,0,2.123-.448,2.123-1.629,0-1.156-.574-1.606-2.074-1.606s-2.1.45-2.1,1.583C-596.5-668.669-595.934-668.222-594.455-668.222Zm1.674,1.544-4.313.506v1.888h.924v9.751h3.479v-12.156l-.089.012Z" transform="translate(654.256 671.653)" fill="#263185"/>
        <path id="Trazado_53" data-name="Trazado 53" d="M-390.81-668.222c1.55,0,2.123-.448,2.123-1.629,0-1.156-.572-1.606-2.076-1.606s-2.1.45-2.1,1.583C-392.861-668.669-392.287-668.222-390.81-668.222Zm1.677,1.544-4.316.506v1.888h.924v9.751h3.481v-12.156l-.088.012Z" transform="translate(478.653 671.653)" fill="#263185"/>
        <path id="Trazado_54" data-name="Trazado 54" d="M-913.346-668.222c1.549,0,2.121-.448,2.121-1.629,0-1.156-.572-1.606-2.072-1.606s-2.1.45-2.1,1.583C-915.394-668.669-914.823-668.222-913.346-668.222Zm1.676,1.544-4.314.506v1.888h.922v9.751h3.479v-12.156l-.088.012Z" transform="translate(929.236 671.653)" fill="#263185"/>
      </g>
    </g>
  </g>
</svg>
