<svg xmlns="http://www.w3.org/2000/svg" width="19.408" height="215.156" viewBox="0 0 19.408 215.156">
  <path id="vigilado" d="M123.986,328.847h11.541v-1.518H123.986Zm0-17.02h11.541V310.3H123.986Zm0,20.208,8.384,3.113c.631.244,1.26.446,1.89.632-.586.157-1.216.362-1.89.6l-8.384,3.009v1.648l11.541-4.471V335l-11.541-4.515Zm9.937-17.7h-4.287l.013,4.9H131v-3.395h2.15a5.218,5.218,0,0,1,.822,1.428,5.312,5.312,0,0,1,.375,1.934,4.735,4.735,0,0,1-.507,2.162,3.4,3.4,0,0,1-1.54,1.551,5.772,5.772,0,0,1-2.587.527,5.985,5.985,0,0,1-2.321-.444,3.982,3.982,0,0,1-1.142-.718,3.385,3.385,0,0,1-.828-1.243,4.446,4.446,0,0,1-.331-1.8,3.931,3.931,0,0,1,.31-1.589,2.6,2.6,0,0,1,.8-1.111,4.138,4.138,0,0,1,1.387-.641l-.379-1.384a5.1,5.1,0,0,0-1.886.879,3.753,3.753,0,0,0-1.129,1.586,6.084,6.084,0,0,0-.4,2.259,6.368,6.368,0,0,0,.705,3.049,4.673,4.673,0,0,0,2.175,2.028,7.024,7.024,0,0,0,3.142.708,6.483,6.483,0,0,0,3.077-.715A4.775,4.775,0,0,0,135,322.213a6.551,6.551,0,0,0,.731-3.1,6.85,6.85,0,0,0-.453-2.449A8.572,8.572,0,0,0,133.922,314.334Zm1.6-30.616a8.183,8.183,0,0,0-.192-1.854,4.349,4.349,0,0,0-.581-1.379,4.235,4.235,0,0,0-1.047-1.056,5.572,5.572,0,0,0-1.684-.783,7.911,7.911,0,0,0-2.337-.309,7.476,7.476,0,0,0-2.729.461,4.664,4.664,0,0,0-1.982,1.356,3.929,3.929,0,0,0-.822,1.693,9.282,9.282,0,0,0-.167,2.057v3.983h11.541Zm-1.362,2.633h-8.815v-2.425a6.042,6.042,0,0,1,.233-1.981,2.973,2.973,0,0,1,1.31-1.431,5.267,5.267,0,0,1,2.778-.6,7.342,7.342,0,0,1,2.222.307,3.7,3.7,0,0,1,1.464.841,2.669,2.669,0,0,1,.6,1.046,6.348,6.348,0,0,1,.2,1.786Zm-10.179,21.316h11.541v-7.2h-1.362v5.68H123.986Zm8.919-41.291a6.7,6.7,0,0,0-3.134-.714,6.954,6.954,0,0,0-3.093.676,4.951,4.951,0,0,0-2.137,1.956,5.49,5.49,0,0,0-.759,2.88,5.259,5.259,0,0,0,1.624,3.987,6.3,6.3,0,0,0,4.5,1.547,6.516,6.516,0,0,0,2.88-.674,5.13,5.13,0,0,0,2.151-1.934,5.521,5.521,0,0,0,.789-2.916,5.747,5.747,0,0,0-.712-2.8A4.736,4.736,0,0,0,132.9,266.375Zm.315,7.636a4.669,4.669,0,0,1-3.293,1.118,4.983,4.983,0,0,1-3.715-1.17,3.938,3.938,0,0,1-1.121-2.786,3.741,3.741,0,0,1,2.217-3.461,5.848,5.848,0,0,1,2.46-.474,4.9,4.9,0,0,1,3.439,1.113,3.679,3.679,0,0,1,1.211,2.839A3.729,3.729,0,0,1,133.22,274.012Zm-9.234,21.459,11.541,4.429v-1.618l-3.5-1.261v-4.833l3.5-1.345V289.1l-11.541,4.726Zm3.6-1.6,3.2-1.212v3.918l-3.382-1.273a16.706,16.706,0,0,0-2.2-.625C125.825,294.505,126.619,294.23,127.59,293.872Zm.251-150.6h-5.773v.761h5.773Zm6.751,52.633a3.347,3.347,0,0,0-1.567-.353,3.507,3.507,0,0,0-1.549.334,2.518,2.518,0,0,0-1.068.975,2.776,2.776,0,0,0-.378,1.447,2.632,2.632,0,0,0,.809,1.987,3.125,3.125,0,0,0,2.252.76,3.388,3.388,0,0,0,1.443-.31,2.608,2.608,0,0,0,1.071-.986,2.682,2.682,0,0,0,.394-1.452,2.907,2.907,0,0,0-.356-1.409A2.412,2.412,0,0,0,134.591,195.9Zm.153,3.814a2.318,2.318,0,0,1-1.644.566,2.509,2.509,0,0,1-1.855-.586,1.934,1.934,0,0,1-.561-1.4,1.86,1.86,0,0,1,.29-1.025,1.919,1.919,0,0,1,.816-.707,3.188,3.188,0,0,1,1.231-.228,2.422,2.422,0,0,1,1.716.551,1.942,1.942,0,0,1,.006,2.828Zm-6.9-48.45h-5.773v.738H126.6l-4.529,3.025v.787h5.773v-.732H123.3l4.539-3.031Zm-4.5-1.4a3.529,3.529,0,0,0,1.571.343,3.956,3.956,0,0,0,1.547-.3,2.429,2.429,0,0,0,1.1-.888,2.791,2.791,0,0,0,.386-1.532,2.391,2.391,0,0,0-.5-1.515,2.555,2.555,0,0,0-1.43-.869l-.2.767a1.826,1.826,0,0,1,1.1.611,1.558,1.558,0,0,1,.369,1.069,1.924,1.924,0,0,1-.268.994,1.646,1.646,0,0,1-.819.662,3.624,3.624,0,0,1-2.4.036,1.748,1.748,0,0,1-.855-.63,1.849,1.849,0,0,1-.321-1.112,1.547,1.547,0,0,1,.285-.956,1.77,1.77,0,0,1,.921-.589l-.176-.751a2.283,2.283,0,0,0-1.244.82,2.4,2.4,0,0,0-.435,1.461,2.95,2.95,0,0,0,.344,1.4A2.445,2.445,0,0,0,123.34,149.868Zm4.5,7.419v-.861l-5.773,2.357v.82l5.773,2.216v-.811l-1.751-.628v-2.417Zm-2.367,2.868-1.7-.633a6.872,6.872,0,0,0-1.105-.307c.315-.091.712-.228,1.2-.414l1.6-.6Zm-3.406,23.75h5.773v-.761h-5.773Zm5.773-46.294h-.677v3.532h-1.97V137.95h-.673v3.192h-1.776v-3.414h-.677v4.179h5.773Zm0,24.861h-5.773v.731H126.6l-4.529,3.027v.786h5.773v-.726H123.3l4.539-3.038Zm0,15.429v-.872l-5.773,2.361v.817l5.773,2.225v-.809l-1.751-.635v-2.425Zm-2.367,2.863-1.7-.633a6.433,6.433,0,0,0-1.105-.309c.315-.093.712-.229,1.2-.416l1.6-.6ZM135.9,170.82H130.13v.764H135.9Zm-8.063-35.047h-2.562v-.887a2.222,2.222,0,0,1,.027-.427,1.015,1.015,0,0,1,.154-.345,1.536,1.536,0,0,1,.38-.39q.279-.212.8-.551l1.2-.762v-.967l-1.572,1.011a3.615,3.615,0,0,0-.765.631,1.727,1.727,0,0,0-.29.463,1.978,1.978,0,0,0-.536-1.227,1.44,1.44,0,0,0-1.041-.4,1.7,1.7,0,0,0-.869.232,1.336,1.336,0,0,0-.546.652,3.454,3.454,0,0,0-.154,1.178v2.554h5.773Zm-3.225,0H122.71v-1.833a1.331,1.331,0,0,1,.263-.931.852.852,0,0,1,.664-.3.956.956,0,0,1,.527.151.884.884,0,0,1,.34.441,2.444,2.444,0,0,1,.11.83ZM135.9,174.919a3.7,3.7,0,0,0-.1-.92,1.986,1.986,0,0,0-.285-.647,1.471,1.471,0,0,0-.534-.416,1.715,1.715,0,0,0-.761-.167,1.391,1.391,0,0,0-.873.284,1.457,1.457,0,0,0-.52.8,1.42,1.42,0,0,0-.529-.6,1.263,1.263,0,0,0-.7-.2,1.4,1.4,0,0,0-.759.221,1.416,1.416,0,0,0-.542.632,2.714,2.714,0,0,0-.173,1.063v2.167H135.9Zm-3.348,1.441h-1.748v-1.151a3.472,3.472,0,0,1,.082-.888.7.7,0,0,1,.3-.382.975.975,0,0,1,.505-.148.827.827,0,0,1,.505.159.791.791,0,0,1,.29.435,2.924,2.924,0,0,1,.065.729Zm2.664,0h-1.987v-1.337a2.677,2.677,0,0,1,.1-.837.849.849,0,0,1,.324-.466.962.962,0,0,1,.564-.159,1,1,0,0,1,.491.11.9.9,0,0,1,.315.284,1.154,1.154,0,0,1,.163.452,3.242,3.242,0,0,1,.027.513Zm.684-7.066-1.748-.623v-2.427l1.748-.664v-.869l-5.773,2.362v.817l5.773,2.217Zm-2.375-.855-1.689-.63a6.987,6.987,0,0,0-1.1-.313c.312-.082.71-.224,1.2-.4l1.6-.6Zm1.063,16.71a3.369,3.369,0,0,0-1.567-.359,3.44,3.44,0,0,0-1.549.337,2.533,2.533,0,0,0-1.068.973,2.806,2.806,0,0,0-.378,1.444,2.645,2.645,0,0,0,.809,2,3.138,3.138,0,0,0,2.252.776,3.391,3.391,0,0,0,1.443-.335,2.576,2.576,0,0,0,1.071-.969,2.739,2.739,0,0,0,.394-1.46,2.851,2.851,0,0,0-.356-1.4A2.4,2.4,0,0,0,134.591,185.149Zm.153,3.809a2.284,2.284,0,0,1-1.644.568,2.458,2.458,0,0,1-1.855-.587,1.937,1.937,0,0,1-.561-1.4,1.848,1.848,0,0,1,.29-1.022,1.764,1.764,0,0,1,.816-.7,2.822,2.822,0,0,1,1.231-.238,2.373,2.373,0,0,1,1.716.554,1.822,1.822,0,0,1,.614,1.414A1.842,1.842,0,0,1,134.744,188.958ZM135.9,191h-.684v2.83h-5.09v.769H135.9Zm0-7.9h-4.917l4.917-1.672v-.687l-4.831-1.677H135.9v-.731H130.13v1.019l4.014,1.389c.408.131.713.24.929.3-.192.06-.477.148-.855.282l-4.088,1.362v1.143H135.9Zm-8.063-52.544-1.751-.635V127.5l1.751-.672v-.872l-5.773,2.362v.825l5.773,2.217Zm-2.367-.852-1.7-.641a6.888,6.888,0,0,0-1.105-.305c.315-.094.712-.238,1.2-.411l1.6-.606ZM122.067,247.65h5.773v-.766h-2.346V245.4a2.269,2.269,0,0,0-.51-1.689,1.806,1.806,0,0,0-1.25-.471,1.848,1.848,0,0,0-.787.176,1.426,1.426,0,0,0-.551.46,1.732,1.732,0,0,0-.271.717,5.091,5.091,0,0,0-.057.876Zm.677-2.239a3.138,3.138,0,0,1,.06-.721.794.794,0,0,1,.334-.471,1.017,1.017,0,0,1,.62-.181,1,1,0,0,1,.778.3,1.639,1.639,0,0,1,.276,1.055v1.495h-2.068Zm5.1-72.037h-2.627v-2.707h-.677v2.707h-1.792v-3.132h-.677v3.893h5.773Zm-5.773,50.071h.677v-1.907h5.1v-.762h-5.1v-1.91h-.677Zm0-5.381h5.773v-4.3h-.677V217.3h-1.97v-3.2h-.673v3.2h-1.776v-3.413h-.677ZM135.22,213.5h-1.96V210.3h-.682V213.5h-1.77v-3.409h-.677v4.165H135.9v-4.3h-.684Zm-13.152-6.622h5.773v-2.09a3.72,3.72,0,0,0-.1-.914,2.206,2.206,0,0,0-.283-.7,2.4,2.4,0,0,0-.523-.521,2.775,2.775,0,0,0-.85-.394,3.8,3.8,0,0,0-1.162-.156,3.858,3.858,0,0,0-1.37.224,2.465,2.465,0,0,0-.991.687,2,2,0,0,0-.414.842,5.364,5.364,0,0,0-.079,1.032Zm.677-1.981a2.92,2.92,0,0,1,.123-.981,1.487,1.487,0,0,1,.652-.721,2.681,2.681,0,0,1,1.392-.3,3.547,3.547,0,0,1,1.113.158,1.788,1.788,0,0,1,.726.419,1.325,1.325,0,0,1,.3.517,2.987,2.987,0,0,1,.115.895v1.234h-4.419Zm12.774,11.5a2.173,2.173,0,0,0-.531-.529,2.861,2.861,0,0,0-.841-.394,3.944,3.944,0,0,0-1.164-.153,3.693,3.693,0,0,0-1.367.238,2.406,2.406,0,0,0-.989.666,2.018,2.018,0,0,0-.416.854,4.684,4.684,0,0,0-.082,1.027V220.1H135.9v-2.082a3.7,3.7,0,0,0-.1-.924A2.357,2.357,0,0,0,135.519,216.4Zm-.3,2.934h-4.412v-1.209a2.973,2.973,0,0,1,.125-.987,1.407,1.407,0,0,1,.652-.723,2.559,2.559,0,0,1,1.391-.3,3.545,3.545,0,0,1,1.115.159,1.786,1.786,0,0,1,.726.424,1.234,1.234,0,0,1,.3.517,2.951,2.951,0,0,1,.107.893Zm-10.4,38.736a5.552,5.552,0,0,0,.359-1.114c.129-.531.222-.87.284-1.032a1.156,1.156,0,0,1,.343-.516.707.707,0,0,1,.471-.156.752.752,0,0,1,.5.173.964.964,0,0,1,.349.5,1.959,1.959,0,0,1,.139.767,2.188,2.188,0,0,1-.173.88,1.342,1.342,0,0,1-.45.579,1.487,1.487,0,0,1-.715.238l.062.723a1.91,1.91,0,0,0,1.044-.31,1.845,1.845,0,0,0,.683-.838,3.251,3.251,0,0,0,.236-1.313,2.586,2.586,0,0,0-.236-1.107,1.662,1.662,0,0,0-.624-.756,1.611,1.611,0,0,0-.882-.277,1.43,1.43,0,0,0-.816.251,1.761,1.761,0,0,0-.588.746,7.785,7.785,0,0,0-.37,1.279,2.991,2.991,0,0,1-.409,1.141.658.658,0,0,1-.517.224.765.765,0,0,1-.608-.312,1.629,1.629,0,0,1-.252-1.013,1.554,1.554,0,0,1,.274-1,1.168,1.168,0,0,1,.828-.4l-.057-.739a1.786,1.786,0,0,0-.9.28,1.633,1.633,0,0,0-.608.762,2.818,2.818,0,0,0-.2,1.126,2.866,2.866,0,0,0,.189,1.066,1.565,1.565,0,0,0,.581.718,1.49,1.49,0,0,0,.814.252,1.434,1.434,0,0,0,.726-.2A1.667,1.667,0,0,0,124.817,258.069Zm-2.749-15.823h5.773v-4.3h-.677v3.545h-1.97V238.3h-.673v3.189h-1.776v-3.413h-.677Zm0-5.364h5.773v-.765h-2.562v-.879a2.328,2.328,0,0,1,.027-.433.951.951,0,0,1,.154-.345,1.559,1.559,0,0,1,.38-.392,8.635,8.635,0,0,1,.8-.548l1.2-.762v-.964l-1.572,1a4.021,4.021,0,0,0-.765.636,1.784,1.784,0,0,0-.29.468,2.008,2.008,0,0,0-.536-1.233,1.458,1.458,0,0,0-1.041-.4,1.758,1.758,0,0,0-.869.237,1.327,1.327,0,0,0-.546.654,3.486,3.486,0,0,0-.154,1.168Zm.643-2.6a1.366,1.366,0,0,1,.263-.934.835.835,0,0,1,.664-.29.9.9,0,0,1,.527.151.852.852,0,0,1,.34.452,2.284,2.284,0,0,1,.11.81v1.646H122.71Zm-.643-3.345h5.773v-.754h-5.773Zm1.273-41.208a3.384,3.384,0,0,0,1.571.345,4.035,4.035,0,0,0,1.547-.294,2.486,2.486,0,0,0,1.1-.9,2.732,2.732,0,0,0,.386-1.513,2.432,2.432,0,0,0-.5-1.526,2.535,2.535,0,0,0-1.43-.86l-.2.758a1.861,1.861,0,0,1,1.1.6,1.632,1.632,0,0,1,.369,1.087,1.892,1.892,0,0,1-.268.986,1.664,1.664,0,0,1-.819.663,3.526,3.526,0,0,1-1.285.219,3.4,3.4,0,0,1-1.11-.187,1.63,1.63,0,0,1-.855-.628,1.855,1.855,0,0,1-.321-1.115,1.576,1.576,0,0,1,.285-.959,1.862,1.862,0,0,1,.921-.583l-.176-.745a2.237,2.237,0,0,0-1.244.817,2.4,2.4,0,0,0-.435,1.458,2.873,2.873,0,0,0,.344,1.4A2.3,2.3,0,0,0,123.34,189.73Zm-1.273,39.1h5.773V228.1H123.3l4.539-3.033v-.781h-5.773v.732H126.6l-4.529,3.034Zm4.441,23.727a3.46,3.46,0,0,1-1.11.137h-3.33v.767h3.33a3.793,3.793,0,0,0,1.454-.233,1.6,1.6,0,0,0,.806-.729,2.782,2.782,0,0,0,.287-1.321,2.562,2.562,0,0,0-.324-1.346,1.743,1.743,0,0,0-.838-.721,3.939,3.939,0,0,0-1.384-.186h-3.33v.756h3.33a2.206,2.206,0,0,1,1.469.358,1.613,1.613,0,0,1,.381,1.2,1.753,1.753,0,0,1-.192.841A1.108,1.108,0,0,1,126.508,252.559Zm1.332-84.2h-5.773v.761h5.773Zm6.233,33.41-.2.773a1.851,1.851,0,0,1,1.1.6,1.619,1.619,0,0,1,.376,1.082,1.863,1.863,0,0,1-.279.98,1.571,1.571,0,0,1-.814.677,3.675,3.675,0,0,1-1.288.2,3.465,3.465,0,0,1-1.109-.175,1.778,1.778,0,0,1-.861-.626,1.894,1.894,0,0,1-.316-1.115,1.566,1.566,0,0,1,.285-.96,1.757,1.757,0,0,1,.918-.583l-.176-.751a2.251,2.251,0,0,0-1.239.823,2.355,2.355,0,0,0-.44,1.458,2.891,2.891,0,0,0,.353,1.4,2.329,2.329,0,0,0,1.017.979,3.351,3.351,0,0,0,1.572.343,3.977,3.977,0,0,0,1.543-.306,2.373,2.373,0,0,0,1.1-.9,2.72,2.72,0,0,0,.378-1.507,2.348,2.348,0,0,0-.491-1.524A2.515,2.515,0,0,0,134.073,201.772Zm-12.006-6.089h5.773v-.729H123.3l4.539-3.03v-.787h-5.773v.734H126.6l-4.529,3.039Zm0,17.023h5.773v-.724H123.3l4.539-3.034v-.786h-5.773v.737H126.6l-4.529,3.027Zm0-11.666h5.773v-4.305h-.677v3.55h-1.97v-3.2h-.673v3.2h-1.776v-3.413h-.677ZM120,341.11h1.346v-76.2H120Zm18.065-76.2v76.2h1.343v-76.2Z" transform="translate(-120 -125.954)" opacity="0.5"/>
</svg>
